M48
;Layer_Color=9474304
;FILE_FORMAT=2:4
INCH,TZ
;TYPE=PLATED
T1F00S00C0.0118
T2F00S00C0.0157
T3F00S00C0.0197
T4F00S00C0.0315
T5F00S00C0.0354
T6F00S00C0.0394
T7F00S00C0.0984
T8F00S00C0.1260
%
T01
X4724Y3504
X6654Y3858
X8346Y3898
X8937Y3858
X9409Y4291
X8937Y4882
X9409Y5354
Y3189
X9370Y1969
X10886Y1529
X5787Y1102
X7756Y4528
X14577Y4994
X15472Y5236
X15669Y4512
Y3512
Y2512
X17402Y2992
X17480Y2087
X18543Y2539
X19213Y2992
X19921Y2992
X19567Y3425
X19213Y4014
Y5000
X17402Y5000
Y4014
X21220Y4055
Y3661
Y4449
Y4843
X20827Y1378
X19685Y669
X21969Y945
X22559Y1969
X22323Y2480
X22402Y3661
X22008
X21614
Y4055
Y4449
Y4843
X22008
X22402
Y4449
Y4055
X22008
Y4449
X23976Y3740
X37598Y5079
X41142Y2417
X43134Y2425
X45142Y2433
X47756Y5472
X48307Y8622
X50354
Y10118
Y14291
X48898
X48110Y13858
X47402Y14488
X46496
X45748Y13858
X45433Y12992
X46614Y12087
X44252Y10394
X44583Y8639
X45276Y6890
X41890Y5748
X41220
X40236
X38543Y6142
X38110
X38976Y7638
X39409Y10433
X39803
X41102Y9764
X40984Y11850
X38711Y11496
X37953
X37628Y13110
X37283Y14134
X37087Y16024
Y18583
X38189Y19606
X39606Y17047
X40000
X40118Y15709
X40945Y17874
X42598
X43504Y17047
X45433Y17874
X45866Y17717
Y18228
X45394Y20315
X42717Y21102
X41614Y21142
X41575Y20551
X48898Y20079
Y17165
X50512Y17677
X45433Y15394
X37441Y9856
X36417Y10354
X35787Y9856
X34593
X33504Y9961
X31811
X32441Y9173
X31535Y8346
X30354
X30276Y6260
X28150Y7992
X28937Y9606
X28701Y9921
X29173Y10000
X28701Y10984
X28740Y11929
X28661Y13858
Y14291
X27835Y13858
X26850Y12677
X27205Y11220
X26654Y10157
X25965Y10335
Y10709
X25472Y11378
Y9173
X26654Y9213
X23976Y9567
X22283Y10315
X22126Y8819
X24646Y6693
X25906Y6339
X23346Y13110
X22047Y15647
Y18032
X23780Y18346
X24370Y18740
X24921Y18858
Y18346
X25540Y18701
X25273Y19331
Y20333
X24921Y20906
X27087Y21220
X31654Y20906
X31669Y19465
X31462Y19060
X30236Y19016
Y18189
X30852Y17884
X32106Y16995
X32638Y18623
X33228Y18228
X36063Y18463
X36616
Y16024
X35315Y13346
X34675
X35315Y12402
X35787Y11260
X34593Y11260
X33465Y11929
X33031
X32677Y12835
X32244Y11378
X31339Y11929
X30591Y11102
X30276Y12598
X30280Y13228
X30852Y13858
X30236Y14799
X30118Y15551
X26024Y17008
X25307Y17606
X35358Y20752
X36437Y8858
X19031Y9102
X18783Y8811
X18535Y8520
X18287Y8228
X18039Y7937
X17791Y7646
X17543Y7354
X17295Y7063
X17047Y6772
X17402Y6002
X19213
X19280Y9394
X19528Y9685
X18780Y10669
X20236Y12126
X19213Y14724
X18740Y15709
X19213Y17126
X18059Y17138
X15669Y17559
X15197Y16811
Y15827
Y14843
Y14252
X16378Y13150
X15197Y11772
Y10787
X15122Y9803
X13591Y9295
X12411Y10787
Y15827
X13553Y17588
X15197Y18898
X15157Y19882
Y20866
X16338Y19409
X17244Y19173
X21024Y19213
X21024Y18543
X12402Y19449
X7756Y19724
Y18311
Y16929
Y15472
Y14094
Y12684
Y11287
Y9871
X7165Y9173
Y8150
X7756Y8465
X8898Y6850
X9409
X7756Y21142
Y22559
Y23937
X7244Y24567
Y25472
X7953Y26299
X7441Y27874
X7953Y28583
Y28937
X6850Y30787
X6260
X13701Y29921
Y29134
Y28346
Y27559
X14488
Y28346
X15276
Y27559
Y29134
X14488
X14488Y29921
X15276
X14094Y25197
Y24803
X14134Y23543
X15157Y21535
X16772Y22638
X17638
X20591Y22244
X21024Y21575
X20591Y26358
X21516
X21929Y21339
X22362
X22795
X24409Y22913
X25551
X30315Y21929
X31220Y22480
X31850Y23031
X32992
X34252Y23543
X35433Y25157
X35787
X35827Y26260
X31102Y24724
X38150Y30394
X40827Y29331
X41614
X45118Y30394
X47008Y26850
X47576Y26008
X47520Y24252
X46909
X44921Y24803
X44134Y24252
X43386Y21535
X49016Y22717
X49488Y23898
X50079Y26339
T02
X34252Y21545
Y22018
Y22490
T03
X16654Y1220
X30906Y6693
X28285Y12963
X28140Y17486
X27640
Y18036
X28140
Y18636
X27640
Y19336
X28140
Y19936
X27640
Y20486
X28140
X27835Y25276
Y26181
T04
X5866Y28031
Y29685
X38031Y28346
X38819
X39606
X40394
X41181
X41968
X42756
X43543
X44331
X45118
X45906
X46693
X42953Y26693
X42165
X43150Y22323
X43937
T05
X1772Y5276
X26024Y1811
X27008
X27992
X30748
X31732
X34488
X35472
X36457
X5315Y9528
Y10512
Y11496
Y12480
Y13465
Y14449
Y15433
Y16417
Y17402
Y18386
Y19370
Y20354
X1772Y20039
Y19055
Y18071
Y17087
Y16102
Y15118
Y14134
Y13150
Y12165
Y9213
Y8228
Y7244
Y6260
Y21024
Y22008
Y22992
X2008Y25591
Y26575
X5315Y26260
Y25276
Y24291
Y23307
Y22323
Y21339
T06
X26677Y4724
X27677
X28677
X26528Y13583
X25528
X24528
X24472Y29528
X25472
X26472
X36913Y25354
X37913
X38913
T07
X29894Y27835
X35067
T08
X1969Y1969
Y29528
M30
