G04*
G04 #@! TF.GenerationSoftware,Altium Limited,Altium Designer,19.0.14 (431)*
G04*
G04 Layer_Physical_Order=3*
G04 Layer_Color=128*
%FSAX24Y24*%
%MOIN*%
G70*
G01*
G75*
%ADD13C,0.0197*%
%ADD90C,0.0551*%
%ADD97C,0.0512*%
%ADD151C,0.0400*%
%ADD154C,0.1142*%
%ADD155C,0.0472*%
G04:AMPARAMS|DCode=156|XSize=62.992mil|YSize=62.992mil|CornerRadius=0mil|HoleSize=0mil|Usage=FLASHONLY|Rotation=0.000|XOffset=0mil|YOffset=0mil|HoleType=Round|Shape=Relief|Width=7.9mil|Gap=7.9mil|Entries=4|*
%AMTHD156*
7,0,0,0.0630,0.0472,0.0079,45*
%
%ADD156THD156*%
G04:AMPARAMS|DCode=157|XSize=51.181mil|YSize=51.181mil|CornerRadius=0mil|HoleSize=0mil|Usage=FLASHONLY|Rotation=0.000|XOffset=0mil|YOffset=0mil|HoleType=Round|Shape=Relief|Width=7.9mil|Gap=7.9mil|Entries=4|*
%AMTHD157*
7,0,0,0.0512,0.0354,0.0079,45*
%
%ADD157THD157*%
%ADD158C,0.0315*%
G04:AMPARAMS|DCode=159|XSize=66.929mil|YSize=66.929mil|CornerRadius=0mil|HoleSize=0mil|Usage=FLASHONLY|Rotation=0.000|XOffset=0mil|YOffset=0mil|HoleType=Round|Shape=Relief|Width=7.9mil|Gap=7.9mil|Entries=4|*
%AMTHD159*
7,0,0,0.0669,0.0512,0.0079,45*
%
%ADD159THD159*%
%ADD160C,0.1417*%
%ADD161C,0.0354*%
%ADD162C,0.0276*%
G04:AMPARAMS|DCode=163|XSize=70.866mil|YSize=70.866mil|CornerRadius=0mil|HoleSize=0mil|Usage=FLASHONLY|Rotation=0.000|XOffset=0mil|YOffset=0mil|HoleType=Round|Shape=Relief|Width=7.9mil|Gap=7.9mil|Entries=4|*
%AMTHD163*
7,0,0,0.0709,0.0551,0.0079,45*
%
%ADD163THD163*%
D13*
X008622Y031457D02*
X009370D01*
X034055Y011850D02*
X035236D01*
X016890Y011614D02*
X032677D01*
X034062Y011034D02*
Y011850D01*
X032677Y011024D02*
X034062Y011034D01*
X032677Y011024D02*
Y011614D01*
X015000Y000079D02*
Y006196D01*
X017132D01*
X018455Y007441D02*
X034331Y007441D01*
X017132Y006196D02*
X018455Y007441D01*
X034331Y007441D02*
X035236Y008346D01*
X010669Y022795D02*
X013740D01*
X014449Y022087D01*
Y014055D02*
Y022087D01*
X035236Y008346D02*
Y011850D01*
X034921Y000000D02*
X035039Y000118D01*
X014449Y014055D02*
X016890Y011614D01*
X009370Y024094D02*
X010669Y022795D01*
X009370Y024094D02*
Y031457D01*
D90*
X026528Y013583D02*
D03*
X025528D02*
D03*
X024528D02*
D03*
X025472Y029528D02*
D03*
X024472D02*
D03*
X038913Y025354D02*
D03*
X037913D02*
D03*
X036913D02*
D03*
X028677Y004724D02*
D03*
X027677D02*
D03*
X026677D02*
D03*
D97*
X034488Y001811D02*
D03*
X035472D02*
D03*
X036457D02*
D03*
X005315Y022323D02*
D03*
Y026260D02*
D03*
Y025276D02*
D03*
Y024291D02*
D03*
Y023307D02*
D03*
Y019370D02*
D03*
Y020354D02*
D03*
Y021339D02*
D03*
Y018386D02*
D03*
Y015433D02*
D03*
Y017402D02*
D03*
Y016417D02*
D03*
Y012480D02*
D03*
Y013465D02*
D03*
Y011496D02*
D03*
Y014449D02*
D03*
Y009528D02*
D03*
Y010512D02*
D03*
X001772Y005276D02*
D03*
Y009213D02*
D03*
Y008228D02*
D03*
Y007244D02*
D03*
Y006260D02*
D03*
Y019055D02*
D03*
Y022992D02*
D03*
Y022008D02*
D03*
Y021024D02*
D03*
Y020039D02*
D03*
Y016102D02*
D03*
Y017087D02*
D03*
Y018071D02*
D03*
Y015118D02*
D03*
Y012165D02*
D03*
Y014134D02*
D03*
Y013150D02*
D03*
X030748Y001811D02*
D03*
X031732D02*
D03*
X026024D02*
D03*
X027008D02*
D03*
X027992D02*
D03*
X002008Y026575D02*
D03*
D151*
X000000Y000000D02*
Y031496D01*
X051181D01*
Y000000D02*
Y031496D01*
X000000Y000000D02*
X051181D01*
D154*
X035067Y027835D02*
D03*
X029894D02*
D03*
D155*
X046693Y028346D02*
D03*
X043543D02*
D03*
X042756D02*
D03*
X041968D02*
D03*
X041181D02*
D03*
X040394D02*
D03*
X039606D02*
D03*
X038819D02*
D03*
X038031D02*
D03*
X044331D02*
D03*
X045118D02*
D03*
X042953Y026693D02*
D03*
X042165D02*
D03*
X043937Y022323D02*
D03*
X043150D02*
D03*
X005866Y029685D02*
D03*
D156*
X045906Y028346D02*
D03*
D157*
X027835Y026181D02*
D03*
D158*
X034252Y021545D02*
D03*
Y022490D02*
D03*
Y022018D02*
D03*
D159*
X002008Y025591D02*
D03*
D160*
X001969Y001969D02*
D03*
Y029528D02*
D03*
X049213Y001969D02*
D03*
Y029528D02*
D03*
D161*
X028140Y017486D02*
D03*
X027640D02*
D03*
Y018036D02*
D03*
X028140D02*
D03*
X027640Y018636D02*
D03*
X028140D02*
D03*
X027640Y019336D02*
D03*
X028140D02*
D03*
X027640Y019936D02*
D03*
X028140D02*
D03*
Y020486D02*
D03*
X027640D02*
D03*
X027835Y025276D02*
D03*
X030906Y006693D02*
D03*
X016654Y001220D02*
D03*
X028285Y012963D02*
D03*
D162*
X022008Y003661D02*
D03*
X021614D02*
D03*
X021220D02*
D03*
X022402D02*
D03*
X022008Y004843D02*
D03*
X021614D02*
D03*
X021220D02*
D03*
X022402D02*
D03*
Y004055D02*
D03*
Y004449D02*
D03*
X021220Y004055D02*
D03*
X021614D02*
D03*
X021220Y004449D02*
D03*
X021614D02*
D03*
X022008Y004055D02*
D03*
Y004449D02*
D03*
X024370Y018740D02*
D03*
X049488Y023898D02*
D03*
X037628Y013110D02*
D03*
X035787Y009856D02*
D03*
X037441D02*
D03*
X022047Y015647D02*
D03*
X020236Y012126D02*
D03*
X022047Y018032D02*
D03*
X021024Y021575D02*
D03*
X015472Y005236D02*
D03*
X032677Y012835D02*
D03*
X032244Y011378D02*
D03*
X028701Y010984D02*
D03*
X028937Y009606D02*
D03*
X028701Y009921D02*
D03*
X029173Y010000D02*
D03*
X027205Y011220D02*
D03*
X030591Y011102D02*
D03*
X031339Y011929D02*
D03*
X030354Y008346D02*
D03*
X031535D02*
D03*
X032441Y009173D02*
D03*
X019685Y000669D02*
D03*
X022323Y002480D02*
D03*
X048898Y020079D02*
D03*
Y017165D02*
D03*
X017402Y006002D02*
D03*
X019213D02*
D03*
X025273Y019331D02*
D03*
X025540Y018701D02*
D03*
X024921Y020906D02*
D03*
X025273Y020333D02*
D03*
X015122Y009803D02*
D03*
X030236Y019016D02*
D03*
X031669Y019465D02*
D03*
X045433Y015394D02*
D03*
X046496Y014488D02*
D03*
X026654Y009213D02*
D03*
Y010157D02*
D03*
X025965Y010335D02*
D03*
X018039Y007937D02*
D03*
X018783Y008811D02*
D03*
X018535Y008520D02*
D03*
X017543Y007354D02*
D03*
X017295Y007063D02*
D03*
X017791Y007646D02*
D03*
X018287Y008228D02*
D03*
X019031Y009102D02*
D03*
X015157Y021535D02*
D03*
X019528Y009685D02*
D03*
X019280Y009394D02*
D03*
X036417Y010354D02*
D03*
X037953Y011496D02*
D03*
X035315Y013346D02*
D03*
X030276Y006260D02*
D03*
X017244Y019173D02*
D03*
X024409Y022913D02*
D03*
X025551D02*
D03*
X018780Y010669D02*
D03*
X045142Y002433D02*
D03*
X041142Y002417D02*
D03*
X013591Y009295D02*
D03*
X022283Y010315D02*
D03*
X050512Y017677D02*
D03*
X018740Y015709D02*
D03*
X026024Y017008D02*
D03*
X023346Y013110D02*
D03*
X036063Y018463D02*
D03*
X034675Y013346D02*
D03*
X037283Y014134D02*
D03*
X028661Y014291D02*
D03*
X026850Y012677D02*
D03*
X037087Y016024D02*
D03*
X036616D02*
D03*
Y018463D02*
D03*
X021024Y018543D02*
D03*
X018059Y017138D02*
D03*
X017638Y022638D02*
D03*
X016772D02*
D03*
X015197Y014252D02*
D03*
X015157Y020866D02*
D03*
X015197Y011772D02*
D03*
X013553Y017588D02*
D03*
X015197Y018898D02*
D03*
Y010787D02*
D03*
X017047Y006772D02*
D03*
X037087Y018583D02*
D03*
X007441Y027874D02*
D03*
X024921Y018858D02*
D03*
Y018346D02*
D03*
X031220Y022480D02*
D03*
X030315Y021929D02*
D03*
X027087Y021220D02*
D03*
X023780Y018346D02*
D03*
X028661Y013858D02*
D03*
X015276Y028346D02*
D03*
Y029134D02*
D03*
Y027559D02*
D03*
X015197Y016811D02*
D03*
X015157Y019882D02*
D03*
X013701Y029134D02*
D03*
Y028346D02*
D03*
Y027559D02*
D03*
X014094Y024803D02*
D03*
Y025197D02*
D03*
X014134Y023543D02*
D03*
X014488Y028346D02*
D03*
Y027559D02*
D03*
Y029134D02*
D03*
X032992Y023031D02*
D03*
X036437Y008858D02*
D03*
X035827Y026260D02*
D03*
X031102Y024724D02*
D03*
X025965Y010709D02*
D03*
X038976Y007638D02*
D03*
X021024Y019213D02*
D03*
X025906Y006339D02*
D03*
X019213Y005000D02*
D03*
X028740Y011929D02*
D03*
X030280Y013228D02*
D03*
X027835Y013858D02*
D03*
X038711Y011496D02*
D03*
X022126Y008819D02*
D03*
X025472Y009173D02*
D03*
X023976Y009567D02*
D03*
X037598Y005079D02*
D03*
X023976Y003740D02*
D03*
X019921Y002992D02*
D03*
X021969Y000945D02*
D03*
X040827Y029331D02*
D03*
X044921Y024803D02*
D03*
X006260Y030787D02*
D03*
X006654Y003858D02*
D03*
X004724Y003504D02*
D03*
X041575Y020551D02*
D03*
X040000Y017047D02*
D03*
X039606D02*
D03*
X024646Y006693D02*
D03*
X006850Y030787D02*
D03*
X050354Y008622D02*
D03*
X045433Y017874D02*
D03*
X031811Y009961D02*
D03*
X033031Y011929D02*
D03*
X025472Y011378D02*
D03*
X028150Y007992D02*
D03*
X030276Y012598D02*
D03*
X030852Y013858D02*
D03*
X045866Y018228D02*
D03*
X045748Y013858D02*
D03*
X043504Y017047D02*
D03*
X045866Y017717D02*
D03*
X039409Y010433D02*
D03*
X045394Y020315D02*
D03*
X042717Y021102D02*
D03*
X042598Y017874D02*
D03*
X038110Y006142D02*
D03*
X039803Y010433D02*
D03*
X038543Y006142D02*
D03*
X044134Y024252D02*
D03*
X050354Y010118D02*
D03*
X048307Y008622D02*
D03*
X041102Y009764D02*
D03*
X046614Y012087D02*
D03*
X048898Y014291D02*
D03*
X025307Y017606D02*
D03*
X045433Y012992D02*
D03*
X047402Y014488D02*
D03*
X048110Y013858D02*
D03*
X043134Y002425D02*
D03*
X035433Y025157D02*
D03*
X035787D02*
D03*
X020591Y026358D02*
D03*
X031654Y020906D02*
D03*
X032638Y018623D02*
D03*
X031850Y023031D02*
D03*
X015276Y029921D02*
D03*
X014488D02*
D03*
X013701D02*
D03*
X022362Y021339D02*
D03*
X021929D02*
D03*
X022795D02*
D03*
X020591Y022244D02*
D03*
X030236Y014799D02*
D03*
X007953Y026299D02*
D03*
Y028583D02*
D03*
Y028937D02*
D03*
X007244Y024567D02*
D03*
Y025472D02*
D03*
X035358Y020752D02*
D03*
X033504Y009961D02*
D03*
X009409Y004291D02*
D03*
X034252Y023543D02*
D03*
X017480Y002087D02*
D03*
X015669Y002512D02*
D03*
Y003512D02*
D03*
Y004512D02*
D03*
X007756Y023937D02*
D03*
X030852Y017884D02*
D03*
X045118Y030394D02*
D03*
X010886Y001529D02*
D03*
X047008Y026850D02*
D03*
X046909Y024252D02*
D03*
X019213Y004014D02*
D03*
Y002992D02*
D03*
X030236Y018189D02*
D03*
X008898Y006850D02*
D03*
X038189Y019606D02*
D03*
X031462Y019060D02*
D03*
X050079Y026339D02*
D03*
X035787Y011260D02*
D03*
X045276Y006890D02*
D03*
X007756Y004528D02*
D03*
X008346Y003898D02*
D03*
X009409Y006850D02*
D03*
X007756Y022559D02*
D03*
Y021142D02*
D03*
X007165Y009173D02*
D03*
X007756Y009871D02*
D03*
Y011287D02*
D03*
Y012684D02*
D03*
Y014094D02*
D03*
Y015472D02*
D03*
Y016929D02*
D03*
Y019724D02*
D03*
Y008465D02*
D03*
X008937Y003858D02*
D03*
Y004882D02*
D03*
X009409Y005354D02*
D03*
X007165Y008150D02*
D03*
X007756Y018311D02*
D03*
X009409Y003189D02*
D03*
X009370Y001969D02*
D03*
X017402Y005000D02*
D03*
Y004014D02*
D03*
Y002992D02*
D03*
X015197Y014843D02*
D03*
Y015827D02*
D03*
D163*
X026472Y029528D02*
D03*
M02*
