G04*
G04 #@! TF.GenerationSoftware,Altium Limited,Altium Designer,19.0.14 (431)*
G04*
G04 Layer_Physical_Order=4*
G04 Layer_Color=16711680*
%FSAX24Y24*%
%MOIN*%
G70*
G01*
G75*
%ADD11C,0.0098*%
%ADD12C,0.0079*%
%ADD13C,0.0197*%
%ADD15C,0.0118*%
%ADD16C,0.0236*%
%ADD81C,0.0315*%
%ADD87C,0.0236*%
%ADD88C,0.2047*%
%ADD89C,0.1378*%
%ADD90C,0.0551*%
%ADD91R,0.0551X0.0551*%
%ADD92R,0.0591X0.0591*%
%ADD93C,0.0591*%
%ADD94O,0.0591X0.0787*%
%ADD95C,0.0630*%
%ADD97C,0.0512*%
%ADD98C,0.0315*%
%ADD99C,0.0276*%
%ADD100C,0.0394*%
%ADD101C,0.0591*%
%ADD102C,0.0472*%
%ADD164R,0.3317X0.2441*%
%ADD165R,0.1693X0.0906*%
%ADD166R,0.9606X0.0945*%
%ADD167R,1.0906X0.1614*%
%ADD168R,0.4331X0.2913*%
%ADD169R,0.1319X0.3150*%
%ADD170R,0.0827X0.1181*%
%ADD171R,0.2165X0.0945*%
%ADD172R,0.3937X0.0630*%
%ADD173R,0.1024X0.2283*%
%ADD174R,0.0984X0.1732*%
%ADD175R,0.2638X0.4134*%
G36*
X006102Y031014D02*
X006063Y030984D01*
X006019Y030926D01*
X005991Y030859D01*
X005982Y030787D01*
X005991Y030715D01*
X006019Y030648D01*
X006063Y030591D01*
X006102Y030561D01*
Y030118D01*
X005984Y030041D01*
X005964Y030049D01*
X005925Y030055D01*
Y029685D01*
Y029316D01*
X005964Y029321D01*
X005984Y029329D01*
X006102Y029252D01*
X006102Y028509D01*
X005984Y028430D01*
X005974Y028434D01*
X005866Y028448D01*
X005758Y028434D01*
X005658Y028393D01*
X005571Y028326D01*
X005505Y028240D01*
X005463Y028139D01*
X005449Y028031D01*
X005463Y027924D01*
X005505Y027823D01*
X005571Y027737D01*
X005658Y027670D01*
X005758Y027629D01*
X005858Y027616D01*
X005875Y027591D01*
X005911Y027501D01*
X005085Y026676D01*
X005077Y026673D01*
X004978Y026597D01*
X004902Y026498D01*
X004855Y026383D01*
X004838Y026260D01*
X004855Y026137D01*
X004902Y026022D01*
X004978Y025923D01*
X005077Y025847D01*
X005114Y025832D01*
Y025704D01*
X005077Y025688D01*
X004978Y025613D01*
X004902Y025514D01*
X004855Y025399D01*
X004838Y025276D01*
X004855Y025152D01*
X004902Y025037D01*
X004978Y024939D01*
X005077Y024863D01*
X005114Y024847D01*
Y024720D01*
X005077Y024704D01*
X004978Y024628D01*
X004902Y024530D01*
X004855Y024415D01*
X004838Y024291D01*
X004855Y024168D01*
X004902Y024053D01*
X004978Y023954D01*
X005077Y023879D01*
X005114Y023863D01*
Y023735D01*
X005077Y023720D01*
X004978Y023644D01*
X004902Y023545D01*
X004855Y023430D01*
X004838Y023307D01*
X004855Y023184D01*
X004902Y023069D01*
X004978Y022970D01*
X005077Y022894D01*
X005114Y022879D01*
Y022751D01*
X005077Y022736D01*
X004978Y022660D01*
X004902Y022561D01*
X004855Y022446D01*
X004838Y022323D01*
X004855Y022199D01*
X004902Y022085D01*
X004978Y021986D01*
X005077Y021910D01*
X005114Y021895D01*
Y021767D01*
X005077Y021751D01*
X004978Y021676D01*
X004902Y021577D01*
X004855Y021462D01*
X004838Y021339D01*
X004855Y021215D01*
X004902Y021100D01*
X004978Y021002D01*
X005077Y020926D01*
X005114Y020910D01*
Y020783D01*
X005077Y020767D01*
X004978Y020691D01*
X004902Y020593D01*
X004855Y020478D01*
X004838Y020354D01*
X004855Y020231D01*
X004902Y020116D01*
X004978Y020017D01*
X005077Y019942D01*
X005114Y019926D01*
Y019798D01*
X005077Y019783D01*
X004978Y019707D01*
X004902Y019608D01*
X004855Y019493D01*
X004838Y019370D01*
X004855Y019247D01*
X004902Y019132D01*
X004978Y019033D01*
X005077Y018957D01*
X005114Y018942D01*
Y018814D01*
X005077Y018799D01*
X004978Y018723D01*
X004902Y018624D01*
X004855Y018509D01*
X004838Y018386D01*
X004855Y018262D01*
X004902Y018148D01*
X004978Y018049D01*
X005077Y017973D01*
X005114Y017958D01*
Y017830D01*
X005077Y017814D01*
X004978Y017739D01*
X004902Y017640D01*
X004855Y017525D01*
X004838Y017402D01*
X004855Y017278D01*
X004902Y017163D01*
X004978Y017065D01*
X005077Y016989D01*
X005114Y016973D01*
Y016846D01*
X005077Y016830D01*
X004978Y016754D01*
X004902Y016656D01*
X004855Y016541D01*
X004838Y016417D01*
X004855Y016294D01*
X004902Y016179D01*
X004978Y016080D01*
X005077Y016005D01*
X005114Y015989D01*
Y015861D01*
X005077Y015846D01*
X004978Y015770D01*
X004902Y015671D01*
X004855Y015556D01*
X004838Y015433D01*
X004855Y015310D01*
X004902Y015195D01*
X004978Y015096D01*
X005077Y015020D01*
X005114Y015005D01*
Y014877D01*
X005077Y014861D01*
X004978Y014786D01*
X004902Y014687D01*
X004855Y014572D01*
X004838Y014449D01*
X004855Y014325D01*
X004902Y014211D01*
X004978Y014112D01*
X005077Y014036D01*
X005114Y014021D01*
Y013893D01*
X005077Y013877D01*
X004978Y013802D01*
X004902Y013703D01*
X004855Y013588D01*
X004838Y013465D01*
X004855Y013341D01*
X004902Y013226D01*
X004978Y013128D01*
X005077Y013052D01*
X005114Y013036D01*
Y012909D01*
X005077Y012893D01*
X004978Y012817D01*
X004902Y012719D01*
X004855Y012604D01*
X004838Y012480D01*
X004855Y012357D01*
X004902Y012242D01*
X004978Y012143D01*
X005077Y012068D01*
X005173Y012028D01*
X005175Y012021D01*
X005181Y011957D01*
X005172Y011905D01*
X005097Y011874D01*
X005006Y011805D01*
X004937Y011714D01*
X004893Y011609D01*
X004886Y011555D01*
X005315D01*
X005744D01*
X005737Y011609D01*
X005693Y011714D01*
X005624Y011805D01*
X005533Y011874D01*
X005458Y011905D01*
X005449Y011957D01*
X005455Y012021D01*
X005456Y012028D01*
X005553Y012068D01*
X005652Y012143D01*
X005728Y012242D01*
X005775Y012357D01*
X005791Y012480D01*
X005775Y012604D01*
X005728Y012719D01*
X005652Y012817D01*
X005553Y012893D01*
X005516Y012909D01*
Y013036D01*
X005553Y013052D01*
X005652Y013128D01*
X005728Y013226D01*
X005775Y013341D01*
X005791Y013465D01*
X005775Y013588D01*
X005728Y013703D01*
X005652Y013802D01*
X005553Y013877D01*
X005516Y013893D01*
Y014021D01*
X005553Y014036D01*
X005652Y014112D01*
X005728Y014211D01*
X005775Y014325D01*
X005791Y014449D01*
X005775Y014572D01*
X005728Y014687D01*
X005652Y014786D01*
X005553Y014861D01*
X005516Y014877D01*
Y015005D01*
X005553Y015020D01*
X005652Y015096D01*
X005728Y015195D01*
X005775Y015310D01*
X005791Y015433D01*
X005775Y015556D01*
X005728Y015671D01*
X005652Y015770D01*
X005553Y015846D01*
X005516Y015861D01*
Y015989D01*
X005553Y016005D01*
X005652Y016080D01*
X005728Y016179D01*
X005775Y016294D01*
X005791Y016417D01*
X005775Y016541D01*
X005728Y016656D01*
X005652Y016754D01*
X005553Y016830D01*
X005516Y016846D01*
Y016973D01*
X005553Y016989D01*
X005652Y017065D01*
X005728Y017163D01*
X005775Y017278D01*
X005791Y017402D01*
X005775Y017525D01*
X005728Y017640D01*
X005652Y017739D01*
X005553Y017814D01*
X005516Y017830D01*
Y017958D01*
X005553Y017973D01*
X005652Y018049D01*
X005728Y018148D01*
X005775Y018262D01*
X005791Y018386D01*
X005775Y018509D01*
X005728Y018624D01*
X005652Y018723D01*
X005553Y018799D01*
X005516Y018814D01*
Y018942D01*
X005553Y018957D01*
X005652Y019033D01*
X005728Y019132D01*
X005775Y019247D01*
X005791Y019370D01*
X005775Y019493D01*
X005728Y019608D01*
X005652Y019707D01*
X005553Y019783D01*
X005516Y019798D01*
Y019926D01*
X005553Y019942D01*
X005652Y020017D01*
X005728Y020116D01*
X005775Y020231D01*
X005791Y020354D01*
X005775Y020478D01*
X005728Y020593D01*
X005652Y020691D01*
X005553Y020767D01*
X005516Y020783D01*
Y020910D01*
X005553Y020926D01*
X005652Y021002D01*
X005728Y021100D01*
X005775Y021215D01*
X005791Y021339D01*
X005775Y021462D01*
X005728Y021577D01*
X005652Y021676D01*
X005553Y021751D01*
X005516Y021767D01*
Y021895D01*
X005553Y021910D01*
X005652Y021986D01*
X005728Y022085D01*
X005775Y022199D01*
X005791Y022323D01*
X005775Y022446D01*
X005728Y022561D01*
X005652Y022660D01*
X005553Y022736D01*
X005516Y022751D01*
Y022879D01*
X005553Y022894D01*
X005652Y022970D01*
X005728Y023069D01*
X005775Y023184D01*
X005791Y023307D01*
X005775Y023430D01*
X005728Y023545D01*
X005652Y023644D01*
X005553Y023720D01*
X005516Y023735D01*
Y023863D01*
X005553Y023879D01*
X005652Y023954D01*
X005728Y024053D01*
X005775Y024168D01*
X005791Y024291D01*
X005775Y024415D01*
X005728Y024530D01*
X005652Y024628D01*
X005553Y024704D01*
X005516Y024720D01*
Y024847D01*
X005553Y024863D01*
X005652Y024939D01*
X005728Y025037D01*
X005775Y025152D01*
X005791Y025276D01*
X005775Y025399D01*
X005728Y025514D01*
X005652Y025613D01*
X005553Y025688D01*
X005516Y025704D01*
Y025832D01*
X005553Y025847D01*
X005652Y025923D01*
X005728Y026022D01*
X005731Y026030D01*
X005993Y026292D01*
X006102Y026247D01*
X006102Y008968D01*
X004061D01*
X003331Y009698D01*
Y012402D01*
X003314Y012486D01*
X003266Y012558D01*
X002518Y013306D01*
X002447Y013354D01*
X002362Y013370D01*
X002265D01*
X002262Y013371D01*
X002254Y013374D01*
X002241Y013379D01*
X002226Y013387D01*
X002207Y013399D01*
X002188Y013413D01*
X002137Y013458D01*
X002113Y013481D01*
X002109Y013487D01*
X002010Y013562D01*
X001972Y013578D01*
Y013706D01*
X002010Y013721D01*
X002109Y013797D01*
X002184Y013896D01*
X002232Y014011D01*
X002248Y014134D01*
X002232Y014257D01*
X002184Y014372D01*
X002109Y014471D01*
X002010Y014547D01*
X001972Y014562D01*
Y014690D01*
X002010Y014705D01*
X002109Y014781D01*
X002184Y014880D01*
X002232Y014995D01*
X002248Y015118D01*
X002232Y015241D01*
X002184Y015356D01*
X002109Y015455D01*
X002010Y015531D01*
X001972Y015546D01*
Y015674D01*
X002010Y015690D01*
X002109Y015765D01*
X002184Y015864D01*
X002232Y015979D01*
X002248Y016102D01*
X002232Y016226D01*
X002184Y016341D01*
X002109Y016439D01*
X002010Y016515D01*
X001972Y016531D01*
Y016658D01*
X002010Y016674D01*
X002109Y016750D01*
X002184Y016848D01*
X002232Y016963D01*
X002248Y017087D01*
X002232Y017210D01*
X002184Y017325D01*
X002109Y017424D01*
X002010Y017499D01*
X001972Y017515D01*
Y017643D01*
X002010Y017658D01*
X002109Y017734D01*
X002184Y017833D01*
X002232Y017948D01*
X002248Y018071D01*
X002232Y018194D01*
X002184Y018309D01*
X002109Y018408D01*
X002010Y018484D01*
X001972Y018499D01*
Y018627D01*
X002010Y018642D01*
X002109Y018718D01*
X002184Y018817D01*
X002232Y018932D01*
X002248Y019055D01*
X002232Y019178D01*
X002184Y019293D01*
X002109Y019392D01*
X002010Y019468D01*
X001972Y019483D01*
Y019611D01*
X002010Y019627D01*
X002109Y019702D01*
X002184Y019801D01*
X002232Y019916D01*
X002248Y020039D01*
X002232Y020163D01*
X002184Y020278D01*
X002109Y020376D01*
X002010Y020452D01*
X001972Y020468D01*
Y020595D01*
X002010Y020611D01*
X002109Y020687D01*
X002184Y020785D01*
X002232Y020900D01*
X002248Y021024D01*
X002232Y021147D01*
X002184Y021262D01*
X002109Y021361D01*
X002010Y021436D01*
X001972Y021452D01*
Y021580D01*
X002010Y021595D01*
X002109Y021671D01*
X002184Y021770D01*
X002232Y021885D01*
X002248Y022008D01*
X002232Y022131D01*
X002184Y022246D01*
X002109Y022345D01*
X002010Y022421D01*
X001972Y022436D01*
Y022564D01*
X002010Y022579D01*
X002109Y022655D01*
X002184Y022754D01*
X002232Y022869D01*
X002248Y022992D01*
X002232Y023115D01*
X002184Y023230D01*
X002109Y023329D01*
X002010Y023405D01*
X001895Y023452D01*
X001772Y023469D01*
X001648Y023452D01*
X001533Y023405D01*
X001435Y023329D01*
X001359Y023230D01*
X001311Y023115D01*
X001295Y022992D01*
X001311Y022869D01*
X001359Y022754D01*
X001435Y022655D01*
X001533Y022579D01*
X001571Y022564D01*
Y022436D01*
X001533Y022421D01*
X001435Y022345D01*
X001359Y022246D01*
X001311Y022131D01*
X001295Y022008D01*
X001311Y021885D01*
X001359Y021770D01*
X001435Y021671D01*
X001533Y021595D01*
X001571Y021580D01*
Y021452D01*
X001533Y021436D01*
X001435Y021361D01*
X001359Y021262D01*
X001311Y021147D01*
X001295Y021024D01*
X001311Y020900D01*
X001359Y020785D01*
X001435Y020687D01*
X001533Y020611D01*
X001571Y020595D01*
Y020468D01*
X001533Y020452D01*
X001435Y020376D01*
X001359Y020278D01*
X001311Y020163D01*
X001295Y020039D01*
X001311Y019916D01*
X001359Y019801D01*
X001435Y019702D01*
X001533Y019627D01*
X001571Y019611D01*
Y019483D01*
X001533Y019468D01*
X001435Y019392D01*
X001359Y019293D01*
X001311Y019178D01*
X001295Y019055D01*
X001311Y018932D01*
X001359Y018817D01*
X001435Y018718D01*
X001533Y018642D01*
X001571Y018627D01*
Y018499D01*
X001533Y018484D01*
X001435Y018408D01*
X001359Y018309D01*
X001311Y018194D01*
X001295Y018071D01*
X001311Y017948D01*
X001359Y017833D01*
X001435Y017734D01*
X001533Y017658D01*
X001571Y017643D01*
Y017515D01*
X001533Y017499D01*
X001435Y017424D01*
X001359Y017325D01*
X001311Y017210D01*
X001295Y017087D01*
X001311Y016963D01*
X001359Y016848D01*
X001435Y016750D01*
X001533Y016674D01*
X001571Y016658D01*
Y016531D01*
X001533Y016515D01*
X001435Y016439D01*
X001359Y016341D01*
X001311Y016226D01*
X001295Y016102D01*
X001311Y015979D01*
X001359Y015864D01*
X001435Y015765D01*
X001533Y015690D01*
X001571Y015674D01*
Y015546D01*
X001533Y015531D01*
X001435Y015455D01*
X001359Y015356D01*
X001311Y015241D01*
X001295Y015118D01*
X001311Y014995D01*
X001359Y014880D01*
X001435Y014781D01*
X001533Y014705D01*
X001571Y014690D01*
Y014562D01*
X001533Y014547D01*
X001435Y014471D01*
X001359Y014372D01*
X001311Y014257D01*
X001295Y014134D01*
X001311Y014011D01*
X001359Y013896D01*
X001435Y013797D01*
X001533Y013721D01*
X001571Y013706D01*
Y013578D01*
X001533Y013562D01*
X001435Y013487D01*
X001359Y013388D01*
X001311Y013273D01*
X001295Y013150D01*
X001311Y013026D01*
X001359Y012911D01*
X001435Y012813D01*
X001533Y012737D01*
X001630Y012697D01*
X001632Y012691D01*
X001637Y012627D01*
X001628Y012575D01*
X001553Y012544D01*
X001463Y012474D01*
X001393Y012384D01*
X001350Y012278D01*
X001343Y012224D01*
X001772D01*
X002201D01*
X002194Y012278D01*
X002150Y012384D01*
X002081Y012474D01*
X001990Y012544D01*
X001915Y012575D01*
X001906Y012627D01*
X001912Y012691D01*
X001913Y012697D01*
X002010Y012737D01*
X002109Y012813D01*
X002113Y012818D01*
X002164Y012867D01*
X002186Y012885D01*
X002207Y012900D01*
X002226Y012912D01*
X002241Y012920D01*
X002254Y012926D01*
X002262Y012928D01*
X002265Y012929D01*
X002271D01*
X002889Y012310D01*
Y009606D01*
X002906Y009522D01*
X002954Y009450D01*
X003813Y008591D01*
X003885Y008543D01*
X003969Y008526D01*
X006102D01*
Y008370D01*
X003753D01*
X002794Y009329D01*
X002722Y009377D01*
X002638Y009394D01*
X002270D01*
X002268Y009394D01*
X002262Y009397D01*
X002252Y009401D01*
X002240Y009408D01*
X002226Y009419D01*
X002211Y009432D01*
X002170Y009476D01*
X002148Y009503D01*
X002137Y009513D01*
X002109Y009550D01*
X002010Y009625D01*
X001895Y009673D01*
X001772Y009689D01*
X001648Y009673D01*
X001533Y009625D01*
X001435Y009550D01*
X001359Y009451D01*
X001311Y009336D01*
X001295Y009213D01*
X001311Y009089D01*
X001359Y008974D01*
X001435Y008876D01*
X001533Y008800D01*
X001571Y008784D01*
Y008657D01*
X001533Y008641D01*
X001435Y008565D01*
X001359Y008467D01*
X001311Y008352D01*
X001295Y008228D01*
X001311Y008105D01*
X001359Y007990D01*
X001435Y007891D01*
X001533Y007816D01*
X001571Y007800D01*
Y007672D01*
X001533Y007657D01*
X001435Y007581D01*
X001359Y007482D01*
X001311Y007367D01*
X001295Y007244D01*
X001311Y007121D01*
X001359Y007006D01*
X001435Y006907D01*
X001533Y006831D01*
X001571Y006816D01*
Y006688D01*
X001533Y006673D01*
X001435Y006597D01*
X001359Y006498D01*
X001311Y006383D01*
X001295Y006260D01*
X001311Y006137D01*
X001359Y006022D01*
X001435Y005923D01*
X001533Y005847D01*
X001571Y005832D01*
Y005704D01*
X001533Y005688D01*
X001435Y005613D01*
X001359Y005514D01*
X001311Y005399D01*
X001295Y005276D01*
X001311Y005152D01*
X001359Y005037D01*
X001435Y004939D01*
X001533Y004863D01*
X001648Y004815D01*
X001772Y004799D01*
X001895Y004815D01*
X002010Y004863D01*
X002109Y004939D01*
X002113Y004944D01*
X002128Y004959D01*
X002144Y004973D01*
X002160Y004984D01*
X002175Y004993D01*
X002190Y005001D01*
X002204Y005007D01*
X002217Y005011D01*
X002231Y005014D01*
X002245Y005016D01*
X002267Y005017D01*
X002270Y005017D01*
X006102D01*
Y004331D01*
X005866Y004094D01*
X002564D01*
X002540Y004103D01*
X002257Y004159D01*
X001969Y004178D01*
Y004178D01*
X000241D01*
Y027318D01*
X001969D01*
Y027318D01*
X002257Y027337D01*
X002540Y027393D01*
X002814Y027486D01*
X003073Y027614D01*
X003314Y027775D01*
X003531Y027965D01*
X003721Y028183D01*
X003882Y028423D01*
X004010Y028682D01*
X004103Y028956D01*
X004159Y029239D01*
X004178Y029528D01*
X004178D01*
Y031255D01*
X006102D01*
Y031014D01*
D02*
G37*
G36*
X025716Y029791D02*
X025229D01*
X025230Y029795D01*
X025232Y029806D01*
X025234Y029851D01*
X025236Y030166D01*
X025709D01*
X025716Y029791D01*
D02*
G37*
G36*
X041966Y028071D02*
X041927Y028071D01*
X041857Y028066D01*
X041826Y028061D01*
X041797Y028055D01*
X041772Y028047D01*
X041748Y028038D01*
X041728Y028028D01*
X041710Y028016D01*
X041695Y028003D01*
X041625Y028073D01*
X041638Y028088D01*
X041650Y028106D01*
X041661Y028126D01*
X041669Y028150D01*
X041677Y028175D01*
X041683Y028204D01*
X041688Y028235D01*
X041691Y028268D01*
X041693Y028344D01*
X041966Y028071D01*
D02*
G37*
G36*
X042809Y028076D02*
X042767Y028067D01*
X042631Y028029D01*
X042605Y028019D01*
X042582Y028009D01*
X042563Y027998D01*
X042546Y027987D01*
X042533Y027975D01*
X042449Y028030D01*
X042463Y028047D01*
X042475Y028065D01*
X042484Y028086D01*
X042492Y028108D01*
X042497Y028133D01*
X042499Y028160D01*
X042500Y028189D01*
X042498Y028220D01*
X042493Y028253D01*
X042487Y028288D01*
X042809Y028076D01*
D02*
G37*
G36*
X044496Y028122D02*
X044450Y028069D01*
X044432Y028044D01*
X044416Y028019D01*
X044403Y027996D01*
X044393Y027973D01*
X044386Y027951D01*
X044381Y027930D01*
X044380Y027910D01*
X044282Y027910D01*
X044280Y027930D01*
X044276Y027951D01*
X044269Y027973D01*
X044258Y027996D01*
X044246Y028019D01*
X044230Y028044D01*
X044211Y028069D01*
X044190Y028095D01*
X044138Y028150D01*
X044524Y028150D01*
X044496Y028122D01*
D02*
G37*
G36*
X047003Y029528D02*
X047001D01*
X047028Y029182D01*
X047109Y028844D01*
X047242Y028524D01*
X047423Y028228D01*
X047649Y027964D01*
X047913Y027738D01*
X048209Y027557D01*
X048529Y027424D01*
X048867Y027343D01*
X049213Y027316D01*
Y027318D01*
X050940D01*
Y004178D01*
X049213D01*
Y004180D01*
X048867Y004153D01*
X048529Y004072D01*
X048209Y003939D01*
X047913Y003758D01*
X047649Y003532D01*
X047423Y003268D01*
X047242Y002973D01*
X047109Y002652D01*
X047028Y002314D01*
X047001Y001969D01*
X047003D01*
Y000241D01*
X004178D01*
Y001969D01*
X004180D01*
X004153Y002314D01*
X004072Y002652D01*
X003939Y002973D01*
X003758Y003268D01*
X003532Y003532D01*
X003335Y003701D01*
X003379Y003819D01*
X004487D01*
X004526Y003703D01*
X004465Y003611D01*
X004443Y003504D01*
X004465Y003396D01*
X004526Y003305D01*
X004617Y003244D01*
X004724Y003223D01*
X004832Y003244D01*
X004923Y003305D01*
X004984Y003396D01*
X005005Y003504D01*
X004984Y003611D01*
X004923Y003703D01*
X004962Y003819D01*
X005925D01*
X005967Y003836D01*
X006400Y004269D01*
X006417Y004312D01*
Y005015D01*
X006900D01*
X007500Y004414D01*
X007557Y004329D01*
X007648Y004268D01*
X007756Y004247D01*
X007863Y004268D01*
X007955Y004329D01*
X008016Y004420D01*
X008037Y004528D01*
X008030Y004561D01*
X008139Y004620D01*
X008499Y004260D01*
X008491Y004241D01*
X008429Y004162D01*
X008346Y004179D01*
X008239Y004157D01*
X008148Y004096D01*
X008087Y004005D01*
X008065Y003898D01*
X008087Y003790D01*
X008148Y003699D01*
X008239Y003638D01*
X008346Y003617D01*
X008454Y003638D01*
X008545Y003699D01*
X008563Y003726D01*
X008592Y003732D01*
X008700Y003718D01*
X008738Y003660D01*
X008829Y003599D01*
X008937Y003577D01*
X009045Y003599D01*
X009136Y003660D01*
X009197Y003751D01*
X009218Y003858D01*
X009198Y003959D01*
X009213Y003979D01*
X009289Y004041D01*
X009302Y004032D01*
X009409Y004010D01*
X009517Y004032D01*
X009608Y004093D01*
X009669Y004184D01*
X009690Y004291D01*
X009669Y004399D01*
X009608Y004490D01*
X009517Y004551D01*
X009409Y004572D01*
X009302Y004551D01*
X009211Y004490D01*
X009150Y004399D01*
X009022Y004361D01*
X008894Y004489D01*
X008923Y004565D01*
X008947Y004603D01*
X009045Y004622D01*
X009136Y004683D01*
X009197Y004774D01*
X009218Y004882D01*
X009197Y004989D01*
X009156Y005050D01*
X009241Y005135D01*
X009302Y005095D01*
X009409Y005073D01*
X009517Y005095D01*
X009608Y005156D01*
X009669Y005247D01*
X009690Y005354D01*
X009669Y005462D01*
X009608Y005553D01*
X009517Y005614D01*
X009409Y005635D01*
X009302Y005614D01*
X009211Y005553D01*
X009150Y005462D01*
X009128Y005354D01*
X009150Y005247D01*
X009190Y005186D01*
X009105Y005101D01*
X009045Y005141D01*
X008937Y005163D01*
X008829Y005141D01*
X008771Y005103D01*
X008713D01*
X006517Y007299D01*
X006566Y007417D01*
X008019D01*
X008624Y006811D01*
X008638Y006743D01*
X008699Y006652D01*
X008790Y006591D01*
X008898Y006569D01*
X009005Y006591D01*
X009077Y006639D01*
X009154Y006651D01*
X009230Y006639D01*
X009302Y006591D01*
X009409Y006569D01*
X009517Y006591D01*
X009608Y006652D01*
X009669Y006743D01*
X009690Y006850D01*
X009669Y006958D01*
X009608Y007049D01*
X009517Y007110D01*
X009409Y007131D01*
X009302Y007110D01*
X009230Y007062D01*
X009154Y007050D01*
X009077Y007062D01*
X009005Y007110D01*
X008937Y007124D01*
X008266Y007794D01*
X008195Y007842D01*
X008110Y007859D01*
X007434D01*
X007413Y007886D01*
X007381Y007977D01*
X007425Y008042D01*
X007446Y008150D01*
X007425Y008257D01*
X007525Y008314D01*
X007557Y008266D01*
X007648Y008205D01*
X007756Y008184D01*
X007863Y008205D01*
X007955Y008266D01*
X008016Y008357D01*
X008037Y008465D01*
X008016Y008572D01*
X007955Y008663D01*
X007863Y008724D01*
X007756Y008746D01*
X007648Y008724D01*
X007557Y008663D01*
X007496Y008572D01*
X007475Y008465D01*
X007496Y008357D01*
X007396Y008300D01*
X007364Y008348D01*
X007273Y008409D01*
X007165Y008431D01*
X007058Y008409D01*
X007000Y008370D01*
X006417D01*
Y008526D01*
X006739D01*
X006824Y008543D01*
X006895Y008591D01*
X007204Y008900D01*
X007273Y008914D01*
X007364Y008975D01*
X007425Y009066D01*
X007446Y009173D01*
X007425Y009281D01*
X007364Y009372D01*
X007273Y009433D01*
X007165Y009454D01*
X007058Y009433D01*
X006967Y009372D01*
X006906Y009281D01*
X006892Y009212D01*
X006648Y008968D01*
X006417D01*
Y026716D01*
X007173Y027472D01*
X007235Y027553D01*
X007441D01*
X007468Y027558D01*
X007559Y027483D01*
Y026142D01*
X007749Y025952D01*
X007700Y025834D01*
X007244D01*
X007106Y025806D01*
X006989Y025728D01*
X006910Y025611D01*
X006883Y025472D01*
X006910Y025334D01*
X006989Y025217D01*
X007106Y025139D01*
X007244Y025111D01*
X007582D01*
X007638Y025040D01*
X007589Y024928D01*
X007283D01*
X007145Y024901D01*
X007028Y024822D01*
X006950Y024705D01*
X006922Y024567D01*
X006950Y024429D01*
X007028Y024311D01*
X007145Y024233D01*
X007283Y024206D01*
X007466D01*
X007525Y024088D01*
X007496Y024045D01*
X007475Y023937D01*
X007496Y023829D01*
X007557Y023738D01*
X007648Y023677D01*
X007756Y023656D01*
X007863Y023677D01*
X007955Y023738D01*
X008063Y023749D01*
X010099Y021713D01*
X010216Y021635D01*
X010354Y021607D01*
X014818D01*
X014876Y021535D01*
X014898Y021428D01*
X014959Y021337D01*
X015050Y021276D01*
X015060Y021274D01*
X015069Y021250D01*
X015050Y021126D01*
X014959Y021065D01*
X014898Y020974D01*
X014876Y020866D01*
X014898Y020759D01*
X014959Y020667D01*
X015050Y020607D01*
X015154Y020586D01*
X015429Y020311D01*
Y020168D01*
X015311Y020111D01*
X015265Y020141D01*
X015157Y020163D01*
X015050Y020141D01*
X014959Y020081D01*
X014898Y019989D01*
X014876Y019882D01*
X014898Y019774D01*
X014959Y019683D01*
X015050Y019622D01*
X015154Y019602D01*
X015272Y019484D01*
Y019240D01*
X015197Y019179D01*
X015089Y019157D01*
X014998Y019096D01*
X014937Y019005D01*
X014917Y018901D01*
X014863Y018847D01*
X014863Y018847D01*
X013798Y017782D01*
X013752Y017787D01*
X013661Y017848D01*
X013553Y017869D01*
X013446Y017848D01*
X013355Y017787D01*
X013294Y017696D01*
X013272Y017588D01*
X013294Y017481D01*
X013355Y017390D01*
X013446Y017329D01*
X013553Y017307D01*
X013579Y017286D01*
Y013543D01*
X013594Y013467D01*
X013638Y013401D01*
X015004Y012035D01*
X014998Y011970D01*
X014937Y011879D01*
X014917Y011775D01*
X014779Y011638D01*
X014736Y011573D01*
X014721Y011496D01*
Y010551D01*
X014736Y010474D01*
X014779Y010409D01*
X015015Y010174D01*
X014981Y010040D01*
X014923Y010002D01*
X014862Y009911D01*
X014841Y009803D01*
X014862Y009696D01*
X014921Y009607D01*
Y008697D01*
X014937Y008620D01*
X014980Y008555D01*
X016767Y006768D01*
X016788Y006664D01*
X016849Y006573D01*
X016940Y006512D01*
X017047Y006491D01*
X017155Y006512D01*
X017246Y006573D01*
X017307Y006664D01*
X017328Y006772D01*
X017325Y006788D01*
X017403Y006803D01*
X017494Y006864D01*
X017555Y006955D01*
X017576Y007063D01*
X017573Y007079D01*
X017651Y007095D01*
X017742Y007156D01*
X017803Y007247D01*
X017824Y007354D01*
X017821Y007371D01*
X017899Y007386D01*
X017990Y007447D01*
X018051Y007538D01*
X018072Y007646D01*
X018069Y007662D01*
X018147Y007677D01*
X018238Y007738D01*
X018299Y007829D01*
X018320Y007937D01*
X018317Y007953D01*
X018395Y007969D01*
X018486Y008030D01*
X018547Y008121D01*
X018568Y008228D01*
X018565Y008245D01*
X018643Y008260D01*
X018734Y008321D01*
X018795Y008412D01*
X018816Y008520D01*
X018813Y008536D01*
X018891Y008551D01*
X018982Y008612D01*
X019043Y008703D01*
X019064Y008811D01*
X019061Y008827D01*
X019139Y008843D01*
X019230Y008904D01*
X019291Y008995D01*
X019312Y009102D01*
X019309Y009119D01*
X019387Y009134D01*
X019478Y009195D01*
X019539Y009286D01*
X019561Y009394D01*
X019557Y009410D01*
X019635Y009425D01*
X019726Y009486D01*
X019787Y009578D01*
X019809Y009685D01*
X019787Y009793D01*
X019726Y009884D01*
X019635Y009945D01*
X019528Y009966D01*
X019420Y009945D01*
X019332Y009886D01*
X017367D01*
X017090Y010162D01*
Y012205D01*
X017075Y012282D01*
X017032Y012347D01*
X016553Y012825D01*
X016565Y012943D01*
X016577Y012951D01*
X016638Y013042D01*
X016659Y013150D01*
X016638Y013257D01*
X016577Y013348D01*
X016485Y013409D01*
X016378Y013431D01*
X016270Y013409D01*
X016179Y013348D01*
X016171Y013336D01*
X016054Y013325D01*
X015398Y013981D01*
Y014056D01*
X015456Y014144D01*
X015478Y014252D01*
X015456Y014360D01*
X015396Y014451D01*
X015350Y014481D01*
Y014614D01*
X015396Y014644D01*
X015456Y014735D01*
X015478Y014843D01*
X015456Y014950D01*
X015396Y015041D01*
X015304Y015102D01*
X015197Y015124D01*
X015089Y015102D01*
X015043Y015071D01*
X014925Y015128D01*
Y015271D01*
X015200Y015546D01*
X015304Y015567D01*
X015396Y015628D01*
X015456Y015719D01*
X015478Y015827D01*
X015456Y015934D01*
X015396Y016025D01*
X015304Y016086D01*
X015197Y016108D01*
X015089Y016086D01*
X014998Y016025D01*
X014937Y015934D01*
X014929Y015893D01*
X014886Y015867D01*
X014768Y015933D01*
Y016098D01*
X015200Y016531D01*
X015304Y016551D01*
X015396Y016612D01*
X015456Y016703D01*
X015478Y016811D01*
X015456Y016919D01*
X015396Y017010D01*
X015304Y017071D01*
X015197Y017092D01*
X015089Y017071D01*
X014998Y017010D01*
X014937Y016919D01*
X014917Y016815D01*
X014680Y016578D01*
X014571Y016623D01*
Y016925D01*
X015283Y017637D01*
X015392Y017579D01*
X015388Y017559D01*
X015410Y017452D01*
X015471Y017360D01*
X015562Y017299D01*
X015669Y017278D01*
X015777Y017299D01*
X015868Y017360D01*
X015929Y017452D01*
X015950Y017559D01*
X015929Y017667D01*
X015868Y017758D01*
X015777Y017819D01*
X015669Y017840D01*
X015649Y017836D01*
X015591Y017945D01*
X015929Y018283D01*
X015973Y018348D01*
X015988Y018425D01*
Y019224D01*
X016106Y019260D01*
X016139Y019211D01*
X016230Y019150D01*
X016338Y019128D01*
X016445Y019150D01*
X016536Y019211D01*
X016597Y019302D01*
X016619Y019409D01*
X016597Y019517D01*
X016536Y019608D01*
X016445Y019669D01*
X016338Y019690D01*
X016230Y019669D01*
X016139Y019608D01*
X016106Y019559D01*
X015988Y019595D01*
Y020906D01*
X015973Y020982D01*
X015929Y021047D01*
X015488Y021489D01*
X015537Y021607D01*
X016969D01*
X017107Y021635D01*
X017224Y021713D01*
X017893Y022382D01*
X017972Y022500D01*
X017999Y022638D01*
X017983Y022717D01*
X018064Y022835D01*
X021063D01*
Y021968D01*
X021024Y021936D01*
X020885Y021909D01*
X020768Y021830D01*
X020690Y021713D01*
X020662Y021575D01*
Y019213D01*
X020690Y019074D01*
X020751Y018983D01*
X020720Y018893D01*
X020699Y018864D01*
X020472D01*
X020350Y018840D01*
X020245Y018770D01*
X019812Y018337D01*
X019743Y018233D01*
X019718Y018110D01*
Y016393D01*
X019355Y016030D01*
X018740D01*
X018617Y016005D01*
X018513Y015936D01*
X018443Y015832D01*
X018419Y015709D01*
X018443Y015586D01*
X018513Y015482D01*
X018617Y015412D01*
X018740Y015388D01*
X019488D01*
X019611Y015412D01*
X019715Y015482D01*
X020266Y016033D01*
X020336Y016137D01*
X020361Y016260D01*
Y017977D01*
X020605Y018222D01*
X021024D01*
X021147Y018247D01*
X021251Y018316D01*
X021320Y018420D01*
X021345Y018543D01*
X021320Y018666D01*
X021251Y018770D01*
X021231Y018783D01*
Y018925D01*
X021279Y018957D01*
X021357Y019074D01*
X021361Y019094D01*
X021392D01*
X021407Y019091D01*
X022294D01*
X022394Y018992D01*
X022394Y018357D01*
X022369Y018338D01*
X022276Y018305D01*
X022185Y018365D01*
X022047Y018393D01*
X021693D01*
X021555Y018365D01*
X021437Y018287D01*
X020847Y017696D01*
X020769Y017579D01*
X020741Y017441D01*
Y014835D01*
X018524Y012618D01*
X018446Y012500D01*
X018418Y012362D01*
Y010669D01*
X018446Y010531D01*
X018524Y010414D01*
X018641Y010336D01*
X018780Y010308D01*
X018918Y010336D01*
X019035Y010414D01*
X019113Y010531D01*
X019141Y010669D01*
Y012213D01*
X021358Y014430D01*
X021436Y014547D01*
X021464Y014685D01*
Y017291D01*
X021843Y017670D01*
X022047D01*
X022185Y017698D01*
X022276Y017758D01*
X022369Y017725D01*
X022394Y017706D01*
Y017480D01*
Y017008D01*
Y016732D01*
Y015837D01*
X022276Y015802D01*
X022246Y015846D01*
X022155Y015907D01*
X022047Y015928D01*
X021940Y015907D01*
X021849Y015846D01*
X021788Y015755D01*
X021766Y015647D01*
X021788Y015540D01*
X021849Y015449D01*
X021940Y015388D01*
X022047Y015366D01*
X022155Y015388D01*
X022246Y015449D01*
X022276Y015493D01*
X022394Y015458D01*
Y015395D01*
Y014005D01*
X022394Y014005D01*
Y012953D01*
Y012402D01*
Y010993D01*
X022000Y010599D01*
X021913Y010469D01*
X021882Y010315D01*
X021913Y010161D01*
X022000Y010031D01*
X022130Y009944D01*
X022283Y009914D01*
X022437Y009944D01*
X022567Y010031D01*
X023079Y010543D01*
X023166Y010673D01*
X023197Y010827D01*
Y012196D01*
X023277Y012276D01*
X026798D01*
X027765Y011308D01*
X027773Y011303D01*
X027737Y011185D01*
X027524D01*
X027485Y011224D01*
X027464Y011328D01*
X027403Y011419D01*
X027312Y011480D01*
X027205Y011501D01*
X027097Y011480D01*
X027006Y011419D01*
X026945Y011328D01*
X026924Y011220D01*
X026945Y011113D01*
X027002Y011027D01*
X026996Y010995D01*
X026962Y010909D01*
X026160D01*
X026072Y010968D01*
X025965Y010990D01*
X025857Y010968D01*
X025766Y010907D01*
X025705Y010816D01*
X025684Y010709D01*
X025705Y010601D01*
X025766Y010510D01*
X025773Y010473D01*
X025742Y010427D01*
X025735Y010394D01*
X026197D01*
X026251Y010486D01*
X026275Y010508D01*
X026469D01*
X026505Y010390D01*
X026455Y010356D01*
X026394Y010265D01*
X026373Y010157D01*
X026394Y010050D01*
X026453Y009962D01*
Y009408D01*
X026394Y009320D01*
X026373Y009213D01*
X026380Y009177D01*
X026293Y009059D01*
X025851D01*
X025753Y009173D01*
X025732Y009281D01*
X025671Y009372D01*
X025580Y009433D01*
X025476Y009454D01*
X025437Y009493D01*
Y011059D01*
X025476Y011098D01*
X025580Y011118D01*
X025671Y011179D01*
X025732Y011270D01*
X025753Y011378D01*
X025732Y011485D01*
X025671Y011577D01*
X025580Y011638D01*
X025472Y011659D01*
X025365Y011638D01*
X025274Y011577D01*
X025213Y011485D01*
X025192Y011382D01*
X025094Y011284D01*
X025051Y011219D01*
X025036Y011142D01*
Y009549D01*
X024917Y009500D01*
X024709Y009709D01*
X024644Y009752D01*
X024567Y009768D01*
X024172D01*
X024084Y009827D01*
X023976Y009848D01*
X023869Y009827D01*
X023778Y009766D01*
X023717Y009674D01*
X023695Y009567D01*
X023717Y009459D01*
X023778Y009368D01*
X023869Y009307D01*
X023976Y009286D01*
X024084Y009307D01*
X024172Y009366D01*
X024484D01*
X025134Y008716D01*
X025199Y008673D01*
X025276Y008658D01*
X029213D01*
X029289Y008673D01*
X029355Y008716D01*
X029512Y008874D01*
X029556Y008939D01*
X029571Y009016D01*
Y009803D01*
X029556Y009880D01*
X029512Y009945D01*
X029454Y010004D01*
X029433Y010108D01*
X029372Y010199D01*
X029281Y010260D01*
X029173Y010281D01*
X029130Y010272D01*
X029122Y010313D01*
X029079Y010378D01*
X028838Y010619D01*
X028863Y010761D01*
X028899Y010786D01*
X028960Y010877D01*
X028982Y010984D01*
X028960Y011092D01*
X028957Y011096D01*
X029021Y011214D01*
X030211D01*
X030310Y011102D01*
X030331Y010995D01*
X030390Y010907D01*
Y009571D01*
X029011Y008193D01*
X028345D01*
X028257Y008252D01*
X028150Y008273D01*
X028042Y008252D01*
X027951Y008191D01*
X027890Y008100D01*
X027869Y007992D01*
X027890Y007885D01*
X027951Y007793D01*
X028042Y007733D01*
X028150Y007711D01*
X028257Y007733D01*
X028345Y007791D01*
X029094D01*
X029171Y007807D01*
X029236Y007850D01*
X030732Y009346D01*
X030776Y009411D01*
X030791Y009488D01*
Y010907D01*
X030850Y010995D01*
X030872Y011102D01*
X030945Y011214D01*
X031068Y011239D01*
X031172Y011308D01*
X031566Y011702D01*
X031635Y011806D01*
X031660Y011929D01*
X031635Y012052D01*
X031566Y012156D01*
X031461Y012226D01*
X031339Y012250D01*
X031216Y012226D01*
X031112Y012156D01*
X030812Y011857D01*
X030405D01*
X030360Y011966D01*
X032012Y013618D01*
X034389D01*
X034446Y013500D01*
X034415Y013454D01*
X034394Y013346D01*
X034415Y013239D01*
X034476Y013148D01*
X034568Y013087D01*
X034675Y013065D01*
X034783Y013087D01*
X034874Y013148D01*
X034880Y013157D01*
X035019Y013152D01*
X035059Y013091D01*
X035356Y012795D01*
X035329Y012723D01*
X035303Y012680D01*
X035207Y012661D01*
X035116Y012600D01*
X035055Y012509D01*
X035034Y012402D01*
X035055Y012294D01*
X035116Y012203D01*
X035207Y012142D01*
X035315Y012121D01*
X035422Y012142D01*
X035514Y012203D01*
X035575Y012294D01*
X035594Y012390D01*
X035636Y012416D01*
X035708Y012442D01*
X036768Y011383D01*
X036722Y011274D01*
X036072D01*
X036064Y011281D01*
X036047Y011367D01*
X035986Y011459D01*
X035895Y011519D01*
X035787Y011541D01*
X035680Y011519D01*
X035589Y011459D01*
X035528Y011367D01*
X035506Y011260D01*
X035521Y011185D01*
X035454Y011067D01*
X034926D01*
X034859Y011185D01*
X034874Y011260D01*
X034852Y011367D01*
X034791Y011459D01*
X034700Y011519D01*
X034593Y011541D01*
X034485Y011519D01*
X034394Y011459D01*
X034333Y011367D01*
X034312Y011260D01*
X034326Y011185D01*
X034259Y011067D01*
X032717D01*
X032640Y011052D01*
X032575Y011008D01*
X031807Y010241D01*
X031703Y010220D01*
X031612Y010159D01*
X031551Y010068D01*
X031530Y009961D01*
X031551Y009853D01*
X031612Y009762D01*
X031703Y009701D01*
X031811Y009680D01*
X031919Y009701D01*
X032010Y009762D01*
X032071Y009853D01*
X032091Y009957D01*
X032800Y010665D01*
X033756D01*
X033802Y010556D01*
X033483Y010237D01*
X033396Y010220D01*
X033305Y010159D01*
X033244Y010068D01*
X033223Y009961D01*
X033244Y009853D01*
X033305Y009762D01*
X033396Y009701D01*
X033504Y009680D01*
X033611Y009701D01*
X033703Y009762D01*
X033764Y009853D01*
X033781Y009939D01*
X034300Y010459D01*
X036064D01*
X036139Y010367D01*
X036136Y010354D01*
X036158Y010247D01*
X036206Y010175D01*
X036184Y010103D01*
X036154Y010057D01*
X035983D01*
X035895Y010116D01*
X035787Y010137D01*
X035680Y010116D01*
X035589Y010055D01*
X035528Y009964D01*
X035506Y009856D01*
X035528Y009749D01*
X035589Y009658D01*
X035680Y009597D01*
X035787Y009575D01*
X035895Y009597D01*
X035983Y009656D01*
X037245D01*
X037333Y009597D01*
X037441Y009575D01*
X037548Y009597D01*
X037640Y009658D01*
X037701Y009749D01*
X037722Y009856D01*
X037701Y009964D01*
X037640Y010055D01*
X037548Y010116D01*
X037441Y010137D01*
X037333Y010116D01*
X037245Y010057D01*
X036681D01*
X036651Y010103D01*
X036629Y010175D01*
X036677Y010247D01*
X036698Y010354D01*
X036696Y010367D01*
X036771Y010459D01*
X039086D01*
X039133Y010412D01*
X039150Y010326D01*
X039209Y010237D01*
Y007956D01*
X039091Y007893D01*
X039084Y007897D01*
X038976Y007919D01*
X038869Y007897D01*
X038778Y007836D01*
X038717Y007745D01*
X038695Y007638D01*
X038717Y007530D01*
X038778Y007439D01*
X038869Y007378D01*
X038976Y007357D01*
X039084Y007378D01*
X039091Y007383D01*
X039209Y007320D01*
Y003705D01*
X036649Y001146D01*
X022164D01*
X022076Y001204D01*
X021969Y001226D01*
X021861Y001204D01*
X021770Y001144D01*
X021709Y001052D01*
X021688Y000945D01*
X021626Y000870D01*
X019881D01*
X019793Y000929D01*
X019685Y000950D01*
X019578Y000929D01*
X019486Y000868D01*
X019425Y000777D01*
X019404Y000669D01*
X019425Y000562D01*
X019486Y000471D01*
X019578Y000410D01*
X019685Y000388D01*
X019793Y000410D01*
X019881Y000469D01*
X037008D01*
X037085Y000484D01*
X037150Y000527D01*
X039945Y003323D01*
X039989Y003388D01*
X040004Y003465D01*
Y005430D01*
X040122Y005493D01*
X040129Y005488D01*
X040236Y005467D01*
X040344Y005488D01*
X040435Y005549D01*
X040496Y005641D01*
X040517Y005748D01*
X040496Y005856D01*
X040435Y005947D01*
X040344Y006008D01*
X040236Y006029D01*
X040129Y006008D01*
X040122Y006003D01*
X040004Y006066D01*
Y010237D01*
X040063Y010326D01*
X040084Y010433D01*
X040063Y010541D01*
X040002Y010632D01*
X039911Y010693D01*
X039807Y010713D01*
X039512Y011008D01*
X039447Y011052D01*
X039370Y011067D01*
X038827D01*
X038760Y011185D01*
X038788Y011231D01*
X038818Y011236D01*
X038909Y011297D01*
X038970Y011389D01*
X038992Y011496D01*
X038970Y011604D01*
X038909Y011695D01*
X038818Y011756D01*
X038711Y011777D01*
X038603Y011756D01*
X038512Y011695D01*
X038451Y011604D01*
X038416Y011589D01*
X038287Y011634D01*
X038208Y011752D01*
X038091Y011830D01*
X037953Y011857D01*
X037315D01*
X035821Y013352D01*
X035866Y013461D01*
X037003D01*
X037348Y013116D01*
X037347Y013110D01*
X037368Y013003D01*
X037429Y012912D01*
X037520Y012851D01*
X037628Y012829D01*
X037735Y012851D01*
X037827Y012912D01*
X037888Y013003D01*
X037909Y013110D01*
X037888Y013218D01*
X037827Y013309D01*
X037735Y013370D01*
X037655Y013386D01*
X037646Y013388D01*
X037643Y013389D01*
X037523Y013509D01*
X037568Y013618D01*
X039173D01*
X039250Y013633D01*
X039315Y013677D01*
X043666Y018028D01*
X045120D01*
X045184Y017933D01*
X045433D01*
Y017874D01*
X045492D01*
Y017645D01*
X045525Y017651D01*
X045627Y017578D01*
X045667Y017518D01*
X045759Y017457D01*
X045866Y017436D01*
X045974Y017457D01*
X046011Y017482D01*
X046019Y017485D01*
X046019Y017485D01*
X046020Y017485D01*
X046022Y017486D01*
X046022Y017486D01*
X048740D01*
X048776Y017368D01*
X048727Y017336D01*
X048675Y017258D01*
X048669Y017224D01*
X049127D01*
X049120Y017258D01*
X049068Y017336D01*
X049020Y017368D01*
X049055Y017486D01*
X050308D01*
X050313Y017478D01*
X050404Y017418D01*
X050512Y017396D01*
X050619Y017418D01*
X050711Y017478D01*
X050771Y017570D01*
X050793Y017677D01*
X050771Y017785D01*
X050711Y017876D01*
X050619Y017937D01*
X050512Y017958D01*
X050404Y017937D01*
X050367Y017912D01*
X050359Y017909D01*
X050359Y017909D01*
X050358Y017908D01*
X050356Y017908D01*
X050356Y017908D01*
X046157D01*
X046073Y018017D01*
X046078Y018049D01*
X046126Y018121D01*
X046147Y018228D01*
X046126Y018336D01*
X046065Y018427D01*
X045974Y018488D01*
X045866Y018509D01*
X045759Y018488D01*
X045670Y018429D01*
X043583D01*
X043506Y018414D01*
X043441Y018370D01*
X042991Y017920D01*
X042863Y017959D01*
X042858Y017982D01*
X042797Y018073D01*
X042706Y018134D01*
X042598Y018155D01*
X042491Y018134D01*
X042400Y018073D01*
X042339Y017982D01*
X042317Y017874D01*
X042339Y017766D01*
X042400Y017675D01*
X042491Y017614D01*
X042513Y017610D01*
X042552Y017482D01*
X041580Y016509D01*
X041471Y016554D01*
Y020198D01*
X041562Y020273D01*
X041575Y020270D01*
X041682Y020292D01*
X041773Y020352D01*
X041834Y020444D01*
X041852Y020530D01*
X042236Y020914D01*
X042236Y020914D01*
X042281Y020982D01*
X042298Y021000D01*
X042411Y021038D01*
X042454Y021008D01*
X042457Y020995D01*
X042518Y020904D01*
X042609Y020843D01*
X042717Y020821D01*
X042824Y020843D01*
X042915Y020904D01*
X042976Y020995D01*
X042998Y021102D01*
X042976Y021210D01*
X042915Y021301D01*
X042824Y021362D01*
X042738Y021379D01*
X042612Y021505D01*
Y021856D01*
X042717Y021890D01*
X042730Y021890D01*
X043207D01*
X043243Y021772D01*
X043187Y021734D01*
X043126Y021643D01*
X043105Y021535D01*
X043126Y021428D01*
X043187Y021337D01*
X043278Y021276D01*
X043386Y021254D01*
X043493Y021276D01*
X043585Y021337D01*
X043645Y021428D01*
X043667Y021535D01*
X043645Y021643D01*
X043585Y021734D01*
X043528Y021772D01*
X043564Y021890D01*
X043583D01*
Y021900D01*
X043701Y021958D01*
X043719Y021945D01*
X043824Y021901D01*
X043937Y021886D01*
X044050Y021901D01*
X044155Y021945D01*
X044246Y022014D01*
X044315Y022104D01*
X044359Y022210D01*
X044374Y022323D01*
X044359Y022436D01*
X044315Y022541D01*
X044246Y022632D01*
X044155Y022701D01*
X044050Y022745D01*
X043937Y022760D01*
X043824Y022745D01*
X043719Y022701D01*
X043701Y022687D01*
X043583Y022746D01*
Y022756D01*
X042730D01*
X042717Y022756D01*
X042612Y022789D01*
Y023732D01*
X042922Y024041D01*
X043953D01*
X044026Y023992D01*
X044134Y023971D01*
X044241Y023992D01*
X044333Y024053D01*
X044393Y024144D01*
X044415Y024252D01*
X044393Y024360D01*
X044333Y024451D01*
X044297Y024474D01*
X044333Y024592D01*
X044741D01*
X044814Y024544D01*
X044921Y024522D01*
X045029Y024544D01*
X045120Y024604D01*
X045181Y024696D01*
X045202Y024803D01*
X045181Y024911D01*
X045120Y025002D01*
X045029Y025063D01*
X044921Y025084D01*
X044814Y025063D01*
X044741Y025014D01*
X042913D01*
X042833Y024998D01*
X042764Y024952D01*
X041938Y024125D01*
X041892Y024057D01*
X041876Y023976D01*
Y021440D01*
X041758Y021377D01*
X041722Y021401D01*
X041614Y021423D01*
X041589Y021418D01*
X041471Y021508D01*
Y027550D01*
X041810Y027889D01*
X041814Y027892D01*
X041823Y027895D01*
X041837Y027899D01*
X041854Y027903D01*
X041874Y027906D01*
X041933Y027910D01*
X041933D01*
X041964Y027879D01*
X041983Y027847D01*
X041995Y027794D01*
X041971Y027758D01*
X041955Y027677D01*
Y027128D01*
X041953Y027124D01*
X041949Y027115D01*
X041942Y027102D01*
X041932Y027087D01*
X041920Y027071D01*
X041882Y027027D01*
X041860Y027005D01*
X041856Y027002D01*
X041787Y026911D01*
X041743Y026806D01*
X041729Y026693D01*
X041743Y026580D01*
X041787Y026475D01*
X041856Y026384D01*
X041947Y026315D01*
X042052Y026271D01*
X042165Y026256D01*
X042278Y026271D01*
X042384Y026315D01*
X042402Y026328D01*
X042520Y026270D01*
Y026260D01*
X043386D01*
Y027126D01*
X042520D01*
X042520Y027126D01*
X042412Y027150D01*
X042395Y027161D01*
X042376Y027191D01*
Y027590D01*
X042648Y027861D01*
X042655Y027865D01*
X042668Y027872D01*
X042682Y027877D01*
X042805Y027911D01*
X042841Y027919D01*
X042841D01*
X042841Y027919D01*
X042841Y027919D01*
X042849Y027922D01*
X042869Y027925D01*
X042974Y027968D01*
X043065Y028038D01*
X043075Y028051D01*
X043224D01*
X043234Y028038D01*
X043325Y027968D01*
X043430Y027925D01*
X043543Y027910D01*
X043656Y027925D01*
X043762Y027968D01*
X043852Y028038D01*
X043863Y028051D01*
X044011D01*
X044022Y028038D01*
X044025Y028035D01*
X044069Y027989D01*
X044085Y027970D01*
X044098Y027952D01*
X044108Y027937D01*
X044114Y027924D01*
X044119Y027915D01*
X044120Y027911D01*
Y027362D01*
X044136Y027282D01*
X044182Y027213D01*
X045419Y025976D01*
Y020638D01*
X045372Y020592D01*
X045286Y020575D01*
X045195Y020514D01*
X045134Y020422D01*
X045113Y020315D01*
X045134Y020207D01*
X045195Y020116D01*
X045286Y020055D01*
X045394Y020034D01*
X045501Y020055D01*
X045592Y020116D01*
X045653Y020207D01*
X045670Y020294D01*
X045779Y020402D01*
X045825Y020471D01*
X045841Y020551D01*
Y026063D01*
X045825Y026144D01*
X045779Y026212D01*
X044541Y027450D01*
Y027911D01*
X044543Y027915D01*
X044547Y027924D01*
X044554Y027937D01*
X044564Y027952D01*
X044576Y027968D01*
X044614Y028013D01*
X044636Y028035D01*
X044640Y028038D01*
X044650Y028051D01*
X044799D01*
X044809Y028038D01*
X044900Y027968D01*
X045005Y027925D01*
X045118Y027910D01*
X045231Y027925D01*
X045337Y027968D01*
X045427Y028038D01*
X045437Y028051D01*
X045586D01*
X045597Y028038D01*
X045687Y027968D01*
X045792Y027925D01*
X045906Y027910D01*
X046019Y027925D01*
X046124Y027968D01*
X046214Y028038D01*
X046225Y028051D01*
X046374D01*
X046384Y028038D01*
X046475Y027968D01*
X046580Y027925D01*
X046693Y027910D01*
X046806Y027925D01*
X046911Y027968D01*
X047002Y028038D01*
X047071Y028128D01*
X047115Y028233D01*
X047130Y028346D01*
X047115Y028460D01*
X047071Y028565D01*
X047002Y028655D01*
X046911Y028725D01*
X046806Y028768D01*
X046693Y028783D01*
X046580Y028768D01*
X046475Y028725D01*
X046384Y028655D01*
X046374Y028642D01*
X046225D01*
X046214Y028655D01*
X046124Y028725D01*
X046019Y028768D01*
X045906Y028783D01*
X045792Y028768D01*
X045687Y028725D01*
X045597Y028655D01*
X045586Y028642D01*
X045437D01*
X045427Y028655D01*
X045337Y028725D01*
X045231Y028768D01*
X045118Y028783D01*
X045005Y028768D01*
X044900Y028725D01*
X044809Y028655D01*
X044799Y028642D01*
X044650D01*
X044640Y028655D01*
X044549Y028725D01*
X044444Y028768D01*
X044331Y028783D01*
X044218Y028768D01*
X044112Y028725D01*
X044022Y028655D01*
X044011Y028642D01*
X043863D01*
X043852Y028655D01*
X043762Y028725D01*
X043656Y028768D01*
X043543Y028783D01*
X043430Y028768D01*
X043325Y028725D01*
X043234Y028655D01*
X043224Y028642D01*
X043075D01*
X043065Y028655D01*
X042974Y028725D01*
X042869Y028768D01*
X042756Y028783D01*
X042643Y028768D01*
X042537Y028725D01*
X042447Y028655D01*
X042437Y028642D01*
X042288D01*
X042277Y028655D01*
X042187Y028725D01*
X042082Y028768D01*
X041968Y028783D01*
X041855Y028768D01*
X041750Y028725D01*
X041660Y028655D01*
X041649Y028642D01*
X041500D01*
X041490Y028655D01*
X041399Y028725D01*
X041294Y028768D01*
X041181Y028783D01*
X041068Y028768D01*
X040963Y028725D01*
X040872Y028655D01*
X040862Y028642D01*
X040713D01*
X040703Y028655D01*
X040612Y028725D01*
X040507Y028768D01*
X040394Y028783D01*
X040281Y028768D01*
X040175Y028725D01*
X040085Y028655D01*
X040074Y028642D01*
X039926D01*
X039915Y028655D01*
X039825Y028725D01*
X039719Y028768D01*
X039606Y028783D01*
X039493Y028768D01*
X039388Y028725D01*
X039297Y028655D01*
X039287Y028642D01*
X039138D01*
X039128Y028655D01*
X039037Y028725D01*
X038932Y028768D01*
X038819Y028783D01*
X038706Y028768D01*
X038600Y028725D01*
X038583Y028711D01*
X038465Y028769D01*
Y028780D01*
X037598D01*
Y027913D01*
X038465D01*
Y027924D01*
X038583Y027982D01*
X038600Y027968D01*
X038706Y027925D01*
X038819Y027910D01*
X038932Y027925D01*
X039037Y027968D01*
X039128Y028038D01*
X039138Y028051D01*
X039287D01*
X039297Y028038D01*
X039388Y027968D01*
X039493Y027925D01*
X039606Y027910D01*
X039719Y027925D01*
X039825Y027968D01*
X039915Y028038D01*
X039926Y028051D01*
X040074D01*
X040085Y028038D01*
X040175Y027968D01*
X040281Y027925D01*
X040394Y027910D01*
X040507Y027925D01*
X040612Y027968D01*
X040703Y028038D01*
X040713Y028051D01*
X040862D01*
X040872Y028038D01*
X040963Y027968D01*
X041068Y027925D01*
X041080Y027923D01*
X041122Y027798D01*
X041111Y027787D01*
X041065Y027718D01*
X041049Y027638D01*
Y018227D01*
X040958Y018152D01*
X040945Y018155D01*
X040837Y018134D01*
X040746Y018073D01*
X040685Y017982D01*
X040664Y017874D01*
X040685Y017766D01*
X040734Y017693D01*
Y016623D01*
X040097Y015985D01*
X040011Y015968D01*
X039919Y015907D01*
X039859Y015816D01*
X039837Y015709D01*
X039859Y015601D01*
X039919Y015510D01*
X039971Y015475D01*
X040002Y015339D01*
X039007Y014345D01*
X037464D01*
X037391Y014393D01*
X037283Y014415D01*
X037176Y014393D01*
X037085Y014333D01*
X037024Y014241D01*
X037002Y014134D01*
X036905Y014020D01*
X035064Y014020D01*
X035019Y014129D01*
X036637Y015747D01*
X036724Y015764D01*
X036798Y015814D01*
X036824Y015775D01*
X036941Y015697D01*
X037079Y015670D01*
X037218Y015697D01*
X037335Y015775D01*
X037342Y015782D01*
X037420Y015900D01*
X037448Y016038D01*
Y018583D01*
Y019245D01*
X038189D01*
X038327Y019273D01*
X038444Y019351D01*
X038523Y019468D01*
X038550Y019606D01*
X038523Y019745D01*
X038444Y019862D01*
X038327Y019940D01*
X038189Y019968D01*
X036921D01*
X036184Y020705D01*
Y024528D01*
Y025354D01*
X036181Y025370D01*
Y025512D01*
X036039D01*
X036024Y025515D01*
X035197D01*
X035181Y025512D01*
X035039D01*
Y025370D01*
X035036Y025354D01*
Y024688D01*
X033838D01*
X033819Y024692D01*
X031646D01*
X031464Y024874D01*
Y025283D01*
X032106Y025926D01*
X032184Y026043D01*
X032212Y026181D01*
Y028780D01*
X032184Y028918D01*
X032106Y029035D01*
X031477Y029664D01*
X031473Y029681D01*
X031386Y029811D01*
X030205Y030993D01*
X030075Y031080D01*
X029921Y031110D01*
X026015D01*
X025862Y031080D01*
X025731Y030993D01*
X025189Y030450D01*
X025102Y030319D01*
X025071Y030166D01*
Y029840D01*
X025031Y029744D01*
X024914D01*
X024868Y029854D01*
X024795Y029949D01*
X024701Y030021D01*
X024591Y030067D01*
X024472Y030083D01*
X024354Y030067D01*
X024244Y030021D01*
X024150Y029949D01*
X024077Y029854D01*
X024031Y029744D01*
X024016Y029626D01*
Y029429D01*
X024031Y029311D01*
X024077Y029201D01*
X024150Y029106D01*
X024244Y029034D01*
X024354Y028988D01*
X024472Y028972D01*
X024591Y028988D01*
X024701Y029034D01*
X024795Y029106D01*
X024868Y029201D01*
X024914Y029311D01*
X025031D01*
X025077Y029201D01*
X025150Y029106D01*
X025244Y029034D01*
X025354Y028988D01*
X025472Y028972D01*
X025591Y028988D01*
X025701Y029034D01*
X025795Y029106D01*
X025868Y029201D01*
X025914Y029311D01*
X026031D01*
X026077Y029201D01*
X026150Y029106D01*
X026244Y029034D01*
X026354Y028988D01*
X026472Y028972D01*
X026591Y028988D01*
X026701Y029034D01*
X026795Y029106D01*
X026868Y029201D01*
X026914Y029311D01*
X026929Y029429D01*
Y029626D01*
X026914Y029744D01*
X026868Y029854D01*
X026795Y029949D01*
X026701Y030021D01*
X026591Y030067D01*
X026472Y030083D01*
X026354Y030067D01*
X026244Y030021D01*
X026150Y029949D01*
X026077Y029854D01*
X026031Y029744D01*
X025914D01*
X025876Y029836D01*
X025874Y029928D01*
Y030000D01*
X026181Y030307D01*
X029755D01*
X030819Y029244D01*
X030949Y029157D01*
X030966Y029153D01*
X031489Y028630D01*
Y026331D01*
X030847Y025689D01*
X030769Y025571D01*
X030741Y025433D01*
Y024724D01*
X030769Y024586D01*
X030847Y024469D01*
X031241Y024075D01*
X031358Y023997D01*
X031496Y023969D01*
X033189D01*
Y023457D01*
X033071Y023377D01*
X032992Y023393D01*
X031850D01*
X031712Y023365D01*
X031595Y023287D01*
X031517Y023170D01*
X031489Y023031D01*
X031517Y022893D01*
X031595Y022776D01*
X031712Y022698D01*
X031850Y022670D01*
X032992D01*
X033071Y022686D01*
X033189Y022606D01*
Y020276D01*
X033279D01*
X033324Y020245D01*
X033386Y020233D01*
X035634D01*
X036516Y019351D01*
X036633Y019273D01*
X036725Y019254D01*
Y018842D01*
X036616Y018744D01*
X036509Y018722D01*
X036417Y018661D01*
X036385Y018613D01*
X036257Y018605D01*
X036250Y018607D01*
X036233Y018633D01*
X036155Y018685D01*
X036122Y018692D01*
Y018463D01*
Y018233D01*
X036155Y018240D01*
X036233Y018292D01*
X036250Y018318D01*
X036257Y018320D01*
X036385Y018312D01*
X036403Y018285D01*
Y016201D01*
X036357Y016131D01*
X036339Y016045D01*
X034521Y014226D01*
X031850D01*
X031770Y014210D01*
X031701Y014165D01*
X031187Y013650D01*
X031095Y013726D01*
X031112Y013751D01*
X031133Y013858D01*
X031113Y013959D01*
Y017783D01*
X031133Y017884D01*
X031113Y017985D01*
Y018343D01*
X031575Y018804D01*
X031660Y018861D01*
X031721Y018953D01*
X031743Y019060D01*
X031732Y019116D01*
X031761Y019242D01*
X031840Y019294D01*
X031892Y019372D01*
X031898Y019406D01*
X031669D01*
Y019465D01*
X031610D01*
Y019694D01*
X031582Y019688D01*
X031575Y019693D01*
X031514Y019787D01*
X031795Y020068D01*
X031839Y020134D01*
X031854Y020210D01*
Y020710D01*
X031913Y020798D01*
X031935Y020906D01*
X031913Y021013D01*
X031852Y021104D01*
X031761Y021165D01*
X031654Y021186D01*
X031546Y021165D01*
X031539Y021161D01*
X031421Y021224D01*
Y022285D01*
X031480Y022373D01*
X031501Y022480D01*
X031480Y022588D01*
X031419Y022679D01*
X031328Y022740D01*
X031220Y022761D01*
X031157Y022814D01*
Y023295D01*
X031157Y023295D01*
X031144Y023357D01*
X031142Y023361D01*
Y023425D01*
X029882Y024685D01*
X027087D01*
X026732Y024331D01*
Y016575D01*
X026914D01*
X026929Y016572D01*
X028780D01*
X028780Y016572D01*
X028795Y016575D01*
X028937D01*
X029926Y017564D01*
X030036Y017519D01*
Y016579D01*
X027693Y014236D01*
X027649Y014171D01*
X027634Y014094D01*
Y014054D01*
X027575Y013966D01*
X027554Y013858D01*
X027575Y013751D01*
X027636Y013660D01*
X027727Y013599D01*
X027835Y013577D01*
X027942Y013599D01*
X028033Y013660D01*
X028094Y013751D01*
X028116Y013858D01*
X028094Y013966D01*
X028052Y014028D01*
X028269Y014245D01*
X028397Y014206D01*
X028402Y014184D01*
X028463Y014093D01*
Y014057D01*
X028402Y013966D01*
X028380Y013858D01*
X028402Y013751D01*
X028463Y013660D01*
X028554Y013599D01*
X028661Y013577D01*
X028769Y013599D01*
X028857Y013658D01*
X029563D01*
X030000Y013220D01*
X030020Y013121D01*
X030081Y013030D01*
X030172Y012969D01*
X030247Y012954D01*
X030247Y012833D01*
X030183Y012821D01*
X030105Y012769D01*
X030053Y012691D01*
X030046Y012657D01*
X030276D01*
Y012539D01*
X030046D01*
X030053Y012506D01*
X030105Y012428D01*
X030110Y012283D01*
X029956Y012130D01*
X028936D01*
X028848Y012189D01*
X028740Y012210D01*
X028633Y012189D01*
X028541Y012128D01*
X028481Y012037D01*
X028459Y011929D01*
X028400Y011857D01*
X028125D01*
X027239Y012743D01*
X027221Y012831D01*
X027134Y012961D01*
X027028Y013032D01*
X026992Y013106D01*
X026980Y013163D01*
X026980Y013173D01*
Y014035D01*
X026075D01*
Y013753D01*
X025957Y013730D01*
X025923Y013811D01*
X025850Y013906D01*
X025756Y013978D01*
X025646Y014024D01*
X025528Y014039D01*
X025409Y014024D01*
X025299Y013978D01*
X025205Y013906D01*
X025132Y013811D01*
X025086Y013701D01*
X024969D01*
X024923Y013811D01*
X024850Y013906D01*
X024756Y013978D01*
X024646Y014024D01*
X024528Y014039D01*
X024409Y014024D01*
X024299Y013978D01*
X024205Y013906D01*
X024132Y013811D01*
X024086Y013701D01*
X024071Y013583D01*
X024086Y013464D01*
X024132Y013354D01*
X024205Y013260D01*
X024287Y013197D01*
X024285Y013155D01*
X024254Y013079D01*
X023613D01*
X023587Y013110D01*
X023569Y013202D01*
X023517Y013281D01*
X023439Y013333D01*
X023406Y013339D01*
Y013110D01*
X023287D01*
Y013364D01*
X023197Y013426D01*
Y014005D01*
X023197Y014005D01*
Y015395D01*
Y016546D01*
X023257Y016606D01*
X026024D01*
X026177Y016637D01*
X026307Y016724D01*
X026394Y016854D01*
X026425Y017008D01*
X026394Y017161D01*
X026307Y017292D01*
X026177Y017379D01*
X026024Y017409D01*
X025638D01*
X025573Y017527D01*
X025588Y017606D01*
X025567Y017714D01*
X025528Y017772D01*
Y018396D01*
X025554Y018423D01*
X025647Y018441D01*
X025739Y018502D01*
X025799Y018593D01*
X025821Y018701D01*
X025799Y018808D01*
X025739Y018899D01*
X025647Y018960D01*
X025540Y018982D01*
X025432Y018960D01*
X025375Y018922D01*
X025265Y018943D01*
X025251Y018952D01*
X025252Y018957D01*
X025321Y019059D01*
X025381Y019071D01*
X025472Y019132D01*
X025484Y019150D01*
X025486Y019152D01*
X025552Y019249D01*
X025575Y019364D01*
Y020333D01*
X025552Y020448D01*
X025486Y020545D01*
X025389Y020611D01*
X025273Y020634D01*
X025260Y020631D01*
X025142Y020728D01*
Y020740D01*
X025181Y020798D01*
X025202Y020906D01*
X025181Y021013D01*
X025120Y021104D01*
X025029Y021165D01*
X024921Y021186D01*
X024885Y021216D01*
Y021693D01*
X026417D01*
Y024370D01*
X025118D01*
Y026102D01*
X021818D01*
X021755Y026220D01*
X021775Y026251D01*
X021797Y026358D01*
X021775Y026466D01*
X021714Y026557D01*
X021623Y026618D01*
X021516Y026639D01*
X021408Y026618D01*
X021317Y026557D01*
X021256Y026466D01*
X021235Y026358D01*
X021256Y026251D01*
X021276Y026220D01*
X021213Y026102D01*
X020835D01*
X020824Y026115D01*
X020783Y026220D01*
X020813Y026266D01*
X020820Y026299D01*
X020361D01*
X020368Y026266D01*
X020399Y026220D01*
X020357Y026115D01*
X020346Y026102D01*
X013583D01*
Y024176D01*
X012441D01*
Y029331D01*
X007559D01*
Y028265D01*
X007468Y028190D01*
X007441Y028195D01*
X007307D01*
Y030748D01*
X007291Y030866D01*
X007246Y030976D01*
X007173Y031071D01*
X007087Y031137D01*
X007087Y031150D01*
X007156Y031255D01*
X047003D01*
Y029528D01*
D02*
G37*
G36*
X042216Y027109D02*
X042220Y027088D01*
X042228Y027066D01*
X042238Y027044D01*
X042250Y027020D01*
X042266Y026996D01*
X042285Y026970D01*
X042307Y026944D01*
X042358Y026890D01*
X041972D01*
X042000Y026917D01*
X042046Y026970D01*
X042064Y026996D01*
X042080Y027020D01*
X042093Y027044D01*
X042103Y027066D01*
X042110Y027088D01*
X042115Y027109D01*
X042116Y027129D01*
X042215D01*
X042216Y027109D01*
D02*
G37*
G36*
X044837Y024720D02*
X044830Y024727D01*
X044823Y024733D01*
X044815Y024738D01*
X044806Y024742D01*
X044797Y024746D01*
X044787Y024749D01*
X044777Y024751D01*
X044766Y024753D01*
X044755Y024754D01*
X044743Y024754D01*
Y024852D01*
X044755Y024853D01*
X044766Y024854D01*
X044777Y024855D01*
X044787Y024858D01*
X044797Y024861D01*
X044806Y024864D01*
X044815Y024869D01*
X044823Y024874D01*
X044830Y024879D01*
X044837Y024886D01*
Y024720D01*
D02*
G37*
G36*
X044050Y024169D02*
X044043Y024176D01*
X044035Y024181D01*
X044027Y024186D01*
X044019Y024191D01*
X044010Y024194D01*
X044000Y024197D01*
X043990Y024200D01*
X043979Y024201D01*
X043968Y024202D01*
X043956Y024203D01*
Y024301D01*
X043968Y024302D01*
X043979Y024303D01*
X043990Y024304D01*
X044000Y024307D01*
X044010Y024310D01*
X044019Y024313D01*
X044027Y024318D01*
X044035Y024323D01*
X044043Y024328D01*
X044050Y024335D01*
Y024169D01*
D02*
G37*
G36*
X034341Y023621D02*
X034347Y023617D01*
X034354Y023614D01*
X034362Y023611D01*
X034370Y023608D01*
X034379Y023606D01*
X034390Y023604D01*
X034401Y023603D01*
X034425Y023602D01*
Y023484D01*
X034412Y023484D01*
X034390Y023482D01*
X034379Y023480D01*
X034370Y023478D01*
X034362Y023476D01*
X034354Y023473D01*
X034347Y023469D01*
X034341Y023465D01*
X034336Y023461D01*
Y023626D01*
X034341Y023621D01*
D02*
G37*
G36*
X034330Y023454D02*
X034326Y023448D01*
X034323Y023441D01*
X034320Y023434D01*
X034317Y023425D01*
X034315Y023416D01*
X034313Y023406D01*
X034312Y023395D01*
X034311Y023370D01*
X034193D01*
X034193Y023383D01*
X034191Y023406D01*
X034189Y023416D01*
X034187Y023425D01*
X034184Y023434D01*
X034181Y023441D01*
X034178Y023448D01*
X034174Y023454D01*
X034169Y023459D01*
X034335D01*
X034330Y023454D01*
D02*
G37*
G36*
X011063Y023189D02*
X007874Y026378D01*
X011063Y026378D01*
X011063Y023189D01*
D02*
G37*
G36*
X034312Y022715D02*
X034313Y022701D01*
X034316Y022686D01*
X034319Y022673D01*
X034324Y022660D01*
X034329Y022647D01*
X034336Y022635D01*
X034344Y022624D01*
X034352Y022613D01*
X034362Y022603D01*
X034142D01*
X034151Y022613D01*
X034160Y022624D01*
X034168Y022635D01*
X034174Y022647D01*
X034180Y022660D01*
X034185Y022673D01*
X034188Y022686D01*
X034191Y022701D01*
X034192Y022715D01*
X034193Y022731D01*
X034311D01*
X034312Y022715D01*
D02*
G37*
G36*
X031295Y022387D02*
X031288Y022378D01*
X031281Y022369D01*
X031275Y022360D01*
X031271Y022350D01*
X031267Y022340D01*
X031264Y022330D01*
X031262Y022320D01*
X031260Y022309D01*
X031260Y022298D01*
X031181D01*
X031181Y022309D01*
X031179Y022320D01*
X031177Y022330D01*
X031174Y022340D01*
X031170Y022350D01*
X031166Y022360D01*
X031160Y022369D01*
X031153Y022378D01*
X031146Y022387D01*
X031138Y022396D01*
X031303D01*
X031295Y022387D01*
D02*
G37*
G36*
X034352Y022367D02*
X034344Y022357D01*
X034336Y022345D01*
X034329Y022333D01*
X034324Y022321D01*
X034319Y022308D01*
X034316Y022294D01*
X034313Y022280D01*
X034312Y022265D01*
X034311Y022254D01*
X034312Y022243D01*
X034313Y022228D01*
X034316Y022214D01*
X034319Y022200D01*
X034324Y022187D01*
X034329Y022175D01*
X034336Y022163D01*
X034344Y022151D01*
X034352Y022140D01*
X034362Y022130D01*
X034142D01*
X034151Y022140D01*
X034160Y022151D01*
X034168Y022163D01*
X034174Y022175D01*
X034180Y022187D01*
X034185Y022200D01*
X034188Y022214D01*
X034191Y022228D01*
X034192Y022243D01*
X034193Y022254D01*
X034192Y022265D01*
X034191Y022280D01*
X034188Y022294D01*
X034185Y022308D01*
X034180Y022321D01*
X034174Y022333D01*
X034168Y022345D01*
X034160Y022357D01*
X034151Y022367D01*
X034142Y022378D01*
X034362D01*
X034352Y022367D01*
D02*
G37*
G36*
Y021895D02*
X034344Y021884D01*
X034336Y021873D01*
X034329Y021861D01*
X034324Y021848D01*
X034319Y021835D01*
X034316Y021821D01*
X034313Y021807D01*
X034312Y021793D01*
X034311Y021781D01*
X034312Y021770D01*
X034313Y021756D01*
X034316Y021742D01*
X034319Y021728D01*
X034324Y021715D01*
X034329Y021702D01*
X034336Y021690D01*
X034344Y021679D01*
X034352Y021668D01*
X034362Y021658D01*
X034142D01*
X034151Y021668D01*
X034160Y021679D01*
X034168Y021690D01*
X034174Y021702D01*
X034180Y021715D01*
X034185Y021728D01*
X034188Y021742D01*
X034191Y021756D01*
X034192Y021770D01*
X034193Y021781D01*
X034192Y021793D01*
X034191Y021807D01*
X034188Y021821D01*
X034185Y021835D01*
X034180Y021848D01*
X034174Y021861D01*
X034168Y021873D01*
X034160Y021884D01*
X034151Y021895D01*
X034142Y021905D01*
X034362D01*
X034352Y021895D01*
D02*
G37*
G36*
X015276Y021522D02*
X015277Y021511D01*
X015279Y021500D01*
X015281Y021489D01*
X015285Y021479D01*
X015289Y021469D01*
X015294Y021460D01*
X015300Y021451D01*
X015307Y021442D01*
X015314Y021434D01*
X015258Y021379D01*
X015250Y021386D01*
X015242Y021393D01*
X015233Y021399D01*
X015224Y021404D01*
X015214Y021408D01*
X015204Y021411D01*
X015193Y021414D01*
X015182Y021416D01*
X015171Y021417D01*
X015159Y021417D01*
X015276Y021534D01*
X015276Y021522D01*
D02*
G37*
G36*
X042634Y021255D02*
X042643Y021248D01*
X042652Y021241D01*
X042660Y021236D01*
X042669Y021231D01*
X042678Y021227D01*
X042688Y021224D01*
X042697Y021222D01*
X042706Y021221D01*
X042715Y021220D01*
X042598Y021104D01*
X042598Y021113D01*
X042597Y021122D01*
X042595Y021131D01*
X042592Y021140D01*
X042588Y021149D01*
X042583Y021158D01*
X042578Y021167D01*
X042571Y021176D01*
X042564Y021185D01*
X042556Y021194D01*
X042625Y021263D01*
X042634Y021255D01*
D02*
G37*
G36*
X024999Y020816D02*
X024995Y020810D01*
X024992Y020803D01*
X024989Y020796D01*
X024986Y020787D01*
X024984Y020778D01*
X024982Y020768D01*
X024981Y020757D01*
X024980Y020732D01*
X024862D01*
X024862Y020745D01*
X024860Y020768D01*
X024858Y020778D01*
X024856Y020787D01*
X024854Y020796D01*
X024851Y020803D01*
X024847Y020810D01*
X024843Y020816D01*
X024839Y020821D01*
X025004D01*
X024999Y020816D01*
D02*
G37*
G36*
X031728Y020813D02*
X031721Y020804D01*
X031714Y020795D01*
X031709Y020785D01*
X031704Y020775D01*
X031700Y020766D01*
X031697Y020755D01*
X031695Y020745D01*
X031693Y020734D01*
X031693Y020723D01*
X031614D01*
X031614Y020734D01*
X031612Y020745D01*
X031610Y020755D01*
X031607Y020766D01*
X031603Y020775D01*
X031599Y020785D01*
X031593Y020795D01*
X031586Y020804D01*
X031579Y020813D01*
X031571Y020821D01*
X031736D01*
X031728Y020813D01*
D02*
G37*
G36*
X015276Y020853D02*
X015277Y020842D01*
X015279Y020831D01*
X015281Y020820D01*
X015285Y020810D01*
X015289Y020800D01*
X015294Y020791D01*
X015300Y020782D01*
X015307Y020773D01*
X015314Y020765D01*
X015258Y020709D01*
X015250Y020717D01*
X015242Y020724D01*
X015233Y020729D01*
X015224Y020734D01*
X015214Y020739D01*
X015204Y020742D01*
X015193Y020745D01*
X015182Y020747D01*
X015171Y020748D01*
X015159Y020748D01*
X015276Y020865D01*
X015276Y020853D01*
D02*
G37*
G36*
X041736Y020642D02*
X041727Y020634D01*
X041720Y020625D01*
X041714Y020616D01*
X041708Y020607D01*
X041703Y020598D01*
X041700Y020589D01*
X041697Y020580D01*
X041694Y020571D01*
X041693Y020562D01*
X041693Y020552D01*
X041576Y020669D01*
X041585Y020670D01*
X041595Y020671D01*
X041604Y020673D01*
X041613Y020676D01*
X041622Y020680D01*
X041631Y020684D01*
X041640Y020690D01*
X041649Y020696D01*
X041657Y020704D01*
X041666Y020712D01*
X041736Y020642D01*
D02*
G37*
G36*
X045555Y020406D02*
X045546Y020398D01*
X045539Y020389D01*
X045533Y020380D01*
X045527Y020371D01*
X045522Y020362D01*
X045518Y020353D01*
X045515Y020344D01*
X045513Y020335D01*
X045512Y020325D01*
X045512Y020316D01*
X045395Y020433D01*
X045404Y020433D01*
X045413Y020435D01*
X045423Y020437D01*
X045432Y020440D01*
X045441Y020444D01*
X045450Y020448D01*
X045459Y020454D01*
X045468Y020460D01*
X045476Y020468D01*
X045485Y020476D01*
X045555Y020406D01*
D02*
G37*
G36*
X015276Y019869D02*
X015277Y019857D01*
X015279Y019846D01*
X015281Y019836D01*
X015285Y019825D01*
X015289Y019816D01*
X015294Y019806D01*
X015300Y019797D01*
X015307Y019789D01*
X015314Y019781D01*
X015258Y019725D01*
X015250Y019733D01*
X015242Y019739D01*
X015233Y019745D01*
X015224Y019750D01*
X015214Y019754D01*
X015204Y019758D01*
X015193Y019761D01*
X015182Y019762D01*
X015171Y019764D01*
X015159Y019764D01*
X015276Y019881D01*
X015276Y019869D01*
D02*
G37*
G36*
X030393Y019117D02*
X030385Y019109D01*
X030379Y019100D01*
X030373Y019091D01*
X030368Y019082D01*
X030364Y019072D01*
X030360Y019062D01*
X030358Y019051D01*
X030356Y019040D01*
X030355Y019029D01*
X030354Y019017D01*
X030237Y019134D01*
X030249Y019134D01*
X030261Y019135D01*
X030272Y019137D01*
X030282Y019140D01*
X030293Y019143D01*
X030302Y019147D01*
X030312Y019152D01*
X030321Y019158D01*
X030329Y019165D01*
X030337Y019172D01*
X030393Y019117D01*
D02*
G37*
G36*
X024981Y019019D02*
X024982Y018996D01*
X024984Y018986D01*
X024986Y018976D01*
X024989Y018968D01*
X024992Y018960D01*
X024995Y018954D01*
X024999Y018948D01*
X025004Y018943D01*
X024839D01*
X024843Y018948D01*
X024847Y018954D01*
X024851Y018960D01*
X024854Y018968D01*
X024856Y018976D01*
X024858Y018986D01*
X024860Y018996D01*
X024861Y019007D01*
X024862Y019031D01*
X024980D01*
X024981Y019019D01*
D02*
G37*
G36*
X015196Y018780D02*
X015184Y018779D01*
X015172Y018778D01*
X015161Y018776D01*
X015151Y018774D01*
X015140Y018770D01*
X015131Y018766D01*
X015121Y018761D01*
X015112Y018755D01*
X015104Y018748D01*
X015096Y018741D01*
X015040Y018797D01*
X015048Y018805D01*
X015054Y018813D01*
X015060Y018822D01*
X015065Y018831D01*
X015069Y018841D01*
X015073Y018851D01*
X015076Y018862D01*
X015077Y018873D01*
X015078Y018885D01*
X015079Y018896D01*
X015196Y018780D01*
D02*
G37*
G36*
X025525Y018584D02*
X025518Y018584D01*
X025511Y018583D01*
X025503Y018582D01*
X025496Y018579D01*
X025488Y018575D01*
X025480Y018571D01*
X025471Y018565D01*
X025463Y018558D01*
X025454Y018550D01*
X025445Y018542D01*
X025373Y018637D01*
X025381Y018646D01*
X025403Y018671D01*
X025408Y018679D01*
X025413Y018687D01*
X025417Y018694D01*
X025419Y018701D01*
X025421Y018707D01*
X025422Y018714D01*
X025525Y018584D01*
D02*
G37*
G36*
X036697Y018377D02*
X036691Y018370D01*
X036685Y018363D01*
X036680Y018355D01*
X036676Y018346D01*
X036672Y018337D01*
X036669Y018328D01*
X036666Y018318D01*
X036665Y018307D01*
X036664Y018295D01*
X036663Y018283D01*
X036565Y018285D01*
X036565Y018297D01*
X036564Y018309D01*
X036562Y018319D01*
X036560Y018330D01*
X036557Y018339D01*
X036553Y018349D01*
X036549Y018357D01*
X036544Y018365D01*
X036538Y018373D01*
X036532Y018380D01*
X036697Y018377D01*
D02*
G37*
G36*
X045782Y018146D02*
X045773Y018154D01*
X045764Y018161D01*
X045755Y018168D01*
X045746Y018173D01*
X045736Y018178D01*
X045726Y018182D01*
X045716Y018185D01*
X045706Y018187D01*
X045695Y018189D01*
X045684Y018189D01*
Y018268D01*
X045695Y018268D01*
X045706Y018269D01*
X045716Y018272D01*
X045726Y018275D01*
X045736Y018279D01*
X045746Y018283D01*
X045755Y018289D01*
X045764Y018295D01*
X045773Y018303D01*
X045782Y018311D01*
Y018146D01*
D02*
G37*
G36*
X030311Y018096D02*
X030303Y018087D01*
X030297Y018078D01*
X030291Y018069D01*
X030286Y018059D01*
X030283Y018049D01*
X030279Y018039D01*
X030277Y018028D01*
X030276Y018018D01*
X030276Y018007D01*
X030197D01*
X030196Y018018D01*
X030195Y018028D01*
X030193Y018039D01*
X030190Y018049D01*
X030186Y018059D01*
X030181Y018069D01*
X030176Y018078D01*
X030169Y018087D01*
X030162Y018096D01*
X030154Y018105D01*
X030319D01*
X030311Y018096D01*
D02*
G37*
G36*
X041021Y017783D02*
X041016Y017775D01*
X041010Y017767D01*
X041006Y017759D01*
X041002Y017750D01*
X040999Y017740D01*
X040997Y017730D01*
X040995Y017719D01*
X040994Y017708D01*
X040994Y017696D01*
X040896D01*
X040895Y017708D01*
X040894Y017719D01*
X040893Y017730D01*
X040890Y017740D01*
X040887Y017750D01*
X040884Y017759D01*
X040879Y017767D01*
X040874Y017775D01*
X040869Y017783D01*
X040862Y017790D01*
X041028D01*
X041021Y017783D01*
D02*
G37*
G36*
X025367Y017767D02*
X025368Y017744D01*
X025370Y017734D01*
X025372Y017724D01*
X025375Y017716D01*
X025378Y017708D01*
X025381Y017701D01*
X025385Y017696D01*
X025390Y017691D01*
X025225D01*
X025229Y017696D01*
X025233Y017701D01*
X025237Y017708D01*
X025240Y017716D01*
X025242Y017724D01*
X025244Y017734D01*
X025246Y017744D01*
X025247Y017755D01*
X025248Y017779D01*
X025366D01*
X025367Y017767D01*
D02*
G37*
G36*
X045969Y017777D02*
X045975Y017770D01*
X045982Y017765D01*
X045990Y017760D01*
X045998Y017756D01*
X046008Y017752D01*
X046017Y017749D01*
X046028Y017748D01*
X046039Y017746D01*
X046051Y017746D01*
X046033Y017648D01*
X046021Y017647D01*
X045999Y017645D01*
X045988Y017643D01*
X045978Y017641D01*
X045969Y017638D01*
X045960Y017635D01*
X045951Y017631D01*
X045943Y017626D01*
X045936Y017621D01*
X045963Y017784D01*
X045969Y017777D01*
D02*
G37*
G36*
X050415Y017610D02*
X050409Y017617D01*
X050403Y017623D01*
X050396Y017629D01*
X050388Y017634D01*
X050380Y017638D01*
X050370Y017642D01*
X050361Y017644D01*
X050350Y017646D01*
X050339Y017647D01*
X050327Y017648D01*
X050345Y017746D01*
X050357Y017746D01*
X050379Y017748D01*
X050390Y017750D01*
X050400Y017753D01*
X050409Y017756D01*
X050418Y017759D01*
X050427Y017763D01*
X050435Y017768D01*
X050442Y017773D01*
X050415Y017610D01*
D02*
G37*
G36*
X030996Y023295D02*
Y020287D01*
X029921Y019213D01*
X029921Y017874D01*
X028780Y016732D01*
X026929D01*
Y024252D01*
X027165Y024488D01*
X029803D01*
X030996Y023295D01*
D02*
G37*
G36*
X015196Y016693D02*
X015184Y016693D01*
X015172Y016692D01*
X015161Y016690D01*
X015151Y016687D01*
X015140Y016684D01*
X015131Y016679D01*
X015121Y016674D01*
X015112Y016668D01*
X015104Y016662D01*
X015096Y016654D01*
X015040Y016710D01*
X015048Y016718D01*
X015054Y016727D01*
X015060Y016735D01*
X015065Y016745D01*
X015069Y016755D01*
X015073Y016765D01*
X015076Y016775D01*
X015077Y016786D01*
X015078Y016798D01*
X015079Y016810D01*
X015196Y016693D01*
D02*
G37*
G36*
X036664Y016191D02*
X036665Y016179D01*
X036666Y016169D01*
X036669Y016158D01*
X036672Y016149D01*
X036676Y016140D01*
X036680Y016131D01*
X036685Y016123D01*
X036691Y016116D01*
X036697Y016109D01*
X036532Y016107D01*
X036538Y016114D01*
X036544Y016121D01*
X036549Y016129D01*
X036553Y016138D01*
X036557Y016147D01*
X036560Y016157D01*
X036562Y016167D01*
X036564Y016178D01*
X036565Y016189D01*
X036565Y016201D01*
X036663Y016203D01*
X036664Y016191D01*
D02*
G37*
G36*
X036615Y015906D02*
X036606Y015905D01*
X036596Y015904D01*
X036587Y015902D01*
X036578Y015899D01*
X036569Y015895D01*
X036560Y015890D01*
X036551Y015885D01*
X036542Y015878D01*
X036534Y015871D01*
X036525Y015863D01*
X036455Y015932D01*
X036464Y015941D01*
X036471Y015950D01*
X036477Y015959D01*
X036483Y015968D01*
X036488Y015977D01*
X036491Y015986D01*
X036494Y015995D01*
X036496Y016004D01*
X036498Y016013D01*
X036498Y016022D01*
X036615Y015906D01*
D02*
G37*
G36*
X040279Y015800D02*
X040271Y015791D01*
X040263Y015782D01*
X040257Y015774D01*
X040251Y015765D01*
X040247Y015756D01*
X040243Y015747D01*
X040240Y015738D01*
X040238Y015728D01*
X040237Y015719D01*
X040236Y015710D01*
X040119Y015827D01*
X040129Y015827D01*
X040138Y015828D01*
X040147Y015830D01*
X040156Y015833D01*
X040165Y015837D01*
X040174Y015842D01*
X040183Y015848D01*
X040192Y015854D01*
X040201Y015861D01*
X040209Y015869D01*
X040279Y015800D01*
D02*
G37*
G36*
X015196Y015709D02*
X015184Y015708D01*
X015172Y015707D01*
X015161Y015705D01*
X015151Y015703D01*
X015140Y015699D01*
X015131Y015695D01*
X015121Y015690D01*
X015112Y015684D01*
X015104Y015678D01*
X015096Y015670D01*
X015040Y015726D01*
X015048Y015734D01*
X015054Y015742D01*
X015060Y015751D01*
X015065Y015761D01*
X015069Y015770D01*
X015073Y015781D01*
X015076Y015791D01*
X015077Y015802D01*
X015078Y015814D01*
X015079Y015826D01*
X015196Y015709D01*
D02*
G37*
G36*
X030392Y014903D02*
X030384Y014895D01*
X030378Y014886D01*
X030372Y014877D01*
X030367Y014868D01*
X030363Y014858D01*
X030359Y014848D01*
X030357Y014837D01*
X030355Y014826D01*
X030354Y014815D01*
X030354Y014803D01*
X030235Y014917D01*
X030247Y014918D01*
X030258Y014919D01*
X030269Y014921D01*
X030280Y014924D01*
X030290Y014928D01*
X030300Y014932D01*
X030309Y014937D01*
X030318Y014943D01*
X030327Y014950D01*
X030335Y014957D01*
X030392Y014903D01*
D02*
G37*
G36*
X015196Y014724D02*
X015184Y014724D01*
X015172Y014723D01*
X015161Y014721D01*
X015151Y014719D01*
X015140Y014715D01*
X015131Y014711D01*
X015121Y014706D01*
X015112Y014700D01*
X015104Y014693D01*
X015096Y014686D01*
X015040Y014742D01*
X015048Y014750D01*
X015054Y014758D01*
X015060Y014767D01*
X015065Y014776D01*
X015069Y014786D01*
X015073Y014796D01*
X015076Y014807D01*
X015077Y014818D01*
X015078Y014829D01*
X015079Y014841D01*
X015196Y014724D01*
D02*
G37*
G36*
X028753Y014368D02*
X028760Y014362D01*
X028768Y014357D01*
X028777Y014353D01*
X028786Y014349D01*
X028795Y014346D01*
X028806Y014344D01*
X028816Y014342D01*
X028828Y014341D01*
X028840Y014341D01*
Y014242D01*
X028828Y014242D01*
X028816Y014241D01*
X028806Y014239D01*
X028795Y014237D01*
X028786Y014234D01*
X028777Y014230D01*
X028768Y014226D01*
X028760Y014221D01*
X028753Y014215D01*
X028746Y014209D01*
Y014374D01*
X028753Y014368D01*
D02*
G37*
G36*
X015271Y014159D02*
X015264Y014150D01*
X015257Y014141D01*
X015252Y014132D01*
X015247Y014122D01*
X015243Y014112D01*
X015240Y014102D01*
X015238Y014091D01*
X015237Y014081D01*
X015236Y014070D01*
X015157D01*
X015157Y014081D01*
X015156Y014091D01*
X015154Y014102D01*
X015151Y014112D01*
X015147Y014122D01*
X015142Y014132D01*
X015136Y014141D01*
X015130Y014150D01*
X015122Y014159D01*
X015114Y014168D01*
X015280D01*
X015271Y014159D01*
D02*
G37*
G36*
X037375Y014210D02*
X037382Y014204D01*
X037390Y014199D01*
X037399Y014195D01*
X037408Y014191D01*
X037417Y014188D01*
X037428Y014186D01*
X037438Y014184D01*
X037450Y014183D01*
X037462Y014183D01*
Y014085D01*
X037450Y014084D01*
X037438Y014083D01*
X037428Y014082D01*
X037417Y014079D01*
X037408Y014076D01*
X037399Y014073D01*
X037390Y014068D01*
X037382Y014063D01*
X037375Y014058D01*
X037368Y014051D01*
Y014217D01*
X037375Y014210D01*
D02*
G37*
G36*
X027874Y014030D02*
X027876Y014019D01*
X027878Y014008D01*
X027881Y013998D01*
X027885Y013988D01*
X027890Y013979D01*
X027895Y013969D01*
X027902Y013960D01*
X027909Y013951D01*
X027917Y013943D01*
X027752D01*
X027760Y013951D01*
X027768Y013960D01*
X027774Y013969D01*
X027780Y013979D01*
X027784Y013988D01*
X027788Y013998D01*
X027791Y014008D01*
X027794Y014019D01*
X027795Y014030D01*
X027795Y014040D01*
X027874D01*
X027874Y014030D01*
D02*
G37*
G36*
X028754Y013933D02*
X028763Y013925D01*
X028772Y013919D01*
X028782Y013913D01*
X028791Y013908D01*
X028801Y013905D01*
X028812Y013902D01*
X028822Y013899D01*
X028833Y013898D01*
X028844Y013898D01*
Y013819D01*
X028833Y013818D01*
X028822Y013817D01*
X028812Y013815D01*
X028801Y013812D01*
X028791Y013808D01*
X028782Y013803D01*
X028772Y013798D01*
X028763Y013791D01*
X028754Y013784D01*
X028746Y013776D01*
Y013941D01*
X028754Y013933D01*
D02*
G37*
G36*
X034832Y013447D02*
X034824Y013439D01*
X034818Y013431D01*
X034812Y013422D01*
X034807Y013413D01*
X034803Y013403D01*
X034799Y013393D01*
X034796Y013382D01*
X034795Y013371D01*
X034793Y013360D01*
X034793Y013348D01*
X034676Y013465D01*
X034688Y013465D01*
X034700Y013466D01*
X034711Y013468D01*
X034721Y013470D01*
X034732Y013474D01*
X034741Y013478D01*
X034751Y013483D01*
X034760Y013489D01*
X034768Y013496D01*
X034776Y013503D01*
X034832Y013447D01*
D02*
G37*
G36*
X030184Y013376D02*
X030192Y013370D01*
X030201Y013364D01*
X030211Y013359D01*
X030220Y013355D01*
X030231Y013351D01*
X030241Y013349D01*
X030252Y013347D01*
X030264Y013346D01*
X030276Y013346D01*
X030161Y013227D01*
X030161Y013239D01*
X030160Y013250D01*
X030157Y013261D01*
X030155Y013272D01*
X030151Y013282D01*
X030147Y013292D01*
X030142Y013301D01*
X030136Y013310D01*
X030129Y013319D01*
X030122Y013327D01*
X030176Y013384D01*
X030184Y013376D01*
D02*
G37*
G36*
X037542Y013263D02*
X037550Y013256D01*
X037559Y013250D01*
X037568Y013245D01*
X037578Y013240D01*
X037588Y013236D01*
X037599Y013233D01*
X037610Y013231D01*
X037622Y013229D01*
X037634Y013228D01*
X037510Y013118D01*
X037511Y013130D01*
X037510Y013141D01*
X037509Y013152D01*
X037506Y013163D01*
X037503Y013173D01*
X037499Y013183D01*
X037494Y013192D01*
X037489Y013201D01*
X037482Y013210D01*
X037475Y013218D01*
X037534Y013270D01*
X037542Y013263D01*
D02*
G37*
G36*
X002028Y013339D02*
X002088Y013288D01*
X002116Y013267D01*
X002144Y013249D01*
X002171Y013234D01*
X002197Y013223D01*
X002222Y013215D01*
X002247Y013210D01*
X002270Y013209D01*
Y013091D01*
X002247Y013089D01*
X002222Y013084D01*
X002197Y013076D01*
X002171Y013065D01*
X002144Y013050D01*
X002116Y013032D01*
X002088Y013011D01*
X002058Y012987D01*
X001997Y012929D01*
Y013370D01*
X002028Y013339D01*
D02*
G37*
G36*
X028833Y012004D02*
X028842Y011996D01*
X028851Y011990D01*
X028861Y011984D01*
X028870Y011979D01*
X028880Y011975D01*
X028890Y011972D01*
X028901Y011970D01*
X028911Y011969D01*
X028922Y011968D01*
Y011890D01*
X028911Y011889D01*
X028901Y011888D01*
X028890Y011886D01*
X028880Y011883D01*
X028870Y011879D01*
X028861Y011874D01*
X028851Y011869D01*
X028842Y011862D01*
X028833Y011855D01*
X028825Y011846D01*
Y012012D01*
X028833Y012004D01*
D02*
G37*
G36*
X015196Y011654D02*
X015184Y011653D01*
X015172Y011652D01*
X015161Y011650D01*
X015151Y011648D01*
X015140Y011644D01*
X015131Y011640D01*
X015121Y011635D01*
X015112Y011629D01*
X015104Y011622D01*
X015096Y011615D01*
X015040Y011671D01*
X015048Y011679D01*
X015054Y011687D01*
X015060Y011696D01*
X015065Y011705D01*
X015069Y011715D01*
X015073Y011725D01*
X015076Y011736D01*
X015077Y011747D01*
X015078Y011759D01*
X015079Y011770D01*
X015196Y011654D01*
D02*
G37*
G36*
X038709Y011378D02*
X038700Y011378D01*
X038691Y011376D01*
X038682Y011374D01*
X038673Y011371D01*
X038664Y011368D01*
X038655Y011363D01*
X038646Y011357D01*
X038637Y011351D01*
X038628Y011343D01*
X038619Y011335D01*
X038550Y011405D01*
X038558Y011414D01*
X038565Y011422D01*
X038572Y011431D01*
X038577Y011440D01*
X038582Y011449D01*
X038586Y011458D01*
X038589Y011467D01*
X038591Y011476D01*
X038592Y011486D01*
X038593Y011495D01*
X038709Y011378D01*
D02*
G37*
G36*
X025471Y011260D02*
X025459Y011260D01*
X025448Y011258D01*
X025437Y011257D01*
X025426Y011254D01*
X025416Y011251D01*
X025406Y011246D01*
X025397Y011241D01*
X025388Y011235D01*
X025379Y011229D01*
X025371Y011221D01*
X025316Y011277D01*
X025323Y011285D01*
X025330Y011293D01*
X025336Y011302D01*
X025341Y011312D01*
X025345Y011321D01*
X025348Y011332D01*
X025351Y011342D01*
X025353Y011353D01*
X025354Y011365D01*
X025354Y011377D01*
X025471Y011260D01*
D02*
G37*
G36*
X035906Y011249D02*
X035907Y011240D01*
X035909Y011231D01*
X035912Y011222D01*
X035916Y011213D01*
X035921Y011204D01*
X035926Y011195D01*
X035933Y011186D01*
X035940Y011177D01*
X035948Y011169D01*
X035879Y011099D01*
X035870Y011107D01*
X035861Y011115D01*
X035852Y011121D01*
X035843Y011127D01*
X035835Y011131D01*
X035825Y011135D01*
X035816Y011138D01*
X035807Y011140D01*
X035798Y011141D01*
X035789Y011142D01*
X035906Y011259D01*
X035906Y011249D01*
D02*
G37*
G36*
X027323Y011207D02*
X027324Y011196D01*
X027326Y011185D01*
X027329Y011174D01*
X027332Y011164D01*
X027336Y011154D01*
X027341Y011145D01*
X027347Y011136D01*
X027354Y011128D01*
X027361Y011119D01*
X027306Y011064D01*
X027298Y011071D01*
X027289Y011078D01*
X027280Y011084D01*
X027271Y011089D01*
X027261Y011093D01*
X027251Y011096D01*
X027240Y011099D01*
X027229Y011101D01*
X027218Y011102D01*
X027206Y011102D01*
X027323Y011219D01*
X027323Y011207D01*
D02*
G37*
G36*
X030665Y011009D02*
X030658Y011001D01*
X030651Y010991D01*
X030646Y010982D01*
X030641Y010972D01*
X030637Y010962D01*
X030634Y010952D01*
X030632Y010942D01*
X030630Y010931D01*
X030630Y010920D01*
X030551D01*
X030551Y010931D01*
X030549Y010942D01*
X030547Y010952D01*
X030544Y010962D01*
X030540Y010972D01*
X030536Y010982D01*
X030530Y010991D01*
X030523Y011001D01*
X030516Y011009D01*
X030508Y011018D01*
X030673D01*
X030665Y011009D01*
D02*
G37*
G36*
X028616Y010902D02*
X028608Y010910D01*
X028599Y010917D01*
X028590Y010924D01*
X028580Y010929D01*
X028571Y010934D01*
X028561Y010938D01*
X028551Y010941D01*
X028540Y010943D01*
X028530Y010944D01*
X028519Y010945D01*
Y011024D01*
X028530Y011024D01*
X028540Y011025D01*
X028551Y011028D01*
X028561Y011031D01*
X028571Y011034D01*
X028580Y011039D01*
X028590Y011045D01*
X028599Y011051D01*
X028608Y011059D01*
X028616Y011067D01*
Y010902D01*
D02*
G37*
G36*
X015315Y010774D02*
X015316Y010763D01*
X015318Y010752D01*
X015321Y010741D01*
X015324Y010731D01*
X015329Y010721D01*
X015334Y010712D01*
X015339Y010703D01*
X015346Y010694D01*
X015354Y010686D01*
X015298Y010631D01*
X015290Y010638D01*
X015281Y010645D01*
X015272Y010651D01*
X015263Y010656D01*
X015253Y010660D01*
X015243Y010663D01*
X015232Y010666D01*
X015221Y010668D01*
X015210Y010669D01*
X015198Y010669D01*
X015315Y010786D01*
X015315Y010774D01*
D02*
G37*
G36*
X026058Y010783D02*
X026066Y010776D01*
X026076Y010769D01*
X026085Y010764D01*
X026095Y010759D01*
X026105Y010755D01*
X026115Y010752D01*
X026125Y010750D01*
X026136Y010748D01*
X026147Y010748D01*
Y010669D01*
X026136Y010669D01*
X026125Y010668D01*
X026115Y010665D01*
X026105Y010662D01*
X026095Y010658D01*
X026085Y010654D01*
X026076Y010648D01*
X026066Y010642D01*
X026058Y010634D01*
X026049Y010626D01*
Y010791D01*
X026058Y010783D01*
D02*
G37*
G36*
X039710Y010582D02*
X039719Y010576D01*
X039728Y010570D01*
X039737Y010565D01*
X039747Y010561D01*
X039757Y010557D01*
X039768Y010554D01*
X039779Y010553D01*
X039790Y010551D01*
X039802Y010551D01*
X039685Y010434D01*
X039685Y010446D01*
X039684Y010458D01*
X039682Y010469D01*
X039679Y010479D01*
X039676Y010490D01*
X039671Y010499D01*
X039666Y010509D01*
X039661Y010518D01*
X039654Y010526D01*
X039646Y010534D01*
X039702Y010590D01*
X039710Y010582D01*
D02*
G37*
G36*
X039327Y010586D02*
X039336Y010578D01*
X039344Y010572D01*
X039353Y010566D01*
X039362Y010562D01*
X039371Y010558D01*
X039380Y010555D01*
X039390Y010553D01*
X039399Y010552D01*
X039408Y010551D01*
X039291Y010434D01*
X039291Y010444D01*
X039290Y010453D01*
X039288Y010462D01*
X039285Y010471D01*
X039281Y010480D01*
X039276Y010489D01*
X039271Y010498D01*
X039264Y010507D01*
X039257Y010516D01*
X039249Y010524D01*
X039318Y010594D01*
X039327Y010586D01*
D02*
G37*
G36*
X039878Y010340D02*
X039870Y010331D01*
X039864Y010322D01*
X039858Y010313D01*
X039853Y010303D01*
X039849Y010293D01*
X039846Y010283D01*
X039844Y010273D01*
X039843Y010262D01*
X039843Y010251D01*
X039764D01*
X039763Y010262D01*
X039762Y010273D01*
X039760Y010283D01*
X039757Y010293D01*
X039753Y010303D01*
X039748Y010313D01*
X039743Y010322D01*
X039736Y010331D01*
X039729Y010340D01*
X039720Y010349D01*
X039886D01*
X039878Y010340D01*
D02*
G37*
G36*
X039484D02*
X039477Y010331D01*
X039470Y010322D01*
X039464Y010313D01*
X039460Y010303D01*
X039456Y010293D01*
X039453Y010283D01*
X039451Y010273D01*
X039449Y010262D01*
X039449Y010251D01*
X039370D01*
X039370Y010262D01*
X039368Y010273D01*
X039366Y010283D01*
X039363Y010293D01*
X039359Y010303D01*
X039354Y010313D01*
X039349Y010322D01*
X039342Y010331D01*
X039335Y010340D01*
X039327Y010349D01*
X039492D01*
X039484Y010340D01*
D02*
G37*
G36*
X026728Y010065D02*
X026721Y010056D01*
X026714Y010046D01*
X026709Y010037D01*
X026704Y010027D01*
X026700Y010018D01*
X026697Y010007D01*
X026695Y009997D01*
X026693Y009986D01*
X026693Y009975D01*
X026614D01*
X026614Y009986D01*
X026612Y009997D01*
X026610Y010007D01*
X026607Y010018D01*
X026603Y010027D01*
X026599Y010037D01*
X026593Y010046D01*
X026586Y010056D01*
X026579Y010065D01*
X026571Y010073D01*
X026736D01*
X026728Y010065D01*
D02*
G37*
G36*
X033665Y010052D02*
X033657Y010043D01*
X033649Y010034D01*
X033643Y010026D01*
X033637Y010017D01*
X033632Y010008D01*
X033629Y009999D01*
X033626Y009990D01*
X033624Y009980D01*
X033622Y009971D01*
X033622Y009962D01*
X033505Y010079D01*
X033514Y010079D01*
X033524Y010080D01*
X033533Y010082D01*
X033542Y010085D01*
X033551Y010089D01*
X033560Y010094D01*
X033569Y010099D01*
X033578Y010106D01*
X033586Y010113D01*
X033595Y010121D01*
X033665Y010052D01*
D02*
G37*
G36*
X031968Y010062D02*
X031960Y010054D01*
X031954Y010045D01*
X031948Y010036D01*
X031943Y010027D01*
X031938Y010017D01*
X031935Y010007D01*
X031932Y009996D01*
X031930Y009985D01*
X031929Y009974D01*
X031929Y009962D01*
X031812Y010079D01*
X031824Y010079D01*
X031836Y010080D01*
X031847Y010082D01*
X031857Y010085D01*
X031867Y010088D01*
X031877Y010092D01*
X031887Y010097D01*
X031895Y010103D01*
X031904Y010110D01*
X031912Y010117D01*
X031968Y010062D01*
D02*
G37*
G36*
X029292Y009987D02*
X029293Y009975D01*
X029295Y009964D01*
X029297Y009954D01*
X029301Y009944D01*
X029305Y009934D01*
X029310Y009924D01*
X029316Y009916D01*
X029322Y009907D01*
X029330Y009899D01*
X029274Y009843D01*
X029266Y009851D01*
X029258Y009857D01*
X029249Y009863D01*
X029239Y009868D01*
X029230Y009873D01*
X029219Y009876D01*
X029209Y009879D01*
X029198Y009881D01*
X029186Y009882D01*
X029174Y009882D01*
X029291Y009999D01*
X029292Y009987D01*
D02*
G37*
G36*
X037357Y009774D02*
X037348Y009782D01*
X037339Y009789D01*
X037330Y009796D01*
X037321Y009801D01*
X037311Y009806D01*
X037301Y009810D01*
X037291Y009813D01*
X037280Y009815D01*
X037270Y009816D01*
X037259Y009817D01*
Y009896D01*
X037270Y009896D01*
X037280Y009897D01*
X037291Y009900D01*
X037301Y009903D01*
X037311Y009906D01*
X037321Y009911D01*
X037330Y009917D01*
X037339Y009923D01*
X037348Y009931D01*
X037357Y009939D01*
Y009774D01*
D02*
G37*
G36*
X035880Y009931D02*
X035889Y009923D01*
X035898Y009917D01*
X035908Y009911D01*
X035917Y009906D01*
X035927Y009903D01*
X035938Y009900D01*
X035948Y009897D01*
X035959Y009896D01*
X035970Y009896D01*
Y009817D01*
X035959Y009816D01*
X035948Y009815D01*
X035938Y009813D01*
X035927Y009810D01*
X035917Y009806D01*
X035908Y009801D01*
X035898Y009796D01*
X035889Y009789D01*
X035880Y009782D01*
X035872Y009774D01*
Y009939D01*
X035880Y009931D01*
D02*
G37*
G36*
X028977Y009778D02*
X028978Y009767D01*
X028980Y009756D01*
X028983Y009746D01*
X028987Y009736D01*
X028992Y009727D01*
X028998Y009717D01*
X029004Y009708D01*
X029011Y009699D01*
X029020Y009691D01*
X028854Y009691D01*
X028863Y009699D01*
X028870Y009708D01*
X028876Y009717D01*
X028882Y009727D01*
X028887Y009736D01*
X028891Y009746D01*
X028894Y009756D01*
X028896Y009767D01*
X028897Y009778D01*
X028898Y009789D01*
X028976Y009789D01*
X028977Y009778D01*
D02*
G37*
G36*
X015196Y009710D02*
X015189Y009701D01*
X015183Y009692D01*
X015177Y009683D01*
X015172Y009673D01*
X015168Y009663D01*
X015165Y009653D01*
X015163Y009643D01*
X015162Y009632D01*
X015161Y009621D01*
X015083D01*
X015082Y009632D01*
X015081Y009643D01*
X015079Y009653D01*
X015076Y009663D01*
X015072Y009673D01*
X015067Y009683D01*
X015061Y009692D01*
X015055Y009701D01*
X015048Y009710D01*
X015039Y009719D01*
X015205D01*
X015196Y009710D01*
D02*
G37*
G36*
X019443Y009602D02*
X019435Y009611D01*
X019426Y009618D01*
X019417Y009624D01*
X019407Y009630D01*
X019398Y009635D01*
X019388Y009639D01*
X019377Y009642D01*
X019367Y009644D01*
X019356Y009645D01*
X019345Y009646D01*
X019345Y009724D01*
X019356Y009725D01*
X019367Y009726D01*
X019377Y009728D01*
X019388Y009731D01*
X019398Y009735D01*
X019407Y009740D01*
X019417Y009746D01*
X019426Y009752D01*
X019435Y009759D01*
X019443Y009768D01*
X019443Y009602D01*
D02*
G37*
G36*
X024069Y009641D02*
X024078Y009634D01*
X024087Y009628D01*
X024097Y009622D01*
X024106Y009617D01*
X024116Y009613D01*
X024127Y009610D01*
X024137Y009608D01*
X024148Y009607D01*
X024159Y009606D01*
Y009528D01*
X024148Y009527D01*
X024137Y009526D01*
X024127Y009524D01*
X024116Y009521D01*
X024106Y009517D01*
X024097Y009512D01*
X024087Y009506D01*
X024078Y009500D01*
X024069Y009492D01*
X024061Y009484D01*
Y009650D01*
X024069Y009641D01*
D02*
G37*
G36*
X019195Y009311D02*
X019187Y009319D01*
X019178Y009327D01*
X019169Y009333D01*
X019159Y009339D01*
X019149Y009343D01*
X019140Y009347D01*
X019129Y009350D01*
X019119Y009353D01*
X019108Y009354D01*
X019097Y009354D01*
Y009433D01*
X019108Y009433D01*
X019119Y009435D01*
X019129Y009437D01*
X019140Y009440D01*
X019149Y009444D01*
X019159Y009449D01*
X019169Y009454D01*
X019178Y009461D01*
X019187Y009468D01*
X019195Y009476D01*
Y009311D01*
D02*
G37*
G36*
X026693Y009384D02*
X026695Y009373D01*
X026697Y009363D01*
X026700Y009353D01*
X026704Y009343D01*
X026709Y009333D01*
X026714Y009324D01*
X026721Y009314D01*
X026728Y009306D01*
X026736Y009297D01*
X026571D01*
X026579Y009306D01*
X026586Y009314D01*
X026593Y009324D01*
X026599Y009333D01*
X026603Y009343D01*
X026607Y009353D01*
X026610Y009363D01*
X026612Y009373D01*
X026614Y009384D01*
X026614Y009395D01*
X026693D01*
X026693Y009384D01*
D02*
G37*
G36*
X025379Y009322D02*
X025388Y009316D01*
X025397Y009310D01*
X025406Y009305D01*
X025416Y009301D01*
X025426Y009297D01*
X025437Y009295D01*
X025448Y009293D01*
X025459Y009292D01*
X025471Y009291D01*
X025354Y009174D01*
X025354Y009186D01*
X025353Y009198D01*
X025351Y009209D01*
X025348Y009219D01*
X025345Y009230D01*
X025341Y009239D01*
X025336Y009249D01*
X025330Y009258D01*
X025323Y009266D01*
X025316Y009274D01*
X025371Y009330D01*
X025379Y009322D01*
D02*
G37*
G36*
X018947Y009020D02*
X018939Y009028D01*
X018930Y009035D01*
X018921Y009042D01*
X018911Y009047D01*
X018901Y009052D01*
X018892Y009056D01*
X018881Y009059D01*
X018871Y009061D01*
X018860Y009063D01*
X018849Y009063D01*
Y009142D01*
X018860Y009142D01*
X018871Y009143D01*
X018881Y009146D01*
X018892Y009149D01*
X018901Y009153D01*
X018911Y009157D01*
X018921Y009163D01*
X018930Y009169D01*
X018939Y009177D01*
X018947Y009185D01*
Y009020D01*
D02*
G37*
G36*
X007164Y009055D02*
X007157Y009055D01*
X007150Y009053D01*
X007143Y009051D01*
X007136Y009048D01*
X007128Y009044D01*
X007120Y009039D01*
X007111Y009033D01*
X007103Y009026D01*
X007085Y009009D01*
X007001Y009093D01*
X007010Y009102D01*
X007025Y009119D01*
X007031Y009128D01*
X007036Y009136D01*
X007040Y009143D01*
X007043Y009151D01*
X007046Y009158D01*
X007047Y009165D01*
X007047Y009172D01*
X007164Y009055D01*
D02*
G37*
G36*
X002048Y009371D02*
X002100Y009316D01*
X002125Y009294D01*
X002151Y009275D01*
X002176Y009260D01*
X002201Y009248D01*
X002226Y009239D01*
X002250Y009234D01*
X002275Y009232D01*
X002260Y009114D01*
X002238Y009113D01*
X002214Y009108D01*
X002189Y009101D01*
X002163Y009090D01*
X002134Y009077D01*
X002104Y009061D01*
X002039Y009019D01*
X002004Y008994D01*
X001967Y008966D01*
X002022Y009403D01*
X002048Y009371D01*
D02*
G37*
G36*
X018699Y008728D02*
X018690Y008737D01*
X018682Y008744D01*
X018672Y008750D01*
X018663Y008756D01*
X018653Y008761D01*
X018643Y008765D01*
X018633Y008768D01*
X018623Y008770D01*
X018612Y008771D01*
X018601Y008772D01*
Y008850D01*
X018612Y008851D01*
X018623Y008852D01*
X018633Y008854D01*
X018643Y008857D01*
X018653Y008861D01*
X018663Y008866D01*
X018672Y008872D01*
X018682Y008878D01*
X018690Y008885D01*
X018699Y008894D01*
Y008728D01*
D02*
G37*
G36*
X018451Y008437D02*
X018442Y008445D01*
X018434Y008453D01*
X018424Y008459D01*
X018415Y008465D01*
X018405Y008469D01*
X018395Y008473D01*
X018385Y008476D01*
X018375Y008479D01*
X018364Y008480D01*
X018353Y008480D01*
Y008559D01*
X018364Y008559D01*
X018375Y008561D01*
X018385Y008563D01*
X018395Y008566D01*
X018405Y008570D01*
X018415Y008575D01*
X018424Y008580D01*
X018434Y008587D01*
X018442Y008594D01*
X018451Y008602D01*
Y008437D01*
D02*
G37*
G36*
X018203Y008146D02*
X018194Y008154D01*
X018186Y008161D01*
X018176Y008168D01*
X018167Y008173D01*
X018157Y008178D01*
X018147Y008182D01*
X018137Y008185D01*
X018127Y008187D01*
X018116Y008189D01*
X018105Y008189D01*
Y008268D01*
X018116Y008268D01*
X018127Y008269D01*
X018137Y008272D01*
X018147Y008275D01*
X018157Y008279D01*
X018167Y008283D01*
X018176Y008289D01*
X018186Y008295D01*
X018194Y008303D01*
X018203Y008311D01*
Y008146D01*
D02*
G37*
G36*
X007081Y008067D02*
X007076Y008071D01*
X007070Y008075D01*
X007063Y008079D01*
X007056Y008082D01*
X007047Y008085D01*
X007038Y008087D01*
X007028Y008088D01*
X007017Y008090D01*
X006992Y008091D01*
Y008209D01*
X007005Y008209D01*
X007028Y008211D01*
X007038Y008212D01*
X007047Y008215D01*
X007056Y008217D01*
X007063Y008220D01*
X007070Y008224D01*
X007076Y008228D01*
X007081Y008232D01*
Y008067D01*
D02*
G37*
G36*
X002028Y008418D02*
X002088Y008367D01*
X002116Y008346D01*
X002144Y008328D01*
X002171Y008313D01*
X002197Y008302D01*
X002222Y008294D01*
X002247Y008289D01*
X002270Y008287D01*
Y008169D01*
X002247Y008168D01*
X002222Y008163D01*
X002197Y008155D01*
X002171Y008143D01*
X002144Y008129D01*
X002116Y008111D01*
X002088Y008090D01*
X002058Y008066D01*
X001997Y008008D01*
X001997Y008449D01*
X002028Y008418D01*
D02*
G37*
G36*
X028243Y008067D02*
X028251Y008059D01*
X028261Y008053D01*
X028270Y008047D01*
X028280Y008042D01*
X028290Y008038D01*
X028300Y008035D01*
X028310Y008033D01*
X028321Y008032D01*
X028332Y008031D01*
Y007953D01*
X028321Y007952D01*
X028310Y007951D01*
X028300Y007949D01*
X028290Y007946D01*
X028280Y007942D01*
X028270Y007937D01*
X028261Y007932D01*
X028251Y007925D01*
X028243Y007918D01*
X028234Y007909D01*
Y008075D01*
X028243Y008067D01*
D02*
G37*
G36*
X017955Y007854D02*
X017946Y007863D01*
X017938Y007870D01*
X017928Y007876D01*
X017919Y007882D01*
X017909Y007887D01*
X017899Y007891D01*
X017889Y007894D01*
X017879Y007896D01*
X017868Y007897D01*
X017857Y007898D01*
Y007976D01*
X017868Y007977D01*
X017879Y007978D01*
X017889Y007980D01*
X017899Y007983D01*
X017909Y007987D01*
X017919Y007992D01*
X017928Y007998D01*
X017938Y008004D01*
X017946Y008011D01*
X017955Y008020D01*
Y007854D01*
D02*
G37*
G36*
X017707Y007563D02*
X017698Y007571D01*
X017689Y007579D01*
X017680Y007585D01*
X017671Y007591D01*
X017661Y007595D01*
X017651Y007599D01*
X017641Y007602D01*
X017631Y007605D01*
X017620Y007606D01*
X017609Y007606D01*
Y007685D01*
X017620Y007685D01*
X017631Y007687D01*
X017641Y007689D01*
X017651Y007692D01*
X017661Y007696D01*
X017671Y007701D01*
X017680Y007706D01*
X017689Y007713D01*
X017698Y007720D01*
X017707Y007728D01*
Y007563D01*
D02*
G37*
G36*
X017459Y007272D02*
X017450Y007280D01*
X017441Y007287D01*
X017432Y007294D01*
X017423Y007299D01*
X017413Y007304D01*
X017403Y007308D01*
X017393Y007311D01*
X017383Y007313D01*
X017372Y007315D01*
X017361Y007315D01*
Y007394D01*
X017372Y007394D01*
X017383Y007395D01*
X017393Y007398D01*
X017403Y007401D01*
X017413Y007405D01*
X017423Y007409D01*
X017432Y007415D01*
X017441Y007421D01*
X017450Y007429D01*
X017459Y007437D01*
Y007272D01*
D02*
G37*
G36*
X017182Y007029D02*
X017179Y007038D01*
X017174Y007047D01*
X017169Y007054D01*
X017163Y007061D01*
X017156Y007066D01*
X017148Y007071D01*
X017139Y007074D01*
X017129Y007076D01*
X017119Y007078D01*
X017107Y007078D01*
X017120Y007157D01*
X017137Y007157D01*
X017198Y007161D01*
X017211Y007163D01*
X017235Y007168D01*
X017246Y007171D01*
X017256Y007174D01*
X017182Y007029D01*
D02*
G37*
G36*
X002028Y007434D02*
X002088Y007382D01*
X002116Y007361D01*
X002144Y007344D01*
X002171Y007329D01*
X002197Y007318D01*
X002222Y007310D01*
X002247Y007305D01*
X002270Y007303D01*
Y007185D01*
X002247Y007183D01*
X002222Y007179D01*
X002197Y007171D01*
X002171Y007159D01*
X002144Y007145D01*
X002116Y007127D01*
X002088Y007106D01*
X002058Y007082D01*
X001997Y007024D01*
X001997Y007465D01*
X002028Y007434D01*
D02*
G37*
G36*
X008826Y007006D02*
X008844Y006991D01*
X008852Y006985D01*
X008860Y006980D01*
X008868Y006976D01*
X008875Y006973D01*
X008883Y006970D01*
X008890Y006969D01*
X008896Y006969D01*
X008780Y006852D01*
X008779Y006858D01*
X008778Y006865D01*
X008776Y006873D01*
X008772Y006880D01*
X008768Y006888D01*
X008763Y006896D01*
X008757Y006904D01*
X008750Y006913D01*
X008733Y006931D01*
X008817Y007015D01*
X008826Y007006D01*
D02*
G37*
G36*
X016954Y006921D02*
X016963Y006914D01*
X016972Y006908D01*
X016981Y006903D01*
X016991Y006899D01*
X017001Y006896D01*
X017012Y006893D01*
X017023Y006891D01*
X017034Y006890D01*
X017046Y006890D01*
X016929Y006773D01*
X016929Y006785D01*
X016928Y006796D01*
X016926Y006807D01*
X016923Y006818D01*
X016920Y006828D01*
X016916Y006838D01*
X016910Y006847D01*
X016905Y006856D01*
X016898Y006865D01*
X016891Y006873D01*
X016946Y006928D01*
X016954Y006921D01*
D02*
G37*
G36*
X002028Y006450D02*
X002088Y006398D01*
X002116Y006377D01*
X002144Y006359D01*
X002171Y006345D01*
X002197Y006333D01*
X002222Y006325D01*
X002247Y006321D01*
X002270Y006319D01*
Y006201D01*
X002247Y006199D01*
X002222Y006194D01*
X002197Y006186D01*
X002171Y006175D01*
X002144Y006160D01*
X002116Y006143D01*
X002088Y006122D01*
X002058Y006097D01*
X001997Y006039D01*
X001997Y006480D01*
X002028Y006450D01*
D02*
G37*
G36*
X002021Y005473D02*
X002045Y005452D01*
X002071Y005434D01*
X002096Y005418D01*
X002122Y005405D01*
X002149Y005394D01*
X002176Y005385D01*
X002203Y005379D01*
X002231Y005375D01*
X002260Y005374D01*
Y005177D01*
X002231Y005176D01*
X002203Y005172D01*
X002176Y005166D01*
X002149Y005158D01*
X002122Y005147D01*
X002096Y005133D01*
X002071Y005117D01*
X002045Y005099D01*
X002021Y005078D01*
X001997Y005055D01*
X001997Y005496D01*
X002021Y005473D01*
D02*
G37*
G36*
X008853Y004799D02*
X008848Y004804D01*
X008842Y004808D01*
X008835Y004811D01*
X008827Y004814D01*
X008819Y004817D01*
X008810Y004819D01*
X008799Y004821D01*
X008788Y004822D01*
X008764Y004823D01*
Y004941D01*
X008777Y004941D01*
X008799Y004943D01*
X008810Y004945D01*
X008819Y004947D01*
X008827Y004949D01*
X008835Y004953D01*
X008842Y004956D01*
X008848Y004960D01*
X008853Y004965D01*
Y004799D01*
D02*
G37*
G36*
X008996Y004019D02*
X008998Y003996D01*
X009000Y003986D01*
X009002Y003976D01*
X009005Y003968D01*
X009008Y003960D01*
X009011Y003954D01*
X009015Y003948D01*
X009020Y003943D01*
X008854D01*
X008859Y003948D01*
X008863Y003954D01*
X008866Y003960D01*
X008869Y003968D01*
X008872Y003976D01*
X008874Y003986D01*
X008876Y003996D01*
X008877Y004007D01*
X008878Y004031D01*
X008996D01*
X008996Y004019D01*
D02*
G37*
G36*
X022061Y001019D02*
X022070Y001012D01*
X022079Y001005D01*
X022089Y001000D01*
X022099Y000995D01*
X022108Y000991D01*
X022119Y000988D01*
X022129Y000986D01*
X022140Y000985D01*
X022151Y000984D01*
Y000906D01*
X022140Y000905D01*
X022129Y000904D01*
X022119Y000902D01*
X022108Y000899D01*
X022099Y000895D01*
X022089Y000890D01*
X022079Y000884D01*
X022070Y000878D01*
X022061Y000870D01*
X022053Y000862D01*
Y001028D01*
X022061Y001019D01*
D02*
G37*
G36*
X019778Y000744D02*
X019787Y000736D01*
X019796Y000730D01*
X019805Y000724D01*
X019815Y000719D01*
X019825Y000716D01*
X019835Y000713D01*
X019846Y000710D01*
X019856Y000709D01*
X019867Y000709D01*
Y000630D01*
X019856Y000629D01*
X019846Y000628D01*
X019835Y000626D01*
X019825Y000623D01*
X019815Y000619D01*
X019805Y000614D01*
X019796Y000609D01*
X019787Y000602D01*
X019778Y000595D01*
X019769Y000587D01*
Y000752D01*
X019778Y000744D01*
D02*
G37*
%LPC*%
G36*
X005807Y030055D02*
X005769Y030049D01*
X005678Y030012D01*
X005599Y029952D01*
X005539Y029874D01*
X005502Y029783D01*
X005497Y029744D01*
X005807D01*
Y030055D01*
D02*
G37*
G36*
Y029626D02*
X005497D01*
X005502Y029587D01*
X005539Y029496D01*
X005599Y029418D01*
X005678Y029358D01*
X005769Y029321D01*
X005807Y029316D01*
Y029626D01*
D02*
G37*
G36*
X002067Y027004D02*
Y026634D01*
X002437D01*
X002430Y026688D01*
X002386Y026793D01*
X002317Y026884D01*
X002226Y026953D01*
X002121Y026997D01*
X002067Y027004D01*
D02*
G37*
G36*
X001949D02*
X001895Y026997D01*
X001789Y026953D01*
X001699Y026884D01*
X001630Y026793D01*
X001586Y026688D01*
X001579Y026634D01*
X001949D01*
Y027004D01*
D02*
G37*
G36*
X002437Y026516D02*
X002008D01*
X001579D01*
X001586Y026462D01*
X001630Y026356D01*
X001699Y026266D01*
X001789Y026197D01*
X001865Y026165D01*
X001874Y026114D01*
X001868Y026049D01*
X001866Y026043D01*
X001770Y026003D01*
X001671Y025928D01*
X001595Y025829D01*
X001548Y025714D01*
X001531Y025591D01*
X001548Y025467D01*
X001595Y025352D01*
X001671Y025254D01*
X001770Y025178D01*
X001885Y025130D01*
X002008Y025114D01*
X002131Y025130D01*
X002246Y025178D01*
X002345Y025254D01*
X002421Y025352D01*
X002468Y025467D01*
X002484Y025591D01*
X002468Y025714D01*
X002421Y025829D01*
X002345Y025928D01*
X002246Y026003D01*
X002149Y026043D01*
X002148Y026049D01*
X002142Y026114D01*
X002151Y026165D01*
X002226Y026197D01*
X002317Y026266D01*
X002386Y026356D01*
X002430Y026462D01*
X002437Y026516D01*
D02*
G37*
G36*
X002201Y012106D02*
X001831D01*
Y011736D01*
X001885Y011743D01*
X001990Y011787D01*
X002081Y011856D01*
X002150Y011947D01*
X002194Y012052D01*
X002201Y012106D01*
D02*
G37*
G36*
X001713D02*
X001343D01*
X001350Y012052D01*
X001393Y011947D01*
X001463Y011856D01*
X001553Y011787D01*
X001659Y011743D01*
X001713Y011736D01*
Y012106D01*
D02*
G37*
G36*
X005744Y011437D02*
X005315D01*
X004886D01*
X004893Y011383D01*
X004937Y011278D01*
X005006Y011187D01*
X005097Y011118D01*
X005172Y011087D01*
X005181Y011035D01*
X005175Y010971D01*
X005173Y010965D01*
X005077Y010924D01*
X004978Y010849D01*
X004902Y010750D01*
X004855Y010635D01*
X004838Y010512D01*
X004855Y010388D01*
X004902Y010274D01*
X004978Y010175D01*
X005077Y010099D01*
X005173Y010059D01*
X005175Y010053D01*
X005181Y009989D01*
X005172Y009937D01*
X005097Y009906D01*
X005006Y009836D01*
X004937Y009746D01*
X004893Y009641D01*
X004886Y009587D01*
X005315D01*
X005744D01*
X005737Y009641D01*
X005693Y009746D01*
X005624Y009836D01*
X005533Y009906D01*
X005458Y009937D01*
X005449Y009989D01*
X005455Y010053D01*
X005456Y010059D01*
X005553Y010099D01*
X005652Y010175D01*
X005728Y010274D01*
X005775Y010388D01*
X005791Y010512D01*
X005775Y010635D01*
X005728Y010750D01*
X005652Y010849D01*
X005553Y010924D01*
X005456Y010965D01*
X005455Y010971D01*
X005449Y011035D01*
X005458Y011087D01*
X005533Y011118D01*
X005624Y011187D01*
X005693Y011278D01*
X005737Y011383D01*
X005744Y011437D01*
D02*
G37*
G36*
Y009469D02*
X005374D01*
Y009099D01*
X005428Y009106D01*
X005533Y009149D01*
X005624Y009219D01*
X005693Y009309D01*
X005737Y009415D01*
X005744Y009469D01*
D02*
G37*
G36*
X005256D02*
X004886D01*
X004893Y009415D01*
X004937Y009309D01*
X005006Y009219D01*
X005097Y009149D01*
X005202Y009106D01*
X005256Y009099D01*
Y009469D01*
D02*
G37*
G36*
X045118Y030675D02*
X045011Y030653D01*
X044919Y030592D01*
X044859Y030501D01*
X044837Y030394D01*
X044859Y030286D01*
X044919Y030195D01*
X045011Y030134D01*
X045118Y030113D01*
X045226Y030134D01*
X045317Y030195D01*
X045378Y030286D01*
X045399Y030394D01*
X045378Y030501D01*
X045317Y030592D01*
X045226Y030653D01*
X045118Y030675D01*
D02*
G37*
G36*
X038150Y030675D02*
X038042Y030653D01*
X037951Y030592D01*
X037890Y030501D01*
X037869Y030394D01*
X037890Y030286D01*
X037951Y030195D01*
X038042Y030134D01*
X038150Y030113D01*
X038257Y030134D01*
X038348Y030195D01*
X038409Y030286D01*
X038431Y030394D01*
X038409Y030501D01*
X038348Y030592D01*
X038257Y030653D01*
X038150Y030675D01*
D02*
G37*
G36*
X015335Y030150D02*
Y029980D01*
X015505D01*
X015498Y030013D01*
X015446Y030092D01*
X015368Y030144D01*
X015335Y030150D01*
D02*
G37*
G36*
X015217D02*
X015183Y030144D01*
X015105Y030092D01*
X015053Y030013D01*
X015046Y029980D01*
X015217D01*
Y030150D01*
D02*
G37*
G36*
X014547D02*
Y029980D01*
X014717D01*
X014711Y030013D01*
X014658Y030092D01*
X014580Y030144D01*
X014547Y030150D01*
D02*
G37*
G36*
X014429D02*
X014396Y030144D01*
X014318Y030092D01*
X014266Y030013D01*
X014259Y029980D01*
X014429D01*
Y030150D01*
D02*
G37*
G36*
X013760D02*
Y029980D01*
X013930D01*
X013923Y030013D01*
X013871Y030092D01*
X013793Y030144D01*
X013760Y030150D01*
D02*
G37*
G36*
X013642D02*
X013609Y030144D01*
X013530Y030092D01*
X013478Y030013D01*
X013472Y029980D01*
X013642D01*
Y030150D01*
D02*
G37*
G36*
X015505Y029862D02*
X015335D01*
Y029692D01*
X015368Y029699D01*
X015446Y029751D01*
X015498Y029829D01*
X015505Y029862D01*
D02*
G37*
G36*
X015217D02*
X015046D01*
X015053Y029829D01*
X015105Y029751D01*
X015183Y029699D01*
X015217Y029692D01*
Y029862D01*
D02*
G37*
G36*
X014717D02*
X014547D01*
Y029692D01*
X014580Y029699D01*
X014658Y029751D01*
X014711Y029829D01*
X014717Y029862D01*
D02*
G37*
G36*
X014429D02*
X014259D01*
X014266Y029829D01*
X014318Y029751D01*
X014396Y029699D01*
X014429Y029692D01*
Y029862D01*
D02*
G37*
G36*
X013930D02*
X013760D01*
Y029692D01*
X013793Y029699D01*
X013871Y029751D01*
X013923Y029829D01*
X013930Y029862D01*
D02*
G37*
G36*
X013642D02*
X013472D01*
X013478Y029829D01*
X013530Y029751D01*
X013609Y029699D01*
X013642Y029692D01*
Y029862D01*
D02*
G37*
G36*
X015335Y029363D02*
Y029193D01*
X015505D01*
X015498Y029226D01*
X015446Y029304D01*
X015368Y029356D01*
X015335Y029363D01*
D02*
G37*
G36*
X015217D02*
X015183Y029356D01*
X015105Y029304D01*
X015053Y029226D01*
X015046Y029193D01*
X015217D01*
Y029363D01*
D02*
G37*
G36*
X014547D02*
Y029193D01*
X014717D01*
X014711Y029226D01*
X014658Y029304D01*
X014580Y029356D01*
X014547Y029363D01*
D02*
G37*
G36*
X014429D02*
X014396Y029356D01*
X014318Y029304D01*
X014266Y029226D01*
X014259Y029193D01*
X014429D01*
Y029363D01*
D02*
G37*
G36*
X013760D02*
Y029193D01*
X013930D01*
X013923Y029226D01*
X013871Y029304D01*
X013793Y029356D01*
X013760Y029363D01*
D02*
G37*
G36*
X013642D02*
X013609Y029356D01*
X013530Y029304D01*
X013478Y029226D01*
X013472Y029193D01*
X013642D01*
Y029363D01*
D02*
G37*
G36*
X041614Y029612D02*
X041507Y029590D01*
X041415Y029529D01*
X041355Y029438D01*
X041333Y029331D01*
X041355Y029223D01*
X041415Y029132D01*
X041507Y029071D01*
X041614Y029050D01*
X041722Y029071D01*
X041813Y029132D01*
X041874Y029223D01*
X041895Y029331D01*
X041874Y029438D01*
X041813Y029529D01*
X041722Y029590D01*
X041614Y029612D01*
D02*
G37*
G36*
X040827D02*
X040719Y029590D01*
X040628Y029529D01*
X040567Y029438D01*
X040546Y029331D01*
X040567Y029223D01*
X040628Y029132D01*
X040719Y029071D01*
X040827Y029050D01*
X040934Y029071D01*
X041025Y029132D01*
X041086Y029223D01*
X041108Y029331D01*
X041086Y029438D01*
X041025Y029529D01*
X040934Y029590D01*
X040827Y029612D01*
D02*
G37*
G36*
X015505Y029075D02*
X015335D01*
Y028905D01*
X015368Y028911D01*
X015446Y028964D01*
X015498Y029042D01*
X015505Y029075D01*
D02*
G37*
G36*
X015217D02*
X015046D01*
X015053Y029042D01*
X015105Y028964D01*
X015183Y028911D01*
X015217Y028905D01*
Y029075D01*
D02*
G37*
G36*
X014717D02*
X014547D01*
Y028905D01*
X014580Y028911D01*
X014658Y028964D01*
X014711Y029042D01*
X014717Y029075D01*
D02*
G37*
G36*
X014429D02*
X014259D01*
X014266Y029042D01*
X014318Y028964D01*
X014396Y028911D01*
X014429Y028905D01*
Y029075D01*
D02*
G37*
G36*
X013930D02*
X013760D01*
Y028905D01*
X013793Y028911D01*
X013871Y028964D01*
X013923Y029042D01*
X013930Y029075D01*
D02*
G37*
G36*
X013642D02*
X013472D01*
X013478Y029042D01*
X013530Y028964D01*
X013609Y028911D01*
X013642Y028905D01*
Y029075D01*
D02*
G37*
G36*
X015335Y028576D02*
Y028406D01*
X015505D01*
X015498Y028439D01*
X015446Y028517D01*
X015368Y028569D01*
X015335Y028576D01*
D02*
G37*
G36*
X015217D02*
X015183Y028569D01*
X015105Y028517D01*
X015053Y028439D01*
X015046Y028406D01*
X015217D01*
Y028576D01*
D02*
G37*
G36*
X014547D02*
Y028406D01*
X014717D01*
X014711Y028439D01*
X014658Y028517D01*
X014580Y028569D01*
X014547Y028576D01*
D02*
G37*
G36*
X014429D02*
X014396Y028569D01*
X014318Y028517D01*
X014266Y028439D01*
X014259Y028406D01*
X014429D01*
Y028576D01*
D02*
G37*
G36*
X013760D02*
Y028406D01*
X013930D01*
X013923Y028439D01*
X013871Y028517D01*
X013793Y028569D01*
X013760Y028576D01*
D02*
G37*
G36*
X013642D02*
X013609Y028569D01*
X013530Y028517D01*
X013478Y028439D01*
X013472Y028406D01*
X013642D01*
Y028576D01*
D02*
G37*
G36*
X015505Y028287D02*
X015335D01*
Y028117D01*
X015368Y028124D01*
X015446Y028176D01*
X015498Y028254D01*
X015505Y028287D01*
D02*
G37*
G36*
X015217D02*
X015046D01*
X015053Y028254D01*
X015105Y028176D01*
X015183Y028124D01*
X015217Y028117D01*
Y028287D01*
D02*
G37*
G36*
X014717D02*
X014547D01*
Y028117D01*
X014580Y028124D01*
X014658Y028176D01*
X014711Y028254D01*
X014717Y028287D01*
D02*
G37*
G36*
X014429D02*
X014259D01*
X014266Y028254D01*
X014318Y028176D01*
X014396Y028124D01*
X014429Y028117D01*
Y028287D01*
D02*
G37*
G36*
X013930D02*
X013760D01*
Y028117D01*
X013793Y028124D01*
X013871Y028176D01*
X013923Y028254D01*
X013930Y028287D01*
D02*
G37*
G36*
X013642D02*
X013472D01*
X013478Y028254D01*
X013530Y028176D01*
X013609Y028124D01*
X013642Y028117D01*
Y028287D01*
D02*
G37*
G36*
X015335Y027788D02*
Y027618D01*
X015505D01*
X015498Y027651D01*
X015446Y027729D01*
X015368Y027782D01*
X015335Y027788D01*
D02*
G37*
G36*
X015217D02*
X015183Y027782D01*
X015105Y027729D01*
X015053Y027651D01*
X015046Y027618D01*
X015217D01*
Y027788D01*
D02*
G37*
G36*
X014547D02*
Y027618D01*
X014717D01*
X014711Y027651D01*
X014658Y027729D01*
X014580Y027782D01*
X014547Y027788D01*
D02*
G37*
G36*
X014429D02*
X014396Y027782D01*
X014318Y027729D01*
X014266Y027651D01*
X014259Y027618D01*
X014429D01*
Y027788D01*
D02*
G37*
G36*
X013760D02*
Y027618D01*
X013930D01*
X013923Y027651D01*
X013871Y027729D01*
X013793Y027782D01*
X013760Y027788D01*
D02*
G37*
G36*
X013642D02*
X013609Y027782D01*
X013530Y027729D01*
X013478Y027651D01*
X013472Y027618D01*
X013642D01*
Y027788D01*
D02*
G37*
G36*
X015505Y027500D02*
X015335D01*
Y027330D01*
X015368Y027337D01*
X015446Y027389D01*
X015498Y027467D01*
X015505Y027500D01*
D02*
G37*
G36*
X015217D02*
X015046D01*
X015053Y027467D01*
X015105Y027389D01*
X015183Y027337D01*
X015217Y027330D01*
Y027500D01*
D02*
G37*
G36*
X014717D02*
X014547D01*
Y027330D01*
X014580Y027337D01*
X014658Y027389D01*
X014711Y027467D01*
X014717Y027500D01*
D02*
G37*
G36*
X014429D02*
X014259D01*
X014266Y027467D01*
X014318Y027389D01*
X014396Y027337D01*
X014429Y027330D01*
Y027500D01*
D02*
G37*
G36*
X013930D02*
X013760D01*
Y027330D01*
X013793Y027337D01*
X013871Y027389D01*
X013923Y027467D01*
X013930Y027500D01*
D02*
G37*
G36*
X013642D02*
X013472D01*
X013478Y027467D01*
X013530Y027389D01*
X013609Y027337D01*
X013642Y027330D01*
Y027500D01*
D02*
G37*
G36*
X035067Y028688D02*
X034846Y028659D01*
X034640Y028574D01*
X034463Y028438D01*
X034328Y028262D01*
X034242Y028056D01*
X034213Y027835D01*
X034242Y027614D01*
X034328Y027408D01*
X034463Y027231D01*
X034640Y027095D01*
X034846Y027010D01*
X035067Y026981D01*
X035288Y027010D01*
X035494Y027095D01*
X035671Y027231D01*
X035806Y027408D01*
X035892Y027614D01*
X035921Y027835D01*
X035892Y028056D01*
X035806Y028262D01*
X035671Y028438D01*
X035494Y028574D01*
X035288Y028659D01*
X035067Y028688D01*
D02*
G37*
G36*
X029894D02*
X029673Y028659D01*
X029467Y028574D01*
X029290Y028438D01*
X029154Y028262D01*
X029069Y028056D01*
X029040Y027835D01*
X029069Y027614D01*
X029154Y027408D01*
X029290Y027231D01*
X029467Y027095D01*
X029673Y027010D01*
X029894Y026981D01*
X030115Y027010D01*
X030321Y027095D01*
X030497Y027231D01*
X030633Y027408D01*
X030718Y027614D01*
X030747Y027835D01*
X030718Y028056D01*
X030633Y028262D01*
X030497Y028438D01*
X030321Y028574D01*
X030115Y028659D01*
X029894Y028688D01*
D02*
G37*
G36*
X047008Y027131D02*
X046900Y027110D01*
X046809Y027049D01*
X046748Y026958D01*
X046727Y026850D01*
X046748Y026743D01*
X046809Y026652D01*
X046900Y026591D01*
X047008Y026569D01*
X047115Y026591D01*
X047207Y026652D01*
X047267Y026743D01*
X047289Y026850D01*
X047267Y026958D01*
X047207Y027049D01*
X047115Y027110D01*
X047008Y027131D01*
D02*
G37*
G36*
X020650Y026587D02*
Y026417D01*
X020820D01*
X020813Y026450D01*
X020761Y026529D01*
X020683Y026581D01*
X020650Y026587D01*
D02*
G37*
G36*
X020531D02*
X020498Y026581D01*
X020420Y026529D01*
X020368Y026450D01*
X020361Y026417D01*
X020531D01*
Y026587D01*
D02*
G37*
G36*
X050079Y026620D02*
X049971Y026598D01*
X049880Y026537D01*
X049819Y026446D01*
X049798Y026339D01*
X049819Y026231D01*
X049880Y026140D01*
X049971Y026079D01*
X050079Y026058D01*
X050186Y026079D01*
X050277Y026140D01*
X050338Y026231D01*
X050360Y026339D01*
X050338Y026446D01*
X050277Y026537D01*
X050186Y026598D01*
X050079Y026620D01*
D02*
G37*
G36*
X027835Y026502D02*
X027712Y026478D01*
X027608Y026408D01*
X027538Y026304D01*
X027514Y026181D01*
X027538Y026058D01*
X027608Y025954D01*
X027712Y025884D01*
X027835Y025860D01*
X027958Y025884D01*
X028062Y025954D01*
X028131Y026058D01*
X028156Y026181D01*
X028131Y026304D01*
X028062Y026408D01*
X027958Y026478D01*
X027835Y026502D01*
D02*
G37*
G36*
X047576Y026289D02*
X047468Y026268D01*
X047377Y026207D01*
X047316Y026116D01*
X047295Y026008D01*
X047316Y025900D01*
X047377Y025809D01*
X047468Y025748D01*
X047576Y025727D01*
X047683Y025748D01*
X047774Y025809D01*
X047835Y025900D01*
X047857Y026008D01*
X047835Y026116D01*
X047774Y026207D01*
X047683Y026268D01*
X047576Y026289D01*
D02*
G37*
G36*
X027894Y025545D02*
Y025335D01*
X028104D01*
X028094Y025383D01*
X028033Y025474D01*
X027942Y025535D01*
X027894Y025545D01*
D02*
G37*
G36*
X027776Y025545D02*
X027727Y025535D01*
X027636Y025474D01*
X027575Y025383D01*
X027565Y025335D01*
X027776D01*
Y025545D01*
D02*
G37*
G36*
X028104Y025217D02*
X027894D01*
Y025006D01*
X027942Y025016D01*
X028033Y025077D01*
X028094Y025168D01*
X028104Y025217D01*
D02*
G37*
G36*
X027776D02*
X027565D01*
X027575Y025168D01*
X027636Y025077D01*
X027727Y025016D01*
X027776Y025006D01*
Y025217D01*
D02*
G37*
G36*
X037559Y026621D02*
X035827D01*
X035689Y026594D01*
X035571Y026515D01*
X035493Y026398D01*
X035466Y026260D01*
X035493Y026122D01*
X035571Y026004D01*
X035689Y025926D01*
X035827Y025899D01*
X036736D01*
X036759Y025780D01*
X036685Y025750D01*
X036590Y025677D01*
X036518Y025583D01*
X036472Y025473D01*
X036457Y025354D01*
X036472Y025236D01*
X036518Y025126D01*
X036590Y025031D01*
X036685Y024959D01*
X036795Y024913D01*
X036913Y024898D01*
X037032Y024913D01*
X037142Y024959D01*
X037236Y025031D01*
X037309Y025126D01*
X037354Y025236D01*
X037472D01*
X037518Y025126D01*
X037590Y025031D01*
X037685Y024959D01*
X037795Y024913D01*
X037913Y024898D01*
X038032Y024913D01*
X038142Y024959D01*
X038236Y025031D01*
X038309Y025126D01*
X038343Y025207D01*
X038461Y025184D01*
Y024902D01*
X039366D01*
Y025807D01*
X038461D01*
Y025525D01*
X038343Y025501D01*
X038309Y025583D01*
X038278Y025623D01*
X038275Y025683D01*
Y025906D01*
X038247Y026044D01*
X038169Y026161D01*
X037815Y026515D01*
X037697Y026594D01*
X037559Y026621D01*
D02*
G37*
G36*
X047520Y024533D02*
X047412Y024512D01*
X047321Y024451D01*
X047280Y024390D01*
X047255Y024383D01*
X047174D01*
X047149Y024390D01*
X047108Y024451D01*
X047017Y024512D01*
X046909Y024533D01*
X046802Y024512D01*
X046711Y024451D01*
X046650Y024360D01*
X046628Y024252D01*
X046650Y024144D01*
X046711Y024053D01*
X046802Y023992D01*
X046909Y023971D01*
X047017Y023992D01*
X047108Y024053D01*
X047149Y024114D01*
X047174Y024121D01*
X047255D01*
X047280Y024114D01*
X047321Y024053D01*
X047412Y023992D01*
X047520Y023971D01*
X047627Y023992D01*
X047718Y024053D01*
X047779Y024144D01*
X047801Y024252D01*
X047779Y024360D01*
X047718Y024451D01*
X047627Y024512D01*
X047520Y024533D01*
D02*
G37*
G36*
X049488Y024179D02*
X049381Y024157D01*
X049289Y024096D01*
X049229Y024005D01*
X049207Y023898D01*
X049229Y023790D01*
X049289Y023699D01*
X049381Y023638D01*
X049488Y023617D01*
X049596Y023638D01*
X049687Y023699D01*
X049748Y023790D01*
X049769Y023898D01*
X049748Y024005D01*
X049687Y024096D01*
X049596Y024157D01*
X049488Y024179D01*
D02*
G37*
G36*
X049016Y022998D02*
X048908Y022976D01*
X048817Y022915D01*
X048756Y022824D01*
X048735Y022717D01*
X048756Y022609D01*
X048817Y022518D01*
X048908Y022457D01*
X049016Y022436D01*
X049123Y022457D01*
X049214Y022518D01*
X049275Y022609D01*
X049297Y022717D01*
X049275Y022824D01*
X049214Y022915D01*
X049123Y022976D01*
X049016Y022998D01*
D02*
G37*
G36*
X020650Y022473D02*
Y022303D01*
X020820D01*
X020813Y022336D01*
X020761Y022414D01*
X020683Y022467D01*
X020650Y022473D01*
D02*
G37*
G36*
X020531D02*
X020498Y022467D01*
X020420Y022414D01*
X020368Y022336D01*
X020361Y022303D01*
X020531D01*
Y022473D01*
D02*
G37*
G36*
X007756Y022840D02*
X007648Y022819D01*
X007557Y022758D01*
X007496Y022667D01*
X007475Y022559D01*
X007496Y022452D01*
X007557Y022360D01*
X007648Y022299D01*
X007756Y022278D01*
X007863Y022299D01*
X007955Y022360D01*
X008016Y022452D01*
X008037Y022559D01*
X008016Y022667D01*
X007955Y022758D01*
X007863Y022819D01*
X007756Y022840D01*
D02*
G37*
G36*
X020820Y022185D02*
X020650D01*
Y022015D01*
X020683Y022022D01*
X020761Y022074D01*
X020813Y022152D01*
X020820Y022185D01*
D02*
G37*
G36*
X020531D02*
X020361D01*
X020368Y022152D01*
X020420Y022074D01*
X020498Y022022D01*
X020531Y022015D01*
Y022185D01*
D02*
G37*
G36*
X007756Y021423D02*
X007648Y021401D01*
X007557Y021340D01*
X007496Y021249D01*
X007475Y021142D01*
X007496Y021034D01*
X007557Y020943D01*
X007648Y020882D01*
X007756Y020861D01*
X007863Y020882D01*
X007955Y020943D01*
X008016Y021034D01*
X008037Y021142D01*
X008016Y021249D01*
X007955Y021340D01*
X007863Y021401D01*
X007756Y021423D01*
D02*
G37*
G36*
X048957Y020308D02*
Y020138D01*
X049127D01*
X049120Y020171D01*
X049068Y020249D01*
X048990Y020301D01*
X048957Y020308D01*
D02*
G37*
G36*
X048839D02*
X048805Y020301D01*
X048727Y020249D01*
X048675Y020171D01*
X048669Y020138D01*
X048839D01*
Y020308D01*
D02*
G37*
G36*
X049127Y020020D02*
X048957D01*
Y019850D01*
X048990Y019856D01*
X049068Y019908D01*
X049120Y019987D01*
X049127Y020020D01*
D02*
G37*
G36*
X048839D02*
X048669D01*
X048675Y019987D01*
X048727Y019908D01*
X048805Y019856D01*
X048839Y019850D01*
Y020020D01*
D02*
G37*
G36*
X031728Y019694D02*
Y019524D01*
X031898D01*
X031892Y019557D01*
X031840Y019635D01*
X031761Y019687D01*
X031728Y019694D01*
D02*
G37*
G36*
X007756Y020005D02*
X007648Y019984D01*
X007557Y019923D01*
X007496Y019832D01*
X007475Y019724D01*
X007496Y019617D01*
X007557Y019526D01*
X007648Y019465D01*
X007756Y019443D01*
X007863Y019465D01*
X007955Y019526D01*
X008016Y019617D01*
X008037Y019724D01*
X008016Y019832D01*
X007955Y019923D01*
X007863Y019984D01*
X007756Y020005D01*
D02*
G37*
G36*
X012402Y019730D02*
X012294Y019708D01*
X012203Y019648D01*
X012142Y019556D01*
X012121Y019449D01*
X012142Y019341D01*
X012203Y019250D01*
X012294Y019189D01*
X012402Y019168D01*
X012509Y019189D01*
X012600Y019250D01*
X012661Y019341D01*
X012683Y019449D01*
X012661Y019556D01*
X012600Y019648D01*
X012509Y019708D01*
X012402Y019730D01*
D02*
G37*
G36*
X032697Y018852D02*
Y018682D01*
X032867D01*
X032860Y018715D01*
X032808Y018793D01*
X032730Y018846D01*
X032697Y018852D01*
D02*
G37*
G36*
X032579D02*
X032546Y018846D01*
X032467Y018793D01*
X032415Y018715D01*
X032409Y018682D01*
X032579D01*
Y018852D01*
D02*
G37*
G36*
X036004Y018692D02*
X035971Y018685D01*
X035893Y018633D01*
X035840Y018555D01*
X035834Y018522D01*
X036004D01*
Y018692D01*
D02*
G37*
G36*
X032867Y018564D02*
X032697D01*
Y018394D01*
X032730Y018401D01*
X032808Y018453D01*
X032860Y018531D01*
X032867Y018564D01*
D02*
G37*
G36*
X032579D02*
X032409D01*
X032415Y018531D01*
X032467Y018453D01*
X032546Y018401D01*
X032579Y018394D01*
Y018564D01*
D02*
G37*
G36*
X036004Y018404D02*
X035834D01*
X035840Y018370D01*
X035893Y018292D01*
X035971Y018240D01*
X036004Y018233D01*
Y018404D01*
D02*
G37*
G36*
X007756Y018592D02*
X007648Y018570D01*
X007557Y018509D01*
X007496Y018418D01*
X007475Y018311D01*
X007496Y018203D01*
X007557Y018112D01*
X007648Y018051D01*
X007756Y018030D01*
X007863Y018051D01*
X007955Y018112D01*
X008016Y018203D01*
X008037Y018311D01*
X008016Y018418D01*
X007955Y018509D01*
X007863Y018570D01*
X007756Y018592D01*
D02*
G37*
G36*
X033228Y018509D02*
X033121Y018488D01*
X033030Y018427D01*
X032969Y018336D01*
X032947Y018228D01*
X032969Y018121D01*
X033030Y018030D01*
X033121Y017969D01*
X033228Y017947D01*
X033336Y017969D01*
X033427Y018030D01*
X033488Y018121D01*
X033509Y018228D01*
X033488Y018336D01*
X033427Y018427D01*
X033336Y018488D01*
X033228Y018509D01*
D02*
G37*
G36*
X045374Y017815D02*
X045204D01*
X045211Y017782D01*
X045263Y017704D01*
X045341Y017651D01*
X045374Y017645D01*
Y017815D01*
D02*
G37*
G36*
X039941Y017276D02*
X039908Y017270D01*
X039830Y017218D01*
X039777D01*
X039698Y017270D01*
X039665Y017276D01*
Y017047D01*
Y016818D01*
X039698Y016825D01*
X039777Y016877D01*
X039830D01*
X039908Y016825D01*
X039941Y016818D01*
Y017047D01*
Y017276D01*
D02*
G37*
G36*
X043563D02*
Y017106D01*
X043733D01*
X043726Y017139D01*
X043674Y017218D01*
X043596Y017270D01*
X043563Y017276D01*
D02*
G37*
G36*
X043445D02*
X043412Y017270D01*
X043334Y017218D01*
X043281Y017139D01*
X043275Y017106D01*
X043445D01*
Y017276D01*
D02*
G37*
G36*
X040059D02*
Y017106D01*
X040229D01*
X040223Y017139D01*
X040170Y017218D01*
X040092Y017270D01*
X040059Y017276D01*
D02*
G37*
G36*
X039547D02*
X039514Y017270D01*
X039436Y017218D01*
X039384Y017139D01*
X039377Y017106D01*
X039547D01*
Y017276D01*
D02*
G37*
G36*
X049127Y017106D02*
X048957D01*
Y016936D01*
X048990Y016943D01*
X049068Y016995D01*
X049120Y017073D01*
X049127Y017106D01*
D02*
G37*
G36*
X048839D02*
X048669D01*
X048675Y017073D01*
X048727Y016995D01*
X048805Y016943D01*
X048839Y016936D01*
Y017106D01*
D02*
G37*
G36*
X017244Y019454D02*
X017137Y019433D01*
X017045Y019372D01*
X016927Y019254D01*
X016866Y019163D01*
X016845Y019055D01*
Y018071D01*
X016866Y017963D01*
X016927Y017872D01*
X017860Y016939D01*
X017952Y016878D01*
X018059Y016857D01*
X018167Y016878D01*
X018258Y016939D01*
X018319Y017030D01*
X018340Y017138D01*
X018319Y017245D01*
X018258Y017336D01*
X017407Y018187D01*
Y018939D01*
X017443Y018975D01*
X017504Y019066D01*
X017525Y019173D01*
X017504Y019281D01*
X017443Y019372D01*
X017352Y019433D01*
X017244Y019454D01*
D02*
G37*
G36*
X019213Y017407D02*
X019105Y017386D01*
X019014Y017325D01*
X018953Y017234D01*
X018932Y017126D01*
X018953Y017018D01*
X019014Y016927D01*
X019105Y016866D01*
X019213Y016845D01*
X019320Y016866D01*
X019411Y016927D01*
X019472Y017018D01*
X019494Y017126D01*
X019472Y017234D01*
X019411Y017325D01*
X019320Y017386D01*
X019213Y017407D01*
D02*
G37*
G36*
X043733Y016988D02*
X043563D01*
Y016818D01*
X043596Y016825D01*
X043674Y016877D01*
X043726Y016955D01*
X043733Y016988D01*
D02*
G37*
G36*
X043445D02*
X043275D01*
X043281Y016955D01*
X043334Y016877D01*
X043412Y016825D01*
X043445Y016818D01*
Y016988D01*
D02*
G37*
G36*
X040229D02*
X040059D01*
Y016818D01*
X040092Y016825D01*
X040170Y016877D01*
X040223Y016955D01*
X040229Y016988D01*
D02*
G37*
G36*
X039547D02*
X039377D01*
X039384Y016955D01*
X039436Y016877D01*
X039514Y016825D01*
X039547Y016818D01*
Y016988D01*
D02*
G37*
G36*
X032106Y017276D02*
X031999Y017254D01*
X031908Y017193D01*
X031847Y017102D01*
X031825Y016995D01*
X031847Y016887D01*
X031908Y016796D01*
X031999Y016735D01*
X032106Y016714D01*
X032214Y016735D01*
X032305Y016796D01*
X032366Y016887D01*
X032387Y016995D01*
X032366Y017102D01*
X032305Y017193D01*
X032214Y017254D01*
X032106Y017276D01*
D02*
G37*
G36*
X007756Y017210D02*
X007648Y017189D01*
X007557Y017128D01*
X007496Y017037D01*
X007475Y016929D01*
X007496Y016822D01*
X007557Y016730D01*
X007648Y016670D01*
X007756Y016648D01*
X007863Y016670D01*
X007955Y016730D01*
X008016Y016822D01*
X008037Y016929D01*
X008016Y017037D01*
X007955Y017128D01*
X007863Y017189D01*
X007756Y017210D01*
D02*
G37*
G36*
X012411Y016108D02*
X012304Y016086D01*
X012213Y016025D01*
X012152Y015934D01*
X012130Y015827D01*
X012152Y015719D01*
X012213Y015628D01*
X012304Y015567D01*
X012411Y015546D01*
X012519Y015567D01*
X012610Y015628D01*
X012671Y015719D01*
X012692Y015827D01*
X012671Y015934D01*
X012610Y016025D01*
X012519Y016086D01*
X012411Y016108D01*
D02*
G37*
G36*
X007756Y015753D02*
X007648Y015732D01*
X007557Y015671D01*
X007496Y015580D01*
X007475Y015472D01*
X007496Y015365D01*
X007557Y015274D01*
X007648Y015213D01*
X007756Y015191D01*
X007863Y015213D01*
X007955Y015274D01*
X008016Y015365D01*
X008037Y015472D01*
X008016Y015580D01*
X007955Y015671D01*
X007863Y015732D01*
X007756Y015753D01*
D02*
G37*
G36*
X047402Y014769D02*
X047294Y014748D01*
X047206Y014689D01*
X046692D01*
X046604Y014748D01*
X046496Y014769D01*
X046389Y014748D01*
X046297Y014687D01*
X046236Y014596D01*
X046215Y014488D01*
X046236Y014381D01*
X046297Y014289D01*
X046389Y014229D01*
X046496Y014207D01*
X046604Y014229D01*
X046692Y014287D01*
X047206D01*
X047294Y014229D01*
X047402Y014207D01*
X047509Y014229D01*
X047600Y014289D01*
X047661Y014381D01*
X047683Y014488D01*
X047661Y014596D01*
X047600Y014687D01*
X047509Y014748D01*
X047402Y014769D01*
D02*
G37*
G36*
X019213Y015005D02*
X019105Y014984D01*
X019014Y014923D01*
X018953Y014832D01*
X018932Y014724D01*
X018953Y014617D01*
X019014Y014526D01*
X019105Y014465D01*
X019213Y014443D01*
X019320Y014465D01*
X019411Y014526D01*
X019472Y014617D01*
X019494Y014724D01*
X019472Y014832D01*
X019411Y014923D01*
X019320Y014984D01*
X019213Y015005D01*
D02*
G37*
G36*
X050354Y014572D02*
X050247Y014551D01*
X050156Y014490D01*
X050095Y014399D01*
X050073Y014291D01*
X050095Y014184D01*
X050156Y014093D01*
X050247Y014032D01*
X050354Y014010D01*
X050462Y014032D01*
X050553Y014093D01*
X050614Y014184D01*
X050635Y014291D01*
X050614Y014399D01*
X050553Y014490D01*
X050462Y014551D01*
X050354Y014572D01*
D02*
G37*
G36*
X007756Y014375D02*
X007648Y014354D01*
X007557Y014293D01*
X007496Y014202D01*
X007475Y014094D01*
X007496Y013987D01*
X007557Y013896D01*
X007648Y013835D01*
X007756Y013814D01*
X007863Y013835D01*
X007955Y013896D01*
X008016Y013987D01*
X008037Y014094D01*
X008016Y014202D01*
X007955Y014293D01*
X007863Y014354D01*
X007756Y014375D01*
D02*
G37*
G36*
X045433Y015675D02*
X045326Y015653D01*
X045234Y015592D01*
X045173Y015501D01*
X045152Y015394D01*
X045173Y015286D01*
X045232Y015198D01*
Y013188D01*
X045173Y013100D01*
X045152Y012992D01*
X045173Y012885D01*
X045234Y012793D01*
X045326Y012733D01*
X045433Y012711D01*
X045541Y012733D01*
X045632Y012793D01*
X045693Y012885D01*
X045714Y012992D01*
X045693Y013100D01*
X045634Y013188D01*
Y013480D01*
X045748Y013577D01*
X045856Y013599D01*
X045944Y013658D01*
X047915D01*
X048003Y013599D01*
X048110Y013577D01*
X048218Y013599D01*
X048309Y013660D01*
X048370Y013751D01*
X048391Y013858D01*
X048370Y013966D01*
X048309Y014057D01*
X048218Y014118D01*
X048110Y014139D01*
X048003Y014118D01*
X047915Y014059D01*
X045944D01*
X045856Y014118D01*
X045748Y014139D01*
X045634Y014237D01*
Y015198D01*
X045693Y015286D01*
X045714Y015394D01*
X045693Y015501D01*
X045632Y015592D01*
X045541Y015653D01*
X045433Y015675D01*
D02*
G37*
G36*
X028285Y013284D02*
X028163Y013259D01*
X028058Y013190D01*
X027989Y013086D01*
X027964Y012963D01*
X027989Y012840D01*
X028058Y012736D01*
X028163Y012666D01*
X028285Y012642D01*
X028408Y012666D01*
X028513Y012736D01*
X028582Y012840D01*
X028607Y012963D01*
X028582Y013086D01*
X028513Y013190D01*
X028408Y013259D01*
X028285Y013284D01*
D02*
G37*
G36*
X007756Y012965D02*
X007648Y012944D01*
X007557Y012883D01*
X007496Y012792D01*
X007475Y012684D01*
X007496Y012577D01*
X007557Y012486D01*
X007648Y012425D01*
X007756Y012403D01*
X007863Y012425D01*
X007955Y012486D01*
X008016Y012577D01*
X008037Y012684D01*
X008016Y012792D01*
X007955Y012883D01*
X007863Y012944D01*
X007756Y012965D01*
D02*
G37*
G36*
X048898Y014572D02*
X048790Y014551D01*
X048699Y014490D01*
X048638Y014399D01*
X048617Y014291D01*
X048638Y014184D01*
X048697Y014096D01*
Y013430D01*
X047555Y012287D01*
X046810D01*
X046722Y012346D01*
X046614Y012368D01*
X046507Y012346D01*
X046415Y012285D01*
X046355Y012194D01*
X046333Y012087D01*
X046355Y011979D01*
X046415Y011888D01*
X046507Y011827D01*
X046614Y011806D01*
X046722Y011827D01*
X046810Y011886D01*
X047638D01*
X047715Y011901D01*
X047780Y011945D01*
X049040Y013205D01*
X049083Y013270D01*
X049098Y013346D01*
Y014096D01*
X049157Y014184D01*
X049179Y014291D01*
X049157Y014399D01*
X049096Y014490D01*
X049005Y014551D01*
X048898Y014572D01*
D02*
G37*
G36*
X020295Y012355D02*
Y012185D01*
X020465D01*
X020459Y012218D01*
X020407Y012296D01*
X020328Y012349D01*
X020295Y012355D01*
D02*
G37*
G36*
X020177D02*
X020144Y012349D01*
X020066Y012296D01*
X020014Y012218D01*
X020007Y012185D01*
X020177D01*
Y012355D01*
D02*
G37*
G36*
X033465Y012210D02*
X033357Y012189D01*
X033266Y012128D01*
X033135Y012144D01*
X033124Y012152D01*
X033091Y012158D01*
Y011929D01*
Y011700D01*
X033124Y011707D01*
X033135Y011714D01*
X033266Y011730D01*
X033357Y011670D01*
X033465Y011648D01*
X033572Y011670D01*
X033663Y011730D01*
X033724Y011822D01*
X033746Y011929D01*
X033724Y012037D01*
X033663Y012128D01*
X033572Y012189D01*
X033465Y012210D01*
D02*
G37*
G36*
X032972Y012158D02*
X032939Y012152D01*
X032861Y012099D01*
X032809Y012021D01*
X032802Y011988D01*
X032972D01*
Y012158D01*
D02*
G37*
G36*
X020465Y012067D02*
X020295D01*
Y011897D01*
X020328Y011903D01*
X020407Y011956D01*
X020459Y012034D01*
X020465Y012067D01*
D02*
G37*
G36*
X020177D02*
X020007D01*
X020014Y012034D01*
X020066Y011956D01*
X020144Y011903D01*
X020177Y011897D01*
Y012067D01*
D02*
G37*
G36*
X032972Y011870D02*
X032802D01*
X032809Y011837D01*
X032861Y011759D01*
X032939Y011707D01*
X032972Y011700D01*
Y011870D01*
D02*
G37*
G36*
X040984Y012131D02*
X040877Y012110D01*
X040786Y012049D01*
X040725Y011958D01*
X040703Y011850D01*
X040725Y011743D01*
X040786Y011652D01*
X040877Y011591D01*
X040984Y011569D01*
X041092Y011591D01*
X041183Y011652D01*
X041244Y011743D01*
X041265Y011850D01*
X041244Y011958D01*
X041183Y012049D01*
X041092Y012110D01*
X040984Y012131D01*
D02*
G37*
G36*
X032677Y013116D02*
X032570Y013094D01*
X032478Y013033D01*
X032418Y012942D01*
X032400Y012856D01*
X032095Y012551D01*
X032049Y012482D01*
X032033Y012402D01*
Y011559D01*
X031984Y011485D01*
X031963Y011378D01*
X031984Y011270D01*
X032045Y011179D01*
X032137Y011118D01*
X032244Y011097D01*
X032352Y011118D01*
X032443Y011179D01*
X032504Y011270D01*
X032525Y011378D01*
X032504Y011485D01*
X032455Y011559D01*
Y012314D01*
X032698Y012558D01*
X032785Y012575D01*
X032876Y012636D01*
X032937Y012727D01*
X032958Y012835D01*
X032937Y012942D01*
X032876Y013033D01*
X032785Y013094D01*
X032677Y013116D01*
D02*
G37*
G36*
X007756Y011568D02*
X007648Y011547D01*
X007557Y011486D01*
X007496Y011395D01*
X007475Y011287D01*
X007496Y011180D01*
X007557Y011089D01*
X007648Y011028D01*
X007756Y011006D01*
X007863Y011028D01*
X007955Y011089D01*
X008016Y011180D01*
X008037Y011287D01*
X008016Y011395D01*
X007955Y011486D01*
X007863Y011547D01*
X007756Y011568D01*
D02*
G37*
G36*
X012411Y011068D02*
X012304Y011047D01*
X012213Y010986D01*
X012152Y010895D01*
X012130Y010787D01*
X012152Y010680D01*
X012213Y010589D01*
X012304Y010528D01*
X012411Y010506D01*
X012519Y010528D01*
X012610Y010589D01*
X012671Y010680D01*
X012692Y010787D01*
X012671Y010895D01*
X012610Y010986D01*
X012519Y011047D01*
X012411Y011068D01*
D02*
G37*
G36*
X044252Y010675D02*
X044144Y010653D01*
X044053Y010592D01*
X043992Y010501D01*
X043971Y010394D01*
X043992Y010286D01*
X044053Y010195D01*
X044144Y010134D01*
X044252Y010113D01*
X044359Y010134D01*
X044451Y010195D01*
X044512Y010286D01*
X044533Y010394D01*
X044512Y010501D01*
X044451Y010592D01*
X044359Y010653D01*
X044252Y010675D01*
D02*
G37*
G36*
X026194Y010276D02*
X026024D01*
Y010106D01*
X026057Y010112D01*
X026135Y010164D01*
X026187Y010242D01*
X026194Y010276D01*
D02*
G37*
G36*
X025906D02*
X025735D01*
X025742Y010242D01*
X025794Y010164D01*
X025872Y010112D01*
X025906Y010106D01*
Y010276D01*
D02*
G37*
G36*
X050354Y010399D02*
X050247Y010378D01*
X050156Y010317D01*
X050095Y010226D01*
X050073Y010118D01*
X050095Y010011D01*
X050156Y009919D01*
X050247Y009859D01*
X050354Y009837D01*
X050462Y009859D01*
X050553Y009919D01*
X050614Y010011D01*
X050635Y010118D01*
X050614Y010226D01*
X050553Y010317D01*
X050462Y010378D01*
X050354Y010399D01*
D02*
G37*
G36*
X007756Y010152D02*
X007648Y010131D01*
X007557Y010070D01*
X007496Y009979D01*
X007475Y009871D01*
X007496Y009764D01*
X007557Y009672D01*
X007648Y009612D01*
X007756Y009590D01*
X007863Y009612D01*
X007955Y009672D01*
X008016Y009764D01*
X008037Y009871D01*
X008016Y009979D01*
X007955Y010070D01*
X007863Y010131D01*
X007756Y010152D01*
D02*
G37*
G36*
X034593Y010137D02*
X034485Y010116D01*
X034394Y010055D01*
X034333Y009964D01*
X034312Y009856D01*
X034333Y009749D01*
X034394Y009658D01*
X034485Y009597D01*
X034593Y009575D01*
X034700Y009597D01*
X034791Y009658D01*
X034852Y009749D01*
X034874Y009856D01*
X034852Y009964D01*
X034791Y010055D01*
X034700Y010116D01*
X034593Y010137D01*
D02*
G37*
G36*
X041102Y010045D02*
X040995Y010023D01*
X040904Y009962D01*
X040843Y009871D01*
X040821Y009764D01*
X040843Y009656D01*
X040904Y009565D01*
X040995Y009504D01*
X041102Y009483D01*
X041210Y009504D01*
X041301Y009565D01*
X041362Y009656D01*
X041383Y009764D01*
X041362Y009871D01*
X041301Y009962D01*
X041210Y010023D01*
X041102Y010045D01*
D02*
G37*
G36*
X032500Y009402D02*
Y009232D01*
X032670D01*
X032663Y009265D01*
X032611Y009344D01*
X032533Y009396D01*
X032500Y009402D01*
D02*
G37*
G36*
X032382D02*
X032349Y009396D01*
X032271Y009344D01*
X032218Y009265D01*
X032212Y009232D01*
X032382D01*
Y009402D01*
D02*
G37*
G36*
X013591Y009576D02*
X013483Y009555D01*
X013392Y009494D01*
X013331Y009403D01*
X013310Y009295D01*
X013331Y009188D01*
X013392Y009097D01*
X013483Y009036D01*
X013591Y009014D01*
X013698Y009036D01*
X013789Y009097D01*
X013850Y009188D01*
X013872Y009295D01*
X013850Y009403D01*
X013789Y009494D01*
X013698Y009555D01*
X013591Y009576D01*
D02*
G37*
G36*
X032670Y009114D02*
X032500D01*
Y008944D01*
X032533Y008951D01*
X032611Y009003D01*
X032663Y009081D01*
X032670Y009114D01*
D02*
G37*
G36*
X032382D02*
X032212D01*
X032218Y009081D01*
X032271Y009003D01*
X032349Y008951D01*
X032382Y008944D01*
Y009114D01*
D02*
G37*
G36*
X022185Y009048D02*
Y008878D01*
X022355D01*
X022348Y008911D01*
X022296Y008989D01*
X022218Y009041D01*
X022185Y009048D01*
D02*
G37*
G36*
X022067D02*
X022034Y009041D01*
X021956Y008989D01*
X021903Y008911D01*
X021897Y008878D01*
X022067D01*
Y009048D01*
D02*
G37*
G36*
X050354Y008903D02*
X050247Y008882D01*
X050159Y008823D01*
X048503D01*
X048415Y008882D01*
X048307Y008903D01*
X048200Y008882D01*
X048108Y008821D01*
X048047Y008730D01*
X048026Y008622D01*
X048047Y008515D01*
X048108Y008423D01*
X048200Y008362D01*
X048307Y008341D01*
X048415Y008362D01*
X048503Y008421D01*
X050159D01*
X050247Y008362D01*
X050354Y008341D01*
X050462Y008362D01*
X050553Y008423D01*
X050614Y008515D01*
X050635Y008622D01*
X050614Y008730D01*
X050553Y008821D01*
X050462Y008882D01*
X050354Y008903D01*
D02*
G37*
G36*
X022355Y008760D02*
X022185D01*
Y008590D01*
X022218Y008596D01*
X022296Y008649D01*
X022348Y008727D01*
X022355Y008760D01*
D02*
G37*
G36*
X022067D02*
X021897D01*
X021903Y008727D01*
X021956Y008649D01*
X022034Y008596D01*
X022067Y008590D01*
Y008760D01*
D02*
G37*
G36*
X036437Y009139D02*
X036330Y009118D01*
X036238Y009057D01*
X036177Y008966D01*
X036156Y008858D01*
X036177Y008751D01*
X036238Y008660D01*
X036330Y008599D01*
X036437Y008577D01*
X036545Y008599D01*
X036636Y008660D01*
X036697Y008751D01*
X036718Y008858D01*
X036697Y008966D01*
X036636Y009057D01*
X036545Y009118D01*
X036437Y009139D01*
D02*
G37*
G36*
X031535Y008627D02*
X031428Y008606D01*
X031355Y008557D01*
X030535D01*
X030462Y008606D01*
X030354Y008627D01*
X030247Y008606D01*
X030156Y008545D01*
X030095Y008454D01*
X030073Y008346D01*
X030095Y008239D01*
X030156Y008148D01*
X030247Y008087D01*
X030354Y008065D01*
X030462Y008087D01*
X030535Y008136D01*
X031355D01*
X031428Y008087D01*
X031535Y008065D01*
X031643Y008087D01*
X031734Y008148D01*
X031795Y008239D01*
X031816Y008346D01*
X031795Y008454D01*
X031734Y008545D01*
X031643Y008606D01*
X031535Y008627D01*
D02*
G37*
G36*
X044583Y008920D02*
X044476Y008898D01*
X044385Y008837D01*
X044324Y008746D01*
X044302Y008639D01*
X044324Y008531D01*
X044385Y008440D01*
X044476Y008379D01*
X044583Y008358D01*
X044691Y008379D01*
X044782Y008440D01*
X044843Y008531D01*
X044864Y008639D01*
X044843Y008746D01*
X044782Y008837D01*
X044691Y008898D01*
X044583Y008920D01*
D02*
G37*
G36*
X030906Y007014D02*
X030783Y006990D01*
X030678Y006920D01*
X030674Y006914D01*
X024811D01*
X024753Y006953D01*
X024646Y006974D01*
X024538Y006953D01*
X024447Y006892D01*
X024386Y006800D01*
X024365Y006693D01*
X024386Y006585D01*
X024447Y006494D01*
X024538Y006433D01*
X024646Y006412D01*
X024753Y006433D01*
X024811Y006472D01*
X025579D01*
X025635Y006398D01*
X026176D01*
X026232Y006472D01*
X029991D01*
X030054Y006354D01*
X030053Y006352D01*
X030046Y006319D01*
X030505D01*
X030498Y006352D01*
X030497Y006354D01*
X030560Y006472D01*
X030674D01*
X030678Y006466D01*
X030783Y006396D01*
X030906Y006372D01*
X031028Y006396D01*
X031133Y006466D01*
X031202Y006570D01*
X031227Y006693D01*
X031202Y006816D01*
X031133Y006920D01*
X031028Y006990D01*
X030906Y007014D01*
D02*
G37*
G36*
X045276Y007171D02*
X045168Y007149D01*
X045077Y007088D01*
X045016Y006997D01*
X044995Y006890D01*
X045016Y006782D01*
X045077Y006691D01*
X045168Y006630D01*
X045276Y006609D01*
X045383Y006630D01*
X045474Y006691D01*
X045535Y006782D01*
X045557Y006890D01*
X045535Y006997D01*
X045474Y007088D01*
X045383Y007149D01*
X045276Y007171D01*
D02*
G37*
G36*
X038543Y006423D02*
X038436Y006401D01*
X038418Y006390D01*
X038327Y006348D01*
X038235Y006390D01*
X038218Y006401D01*
X038110Y006423D01*
X038003Y006401D01*
X037912Y006340D01*
X037851Y006249D01*
X037830Y006145D01*
X037594Y005909D01*
X030330D01*
X030318Y006027D01*
X030368Y006037D01*
X030446Y006090D01*
X030498Y006168D01*
X030505Y006201D01*
X030046D01*
X030053Y006168D01*
X030105Y006090D01*
X030183Y006037D01*
X030233Y006027D01*
X030221Y005909D01*
X019568D01*
X019493Y006001D01*
X019494Y006002D01*
X019472Y006109D01*
X019411Y006201D01*
X019320Y006262D01*
X019213Y006283D01*
X019105Y006262D01*
X019047Y006223D01*
X017567D01*
X017509Y006262D01*
X017402Y006283D01*
X017294Y006262D01*
X017203Y006201D01*
X017142Y006109D01*
X017121Y006002D01*
X017121Y006001D01*
X017046Y005909D01*
X012480D01*
X012404Y005894D01*
X012338Y005851D01*
X009877Y003390D01*
X009605D01*
X009517Y003449D01*
X009409Y003470D01*
X009302Y003449D01*
X009211Y003388D01*
X009150Y003297D01*
X009128Y003189D01*
X009150Y003081D01*
X009211Y002990D01*
X009302Y002929D01*
X009409Y002908D01*
X009517Y002929D01*
X009605Y002988D01*
X009939D01*
X009975Y002936D01*
X009992Y002874D01*
X009367Y002249D01*
X009263Y002228D01*
X009171Y002167D01*
X009110Y002076D01*
X009089Y001969D01*
X009110Y001861D01*
X009171Y001770D01*
X009180Y001764D01*
X009195Y001612D01*
X008947Y001363D01*
X005888D01*
X005787Y001383D01*
X005680Y001362D01*
X005589Y001301D01*
X005528Y001210D01*
X005506Y001102D01*
X005528Y000995D01*
X005589Y000904D01*
X005680Y000843D01*
X005787Y000821D01*
X005888Y000841D01*
X009055D01*
X009155Y000861D01*
X009240Y000918D01*
X013055Y004733D01*
X014476D01*
X014577Y004713D01*
X014684Y004735D01*
X014775Y004795D01*
X014836Y004887D01*
X014858Y004994D01*
X014836Y005102D01*
X014775Y005193D01*
X014774Y005207D01*
X014870Y005311D01*
X015130D01*
X015191Y005236D01*
X015213Y005129D01*
X015274Y005038D01*
X015365Y004977D01*
X015472Y004955D01*
X015580Y004977D01*
X015671Y005038D01*
X015732Y005129D01*
X015753Y005236D01*
X015815Y005311D01*
X017159D01*
X017192Y005225D01*
X017199Y005193D01*
X017142Y005108D01*
X017121Y005000D01*
X017142Y004892D01*
X017203Y004801D01*
X017294Y004740D01*
X017402Y004719D01*
X017509Y004740D01*
X017567Y004779D01*
X019047D01*
X019105Y004740D01*
X019213Y004719D01*
X019320Y004740D01*
X019411Y004801D01*
X019472Y004892D01*
X019494Y005000D01*
X019472Y005108D01*
X019415Y005193D01*
X019422Y005225D01*
X019456Y005311D01*
X025542D01*
X025587Y005202D01*
X024464Y004079D01*
X024464Y004079D01*
X024326Y003941D01*
X024172D01*
X024084Y004000D01*
X023976Y004021D01*
X023869Y004000D01*
X023778Y003939D01*
X023717Y003848D01*
X023695Y003740D01*
X023717Y003633D01*
X023778Y003541D01*
X023869Y003481D01*
X023976Y003459D01*
X024084Y003481D01*
X024172Y003539D01*
X024409D01*
X024486Y003555D01*
X024551Y003598D01*
X024748Y003795D01*
X024748Y003795D01*
X026106Y005153D01*
X026224Y005153D01*
Y004272D01*
X027130D01*
Y004554D01*
X027248Y004577D01*
X027282Y004496D01*
X027354Y004401D01*
X027449Y004329D01*
X027559Y004283D01*
X027677Y004268D01*
X027795Y004283D01*
X027905Y004329D01*
X028000Y004401D01*
X028073Y004496D01*
X028118Y004606D01*
X028236D01*
X028282Y004496D01*
X028354Y004401D01*
X028449Y004329D01*
X028559Y004283D01*
X028677Y004268D01*
X028795Y004283D01*
X028905Y004329D01*
X029000Y004401D01*
X029073Y004496D01*
X029118Y004606D01*
X029134Y004724D01*
X029118Y004843D01*
X029073Y004953D01*
X029009Y005036D01*
X029020Y005085D01*
X029056Y005154D01*
X037221D01*
X037321Y005054D01*
X037321Y005053D01*
X037322Y005045D01*
X037327Y005029D01*
X037339Y004971D01*
X037400Y004880D01*
X037491Y004819D01*
X037598Y004798D01*
X037706Y004819D01*
X037797Y004880D01*
X037858Y004971D01*
X037879Y005079D01*
X037858Y005186D01*
X037854Y005193D01*
X037917Y005311D01*
X037992D01*
X038069Y005326D01*
X038134Y005370D01*
X038636Y005872D01*
X038649Y005882D01*
X038651Y005882D01*
X038661Y005889D01*
X038662Y005889D01*
X038667Y005892D01*
X038667Y005892D01*
X038668Y005892D01*
X038676Y005899D01*
X038742Y005943D01*
X038803Y006034D01*
X038824Y006142D01*
X038803Y006249D01*
X038742Y006340D01*
X038651Y006401D01*
X038543Y006423D01*
D02*
G37*
G36*
X026135Y006280D02*
X025965D01*
Y006109D01*
X025998Y006116D01*
X026076Y006168D01*
X026128Y006246D01*
X026135Y006280D01*
D02*
G37*
G36*
X025846D02*
X025676D01*
X025683Y006246D01*
X025735Y006168D01*
X025813Y006116D01*
X025846Y006109D01*
Y006280D01*
D02*
G37*
G36*
X041890Y006029D02*
X041782Y006008D01*
X041691Y005947D01*
X041630Y005856D01*
X041615Y005781D01*
X041495D01*
X041480Y005856D01*
X041419Y005947D01*
X041328Y006008D01*
X041220Y006029D01*
X041113Y006008D01*
X041022Y005947D01*
X040961Y005856D01*
X040939Y005748D01*
X040961Y005641D01*
X041022Y005549D01*
X041113Y005488D01*
X041220Y005467D01*
X041328Y005488D01*
X041419Y005549D01*
X041480Y005641D01*
X041495Y005715D01*
X041615D01*
X041630Y005641D01*
X041691Y005549D01*
X041782Y005488D01*
X041890Y005467D01*
X041997Y005488D01*
X042088Y005549D01*
X042149Y005641D01*
X042171Y005748D01*
X042149Y005856D01*
X042088Y005947D01*
X041997Y006008D01*
X041890Y006029D01*
D02*
G37*
G36*
X047756Y005753D02*
X047648Y005732D01*
X047557Y005671D01*
X047496Y005580D01*
X047475Y005472D01*
X047496Y005365D01*
X047557Y005274D01*
X047648Y005213D01*
X047756Y005191D01*
X047863Y005213D01*
X047955Y005274D01*
X048016Y005365D01*
X048037Y005472D01*
X048016Y005580D01*
X047955Y005671D01*
X047863Y005732D01*
X047756Y005753D01*
D02*
G37*
G36*
X022402Y005124D02*
X022294Y005102D01*
X022205Y005042D01*
X022115Y005102D01*
X022008Y005124D01*
X021900Y005102D01*
X021811Y005042D01*
X021722Y005102D01*
X021614Y005124D01*
X021507Y005102D01*
X021417Y005042D01*
X021328Y005102D01*
X021220Y005124D01*
X021113Y005102D01*
X021022Y005041D01*
X020961Y004950D01*
X020939Y004843D01*
X020961Y004735D01*
X021021Y004646D01*
X020961Y004556D01*
X020939Y004449D01*
X020961Y004341D01*
X021021Y004252D01*
X020961Y004163D01*
X020939Y004055D01*
X020961Y003948D01*
X021021Y003858D01*
X020961Y003769D01*
X020939Y003661D01*
X020961Y003554D01*
X021022Y003463D01*
X021113Y003402D01*
X021220Y003380D01*
X021328Y003402D01*
X021417Y003462D01*
X021507Y003402D01*
X021614Y003380D01*
X021722Y003402D01*
X021811Y003462D01*
X021900Y003402D01*
X022008Y003380D01*
X022115Y003402D01*
X022205Y003462D01*
X022294Y003402D01*
X022402Y003380D01*
X022509Y003402D01*
X022600Y003463D01*
X022661Y003554D01*
X022683Y003661D01*
X022661Y003769D01*
X022601Y003858D01*
X022661Y003948D01*
X022683Y004055D01*
X022661Y004163D01*
X022601Y004252D01*
X022661Y004341D01*
X022683Y004449D01*
X022661Y004556D01*
X022601Y004646D01*
X022661Y004735D01*
X022683Y004843D01*
X022661Y004950D01*
X022600Y005041D01*
X022509Y005102D01*
X022402Y005124D01*
D02*
G37*
G36*
X019213Y004295D02*
X019105Y004273D01*
X019047Y004235D01*
X017567D01*
X017509Y004273D01*
X017402Y004295D01*
X017294Y004273D01*
X017203Y004212D01*
X017142Y004121D01*
X017121Y004014D01*
X017142Y003906D01*
X017203Y003815D01*
X017294Y003754D01*
X017402Y003733D01*
X017509Y003754D01*
X017567Y003793D01*
X019047D01*
X019105Y003754D01*
X019213Y003733D01*
X019320Y003754D01*
X019411Y003815D01*
X019472Y003906D01*
X019494Y004014D01*
X019472Y004121D01*
X019411Y004212D01*
X019320Y004273D01*
X019213Y004295D01*
D02*
G37*
G36*
X015669Y004793D02*
X015562Y004771D01*
X015471Y004710D01*
X015410Y004619D01*
X015388Y004512D01*
X015410Y004404D01*
X015471Y004313D01*
X015562Y004252D01*
X015669Y004231D01*
X015777Y004252D01*
X015868Y004313D01*
X015929Y004404D01*
X015950Y004512D01*
X015929Y004619D01*
X015868Y004710D01*
X015777Y004771D01*
X015669Y004793D01*
D02*
G37*
G36*
X006654Y004139D02*
X006546Y004118D01*
X006455Y004057D01*
X006394Y003966D01*
X006373Y003858D01*
X006394Y003751D01*
X006455Y003660D01*
X006546Y003599D01*
X006654Y003577D01*
X006761Y003599D01*
X006852Y003660D01*
X006913Y003751D01*
X006935Y003858D01*
X006913Y003966D01*
X006852Y004057D01*
X006761Y004118D01*
X006654Y004139D01*
D02*
G37*
G36*
X015669Y003793D02*
X015562Y003771D01*
X015471Y003711D01*
X015410Y003619D01*
X015388Y003512D01*
X015410Y003404D01*
X015471Y003313D01*
X015562Y003252D01*
X015669Y003231D01*
X015777Y003252D01*
X015868Y003313D01*
X015929Y003404D01*
X015950Y003512D01*
X015929Y003619D01*
X015868Y003711D01*
X015777Y003771D01*
X015669Y003793D01*
D02*
G37*
G36*
X019567Y003706D02*
X019459Y003685D01*
X019368Y003624D01*
X019307Y003533D01*
X019286Y003425D01*
X019296Y003377D01*
X019215Y003276D01*
X019205Y003272D01*
X019105Y003252D01*
X019047Y003213D01*
X017567D01*
X017509Y003252D01*
X017402Y003273D01*
X017294Y003252D01*
X017203Y003191D01*
X017142Y003100D01*
X017121Y002992D01*
X017135Y002918D01*
X017067Y002800D01*
X016988D01*
X016888Y002780D01*
X016804Y002724D01*
X015869Y001789D01*
X010987D01*
X010886Y001810D01*
X010778Y001788D01*
X010687Y001727D01*
X010626Y001636D01*
X010605Y001529D01*
X010626Y001421D01*
X010687Y001330D01*
X010778Y001269D01*
X010886Y001248D01*
X010987Y001268D01*
X015977D01*
X016077Y001287D01*
X016162Y001344D01*
X016323Y001505D01*
X016415Y001430D01*
X016357Y001343D01*
X016332Y001220D01*
X016357Y001098D01*
X016426Y000993D01*
X016531Y000924D01*
X016654Y000899D01*
X016776Y000924D01*
X016881Y000993D01*
X016950Y001098D01*
X016975Y001220D01*
X016950Y001343D01*
X016881Y001448D01*
X016776Y001517D01*
X016654Y001542D01*
X016531Y001517D01*
X016444Y001459D01*
X016369Y001551D01*
X017043Y002225D01*
X017120Y002216D01*
X017202Y002100D01*
X017199Y002087D01*
X017221Y001979D01*
X017282Y001888D01*
X017373Y001827D01*
X017480Y001806D01*
X017588Y001827D01*
X017679Y001888D01*
X017740Y001979D01*
X017761Y002087D01*
X017747Y002160D01*
X017815Y002278D01*
X018442D01*
X018543Y002258D01*
X018651Y002280D01*
X018742Y002341D01*
X018803Y002432D01*
X018824Y002539D01*
X018803Y002647D01*
X018799Y002653D01*
X018862Y002771D01*
X019047D01*
X019105Y002733D01*
X019213Y002711D01*
X019320Y002733D01*
X019411Y002793D01*
X019472Y002885D01*
X019494Y002992D01*
X019567Y003031D01*
X019640Y002992D01*
X019662Y002885D01*
X019723Y002793D01*
X019814Y002733D01*
X019921Y002711D01*
X020029Y002733D01*
X020120Y002793D01*
X020181Y002885D01*
X020202Y002992D01*
X020181Y003100D01*
X020120Y003191D01*
X020029Y003252D01*
X019929Y003272D01*
X019919Y003276D01*
X019838Y003377D01*
X019848Y003425D01*
X019827Y003533D01*
X019766Y003624D01*
X019674Y003685D01*
X019567Y003706D01*
D02*
G37*
G36*
X015669Y002793D02*
X015562Y002771D01*
X015471Y002710D01*
X015410Y002619D01*
X015388Y002512D01*
X015410Y002404D01*
X015471Y002313D01*
X015562Y002252D01*
X015669Y002231D01*
X015777Y002252D01*
X015868Y002313D01*
X015929Y002404D01*
X015950Y002512D01*
X015929Y002619D01*
X015868Y002710D01*
X015777Y002771D01*
X015669Y002793D01*
D02*
G37*
G36*
X045142Y002714D02*
X045034Y002693D01*
X044943Y002632D01*
X044882Y002541D01*
X044861Y002433D01*
X044882Y002326D01*
X044943Y002234D01*
X045034Y002173D01*
X045142Y002152D01*
X045249Y002173D01*
X045340Y002234D01*
X045401Y002326D01*
X045423Y002433D01*
X045401Y002541D01*
X045340Y002632D01*
X045249Y002693D01*
X045142Y002714D01*
D02*
G37*
G36*
X043134Y002706D02*
X043026Y002685D01*
X042935Y002624D01*
X042874Y002533D01*
X042853Y002425D01*
X042874Y002318D01*
X042935Y002227D01*
X043026Y002166D01*
X043134Y002144D01*
X043241Y002166D01*
X043333Y002227D01*
X043393Y002318D01*
X043415Y002425D01*
X043393Y002533D01*
X043333Y002624D01*
X043241Y002685D01*
X043134Y002706D01*
D02*
G37*
G36*
X041142Y002698D02*
X041034Y002677D01*
X040943Y002616D01*
X040882Y002525D01*
X040861Y002417D01*
X040882Y002310D01*
X040943Y002219D01*
X041034Y002158D01*
X041142Y002136D01*
X041249Y002158D01*
X041340Y002219D01*
X041401Y002310D01*
X041423Y002417D01*
X041401Y002525D01*
X041340Y002616D01*
X041249Y002677D01*
X041142Y002698D01*
D02*
G37*
G36*
X035472Y002288D02*
X035349Y002271D01*
X035234Y002224D01*
X035135Y002148D01*
X035060Y002049D01*
X035044Y002012D01*
X034916D01*
X034901Y002049D01*
X034825Y002148D01*
X034726Y002224D01*
X034612Y002271D01*
X034488Y002288D01*
X034365Y002271D01*
X034250Y002224D01*
X034151Y002148D01*
X034076Y002049D01*
X034028Y001934D01*
X034012Y001811D01*
X034028Y001688D01*
X034076Y001573D01*
X034151Y001474D01*
X034250Y001398D01*
X034365Y001351D01*
X034488Y001335D01*
X034612Y001351D01*
X034726Y001398D01*
X034825Y001474D01*
X034901Y001573D01*
X034916Y001610D01*
X035044D01*
X035060Y001573D01*
X035135Y001474D01*
X035234Y001398D01*
X035349Y001351D01*
X035472Y001335D01*
X035596Y001351D01*
X035711Y001398D01*
X035809Y001474D01*
X035885Y001573D01*
X035925Y001670D01*
X035931Y001671D01*
X035996Y001677D01*
X036047Y001668D01*
X036078Y001593D01*
X036148Y001502D01*
X036238Y001433D01*
X036344Y001389D01*
X036398Y001382D01*
Y001811D01*
Y002240D01*
X036344Y002233D01*
X036238Y002189D01*
X036148Y002120D01*
X036078Y002029D01*
X036047Y001954D01*
X035996Y001945D01*
X035931Y001951D01*
X035925Y001953D01*
X035885Y002049D01*
X035809Y002148D01*
X035711Y002224D01*
X035596Y002271D01*
X035472Y002288D01*
D02*
G37*
G36*
X027008D02*
X026885Y002271D01*
X026770Y002224D01*
X026671Y002148D01*
X026595Y002049D01*
X026580Y002012D01*
X026452D01*
X026436Y002049D01*
X026361Y002148D01*
X026262Y002224D01*
X026147Y002271D01*
X026024Y002288D01*
X025900Y002271D01*
X025785Y002224D01*
X025687Y002148D01*
X025611Y002049D01*
X025563Y001934D01*
X025547Y001811D01*
X025563Y001688D01*
X025611Y001573D01*
X025687Y001474D01*
X025785Y001398D01*
X025900Y001351D01*
X026024Y001335D01*
X026147Y001351D01*
X026262Y001398D01*
X026361Y001474D01*
X026436Y001573D01*
X026452Y001610D01*
X026580D01*
X026595Y001573D01*
X026671Y001474D01*
X026770Y001398D01*
X026885Y001351D01*
X027008Y001335D01*
X027131Y001351D01*
X027246Y001398D01*
X027345Y001474D01*
X027421Y001573D01*
X027461Y001670D01*
X027467Y001671D01*
X027531Y001677D01*
X027583Y001668D01*
X027614Y001593D01*
X027683Y001502D01*
X027774Y001433D01*
X027879Y001389D01*
X027933Y001382D01*
Y001811D01*
Y002240D01*
X027879Y002233D01*
X027774Y002189D01*
X027683Y002120D01*
X027614Y002029D01*
X027583Y001954D01*
X027531Y001945D01*
X027467Y001951D01*
X027461Y001953D01*
X027421Y002049D01*
X027345Y002148D01*
X027246Y002224D01*
X027131Y002271D01*
X027008Y002288D01*
D02*
G37*
G36*
X036516Y002240D02*
Y001870D01*
X036886D01*
X036879Y001924D01*
X036835Y002029D01*
X036766Y002120D01*
X036675Y002189D01*
X036570Y002233D01*
X036516Y002240D01*
D02*
G37*
G36*
X031791D02*
Y001870D01*
X032161D01*
X032154Y001924D01*
X032111Y002029D01*
X032041Y002120D01*
X031951Y002189D01*
X031845Y002233D01*
X031791Y002240D01*
D02*
G37*
G36*
X028051D02*
Y001870D01*
X028421D01*
X028414Y001924D01*
X028370Y002029D01*
X028301Y002120D01*
X028211Y002189D01*
X028105Y002233D01*
X028051Y002240D01*
D02*
G37*
G36*
X022323Y002761D02*
X022215Y002740D01*
X022124Y002679D01*
X022063Y002588D01*
X022042Y002480D01*
X022063Y002373D01*
X022124Y002282D01*
X022215Y002221D01*
X022250Y002214D01*
X022305Y002085D01*
X022299Y002076D01*
X022278Y001969D01*
X022299Y001861D01*
X022360Y001770D01*
X022452Y001709D01*
X022559Y001688D01*
X022667Y001709D01*
X022758Y001770D01*
X022819Y001861D01*
X022840Y001969D01*
X022819Y002076D01*
X022758Y002167D01*
X022667Y002228D01*
X022632Y002235D01*
X022577Y002364D01*
X022582Y002373D01*
X022604Y002480D01*
X022582Y002588D01*
X022522Y002679D01*
X022430Y002740D01*
X022323Y002761D01*
D02*
G37*
G36*
X036886Y001752D02*
X036516D01*
Y001382D01*
X036570Y001389D01*
X036675Y001433D01*
X036766Y001502D01*
X036835Y001593D01*
X036879Y001698D01*
X036886Y001752D01*
D02*
G37*
G36*
X032161D02*
X031791D01*
Y001382D01*
X031845Y001389D01*
X031951Y001433D01*
X032041Y001502D01*
X032111Y001593D01*
X032154Y001698D01*
X032161Y001752D01*
D02*
G37*
G36*
X030748Y002288D02*
X030625Y002271D01*
X030510Y002224D01*
X030411Y002148D01*
X030335Y002049D01*
X030288Y001934D01*
X030272Y001811D01*
X030288Y001688D01*
X030335Y001573D01*
X030411Y001474D01*
X030510Y001398D01*
X030625Y001351D01*
X030748Y001335D01*
X030871Y001351D01*
X030986Y001398D01*
X031085Y001474D01*
X031161Y001573D01*
X031201Y001670D01*
X031207Y001671D01*
X031271Y001677D01*
X031323Y001668D01*
X031354Y001593D01*
X031423Y001502D01*
X031514Y001433D01*
X031619Y001389D01*
X031673Y001382D01*
Y001811D01*
Y002240D01*
X031619Y002233D01*
X031514Y002189D01*
X031423Y002120D01*
X031354Y002029D01*
X031323Y001954D01*
X031271Y001945D01*
X031207Y001951D01*
X031201Y001953D01*
X031161Y002049D01*
X031085Y002148D01*
X030986Y002224D01*
X030871Y002271D01*
X030748Y002288D01*
D02*
G37*
G36*
X028421Y001752D02*
X028051D01*
Y001382D01*
X028105Y001389D01*
X028211Y001433D01*
X028301Y001502D01*
X028370Y001593D01*
X028414Y001698D01*
X028421Y001752D01*
D02*
G37*
G36*
X020827Y001659D02*
X020719Y001638D01*
X020628Y001577D01*
X020567Y001485D01*
X020546Y001378D01*
X020567Y001270D01*
X020628Y001179D01*
X020719Y001118D01*
X020827Y001097D01*
X020934Y001118D01*
X021025Y001179D01*
X021086Y001270D01*
X021108Y001378D01*
X021086Y001485D01*
X021025Y001577D01*
X020934Y001638D01*
X020827Y001659D01*
D02*
G37*
%LPD*%
G36*
X038120Y025565D02*
X037707D01*
X037709Y025569D01*
X037710Y025576D01*
X037712Y025586D01*
X037714Y025617D01*
X037716Y025718D01*
X037717Y025752D01*
X038110D01*
X038120Y025565D01*
D02*
G37*
G36*
X047317Y014406D02*
X047309Y014414D01*
X047300Y014421D01*
X047291Y014428D01*
X047281Y014433D01*
X047272Y014438D01*
X047262Y014442D01*
X047251Y014445D01*
X047241Y014447D01*
X047230Y014448D01*
X047219Y014449D01*
Y014528D01*
X047230Y014528D01*
X047241Y014529D01*
X047251Y014531D01*
X047262Y014534D01*
X047272Y014538D01*
X047281Y014543D01*
X047291Y014549D01*
X047300Y014555D01*
X047309Y014563D01*
X047317Y014571D01*
Y014406D01*
D02*
G37*
G36*
X046589Y014563D02*
X046598Y014555D01*
X046607Y014549D01*
X046616Y014543D01*
X046626Y014538D01*
X046636Y014534D01*
X046646Y014531D01*
X046657Y014529D01*
X046667Y014528D01*
X046678Y014528D01*
Y014449D01*
X046667Y014448D01*
X046657Y014447D01*
X046646Y014445D01*
X046636Y014442D01*
X046626Y014438D01*
X046616Y014433D01*
X046607Y014428D01*
X046598Y014421D01*
X046589Y014414D01*
X046580Y014406D01*
Y014571D01*
X046589Y014563D01*
D02*
G37*
G36*
X045508Y015301D02*
X045500Y015292D01*
X045494Y015283D01*
X045488Y015273D01*
X045483Y015264D01*
X045479Y015254D01*
X045476Y015244D01*
X045474Y015233D01*
X045473Y015222D01*
X045472Y015211D01*
X045394D01*
X045393Y015222D01*
X045392Y015233D01*
X045390Y015244D01*
X045387Y015254D01*
X045383Y015264D01*
X045378Y015273D01*
X045372Y015283D01*
X045366Y015292D01*
X045359Y015301D01*
X045350Y015309D01*
X045516D01*
X045508Y015301D01*
D02*
G37*
G36*
X048026Y013776D02*
X048017Y013784D01*
X048008Y013791D01*
X047999Y013798D01*
X047990Y013803D01*
X047980Y013808D01*
X047970Y013812D01*
X047960Y013815D01*
X047950Y013817D01*
X047939Y013818D01*
X047928Y013819D01*
Y013898D01*
X047939Y013898D01*
X047950Y013899D01*
X047960Y013902D01*
X047970Y013905D01*
X047980Y013908D01*
X047990Y013913D01*
X047999Y013919D01*
X048008Y013925D01*
X048017Y013933D01*
X048026Y013941D01*
Y013776D01*
D02*
G37*
G36*
X045841Y013933D02*
X045850Y013925D01*
X045859Y013919D01*
X045868Y013913D01*
X045878Y013908D01*
X045888Y013905D01*
X045898Y013902D01*
X045909Y013899D01*
X045919Y013898D01*
X045930Y013898D01*
Y013819D01*
X045919Y013818D01*
X045909Y013817D01*
X045898Y013815D01*
X045888Y013812D01*
X045878Y013808D01*
X045868Y013803D01*
X045859Y013798D01*
X045850Y013791D01*
X045841Y013784D01*
X045832Y013776D01*
Y013941D01*
X045841Y013933D01*
D02*
G37*
G36*
X045473Y013163D02*
X045474Y013153D01*
X045476Y013142D01*
X045479Y013132D01*
X045483Y013122D01*
X045488Y013113D01*
X045494Y013103D01*
X045500Y013094D01*
X045508Y013085D01*
X045516Y013076D01*
X045350D01*
X045359Y013085D01*
X045366Y013094D01*
X045372Y013103D01*
X045378Y013113D01*
X045383Y013122D01*
X045387Y013132D01*
X045390Y013142D01*
X045392Y013153D01*
X045393Y013163D01*
X045394Y013174D01*
X045472D01*
X045473Y013163D01*
D02*
G37*
G36*
X048972Y014198D02*
X048965Y014189D01*
X048958Y014180D01*
X048953Y014171D01*
X048948Y014161D01*
X048944Y014151D01*
X048941Y014141D01*
X048939Y014131D01*
X048937Y014120D01*
X048937Y014109D01*
X048858D01*
X048858Y014120D01*
X048857Y014131D01*
X048854Y014141D01*
X048851Y014151D01*
X048847Y014161D01*
X048843Y014171D01*
X048837Y014180D01*
X048831Y014189D01*
X048823Y014198D01*
X048815Y014207D01*
X048980D01*
X048972Y014198D01*
D02*
G37*
G36*
X046707Y012161D02*
X046716Y012154D01*
X046725Y012147D01*
X046735Y012142D01*
X046744Y012137D01*
X046754Y012133D01*
X046764Y012130D01*
X046775Y012128D01*
X046785Y012126D01*
X046796Y012126D01*
Y012047D01*
X046785Y012047D01*
X046775Y012046D01*
X046764Y012043D01*
X046754Y012040D01*
X046744Y012036D01*
X046735Y012032D01*
X046725Y012026D01*
X046716Y012020D01*
X046707Y012012D01*
X046699Y012004D01*
Y012169D01*
X046707Y012161D01*
D02*
G37*
G36*
X032676Y012717D02*
X032667Y012716D01*
X032657Y012715D01*
X032648Y012713D01*
X032639Y012710D01*
X032630Y012706D01*
X032621Y012701D01*
X032612Y012696D01*
X032603Y012689D01*
X032595Y012682D01*
X032586Y012674D01*
X032516Y012743D01*
X032525Y012752D01*
X032532Y012761D01*
X032538Y012770D01*
X032544Y012779D01*
X032549Y012788D01*
X032552Y012797D01*
X032555Y012806D01*
X032557Y012815D01*
X032559Y012824D01*
X032559Y012833D01*
X032676Y012717D01*
D02*
G37*
G36*
X032294Y011544D02*
X032295Y011533D01*
X032296Y011522D01*
X032299Y011512D01*
X032302Y011502D01*
X032305Y011493D01*
X032310Y011485D01*
X032315Y011477D01*
X032320Y011469D01*
X032327Y011462D01*
X032161D01*
X032168Y011469D01*
X032173Y011477D01*
X032178Y011485D01*
X032183Y011493D01*
X032187Y011502D01*
X032190Y011512D01*
X032192Y011522D01*
X032194Y011533D01*
X032195Y011544D01*
X032195Y011556D01*
X032293D01*
X032294Y011544D01*
D02*
G37*
G36*
X050270Y008539D02*
X050261Y008548D01*
X050252Y008555D01*
X050243Y008561D01*
X050234Y008567D01*
X050224Y008572D01*
X050214Y008576D01*
X050204Y008579D01*
X050194Y008581D01*
X050183Y008582D01*
X050172Y008583D01*
Y008661D01*
X050183Y008662D01*
X050194Y008663D01*
X050204Y008665D01*
X050214Y008668D01*
X050224Y008672D01*
X050234Y008677D01*
X050243Y008683D01*
X050252Y008689D01*
X050261Y008697D01*
X050270Y008705D01*
Y008539D01*
D02*
G37*
G36*
X048400Y008697D02*
X048409Y008689D01*
X048418Y008683D01*
X048427Y008677D01*
X048437Y008672D01*
X048447Y008668D01*
X048457Y008665D01*
X048468Y008663D01*
X048478Y008662D01*
X048489Y008661D01*
Y008583D01*
X048478Y008582D01*
X048468Y008581D01*
X048457Y008579D01*
X048447Y008576D01*
X048437Y008572D01*
X048427Y008567D01*
X048418Y008561D01*
X048409Y008555D01*
X048400Y008548D01*
X048391Y008539D01*
Y008705D01*
X048400Y008697D01*
D02*
G37*
G36*
X031451Y008264D02*
X031444Y008270D01*
X031437Y008276D01*
X031429Y008281D01*
X031420Y008285D01*
X031411Y008289D01*
X031402Y008292D01*
X031391Y008294D01*
X031381Y008296D01*
X031369Y008297D01*
X031357Y008297D01*
Y008396D01*
X031369Y008396D01*
X031381Y008397D01*
X031391Y008399D01*
X031402Y008401D01*
X031411Y008404D01*
X031420Y008408D01*
X031429Y008412D01*
X031437Y008417D01*
X031444Y008423D01*
X031451Y008429D01*
Y008264D01*
D02*
G37*
G36*
X030446Y008423D02*
X030453Y008417D01*
X030461Y008412D01*
X030469Y008408D01*
X030479Y008404D01*
X030488Y008401D01*
X030498Y008399D01*
X030509Y008397D01*
X030521Y008396D01*
X030533Y008396D01*
Y008297D01*
X030521Y008297D01*
X030509Y008296D01*
X030498Y008294D01*
X030488Y008292D01*
X030479Y008289D01*
X030469Y008285D01*
X030461Y008281D01*
X030453Y008276D01*
X030446Y008270D01*
X030439Y008264D01*
Y008429D01*
X030446Y008423D01*
D02*
G37*
G36*
X024735Y006771D02*
X024741Y006767D01*
X024748Y006764D01*
X024755Y006760D01*
X024764Y006758D01*
X024773Y006756D01*
X024783Y006754D01*
X024794Y006753D01*
X024819Y006752D01*
Y006634D01*
X024806Y006634D01*
X024783Y006632D01*
X024773Y006630D01*
X024764Y006628D01*
X024755Y006625D01*
X024748Y006622D01*
X024741Y006619D01*
X024735Y006615D01*
X024730Y006610D01*
Y006776D01*
X024735Y006771D01*
D02*
G37*
G36*
X030793Y006583D02*
X030783Y006592D01*
X030772Y006601D01*
X030760Y006609D01*
X030748Y006615D01*
X030736Y006621D01*
X030723Y006626D01*
X030709Y006629D01*
X030695Y006632D01*
X030680Y006633D01*
X030665Y006634D01*
Y006752D01*
X030680Y006752D01*
X030695Y006754D01*
X030709Y006757D01*
X030723Y006760D01*
X030736Y006765D01*
X030748Y006770D01*
X030760Y006777D01*
X030772Y006785D01*
X030783Y006793D01*
X030793Y006803D01*
Y006583D01*
D02*
G37*
G36*
X038109Y006024D02*
X038097Y006023D01*
X038086Y006022D01*
X038075Y006020D01*
X038064Y006018D01*
X038054Y006014D01*
X038044Y006010D01*
X038035Y006005D01*
X038026Y005999D01*
X038017Y005992D01*
X038009Y005985D01*
X037954Y006041D01*
X037961Y006049D01*
X037968Y006057D01*
X037973Y006066D01*
X037979Y006076D01*
X037983Y006085D01*
X037986Y006095D01*
X037989Y006106D01*
X037991Y006117D01*
X037992Y006129D01*
X037992Y006141D01*
X038109Y006024D01*
D02*
G37*
G36*
X038594Y006035D02*
X038586Y006031D01*
X038568Y006021D01*
X038560Y006015D01*
X038535Y005997D01*
X038527Y005990D01*
X038511Y005975D01*
X038422Y005997D01*
X038430Y006006D01*
X038436Y006014D01*
X038441Y006023D01*
X038445Y006032D01*
X038448Y006040D01*
X038449Y006049D01*
X038449Y006058D01*
X038447Y006067D01*
X038444Y006076D01*
X038440Y006085D01*
X038594Y006035D01*
D02*
G37*
G36*
X019128Y005919D02*
X019123Y005924D01*
X019117Y005928D01*
X019111Y005931D01*
X019103Y005934D01*
X019094Y005937D01*
X019085Y005939D01*
X019075Y005941D01*
X019064Y005942D01*
X019039Y005943D01*
Y006061D01*
X019052Y006061D01*
X019075Y006063D01*
X019085Y006065D01*
X019094Y006067D01*
X019103Y006070D01*
X019111Y006073D01*
X019117Y006076D01*
X019123Y006080D01*
X019128Y006085D01*
Y005919D01*
D02*
G37*
G36*
X017491Y006080D02*
X017497Y006076D01*
X017504Y006073D01*
X017511Y006070D01*
X017520Y006067D01*
X017529Y006065D01*
X017539Y006063D01*
X017550Y006062D01*
X017575Y006061D01*
Y005943D01*
X017562Y005943D01*
X017539Y005941D01*
X017529Y005939D01*
X017520Y005937D01*
X017511Y005934D01*
X017504Y005931D01*
X017497Y005928D01*
X017491Y005924D01*
X017486Y005919D01*
Y006085D01*
X017491Y006080D01*
D02*
G37*
G36*
X037493Y005221D02*
X037502Y005215D01*
X037511Y005209D01*
X037520Y005204D01*
X037530Y005200D01*
X037540Y005198D01*
X037550Y005196D01*
X037561Y005195D01*
X037572Y005195D01*
X037584Y005196D01*
X037481Y005066D01*
X037479Y005078D01*
X037477Y005090D01*
X037474Y005101D01*
X037471Y005112D01*
X037467Y005122D01*
X037462Y005132D01*
X037456Y005141D01*
X037450Y005150D01*
X037444Y005158D01*
X037436Y005166D01*
X037485Y005229D01*
X037493Y005221D01*
D02*
G37*
G36*
X019128Y004917D02*
X019123Y004922D01*
X019117Y004926D01*
X019111Y004929D01*
X019103Y004932D01*
X019094Y004935D01*
X019085Y004937D01*
X019075Y004939D01*
X019064Y004940D01*
X019039Y004941D01*
X019039Y005059D01*
X019052Y005059D01*
X019075Y005061D01*
X019085Y005063D01*
X019094Y005065D01*
X019103Y005068D01*
X019111Y005071D01*
X019117Y005074D01*
X019123Y005078D01*
X019128Y005083D01*
X019128Y004917D01*
D02*
G37*
G36*
X017491Y005078D02*
X017497Y005074D01*
X017504Y005071D01*
X017511Y005068D01*
X017520Y005065D01*
X017529Y005063D01*
X017539Y005061D01*
X017550Y005060D01*
X017575Y005059D01*
Y004941D01*
X017562Y004941D01*
X017539Y004939D01*
X017529Y004937D01*
X017520Y004935D01*
X017511Y004932D01*
X017504Y004929D01*
X017497Y004926D01*
X017491Y004922D01*
X017486Y004917D01*
Y005083D01*
X017491Y005078D01*
D02*
G37*
G36*
X024069Y003815D02*
X024078Y003807D01*
X024087Y003801D01*
X024097Y003795D01*
X024106Y003790D01*
X024116Y003786D01*
X024127Y003783D01*
X024137Y003781D01*
X024148Y003780D01*
X024159Y003780D01*
Y003701D01*
X024148Y003700D01*
X024137Y003699D01*
X024127Y003697D01*
X024116Y003694D01*
X024106Y003690D01*
X024097Y003685D01*
X024087Y003680D01*
X024078Y003673D01*
X024069Y003666D01*
X024061Y003657D01*
Y003823D01*
X024069Y003815D01*
D02*
G37*
G36*
X009502Y003263D02*
X009511Y003256D01*
X009520Y003250D01*
X009530Y003244D01*
X009539Y003239D01*
X009549Y003235D01*
X009560Y003232D01*
X009570Y003230D01*
X009581Y003229D01*
X009592Y003228D01*
Y003150D01*
X009581Y003149D01*
X009570Y003148D01*
X009560Y003146D01*
X009549Y003143D01*
X009539Y003139D01*
X009530Y003134D01*
X009520Y003128D01*
X009511Y003122D01*
X009502Y003115D01*
X009494Y003106D01*
Y003272D01*
X009502Y003263D01*
D02*
G37*
G36*
X009527Y002070D02*
X009519Y002061D01*
X009513Y002053D01*
X009507Y002044D01*
X009502Y002035D01*
X009498Y002025D01*
X009494Y002015D01*
X009491Y002004D01*
X009490Y001993D01*
X009488Y001982D01*
X009488Y001970D01*
X009371Y002087D01*
X009383Y002087D01*
X009395Y002088D01*
X009406Y002090D01*
X009416Y002092D01*
X009427Y002096D01*
X009436Y002100D01*
X009446Y002105D01*
X009455Y002111D01*
X009463Y002118D01*
X009471Y002125D01*
X009527Y002070D01*
D02*
G37*
G36*
X019128Y003931D02*
X019123Y003936D01*
X019117Y003940D01*
X019111Y003943D01*
X019103Y003946D01*
X019094Y003949D01*
X019085Y003951D01*
X019075Y003953D01*
X019064Y003954D01*
X019039Y003955D01*
Y004073D01*
X019052Y004073D01*
X019075Y004075D01*
X019085Y004077D01*
X019094Y004079D01*
X019103Y004081D01*
X019111Y004084D01*
X019117Y004088D01*
X019123Y004092D01*
X019128Y004096D01*
Y003931D01*
D02*
G37*
G36*
X017491Y004092D02*
X017497Y004088D01*
X017504Y004084D01*
X017511Y004081D01*
X017520Y004079D01*
X017529Y004077D01*
X017539Y004075D01*
X017550Y004074D01*
X017575Y004073D01*
Y003955D01*
X017562Y003954D01*
X017539Y003953D01*
X017529Y003951D01*
X017520Y003949D01*
X017511Y003946D01*
X017504Y003943D01*
X017497Y003940D01*
X017491Y003936D01*
X017486Y003931D01*
Y004096D01*
X017491Y004092D01*
D02*
G37*
G36*
X019128Y002909D02*
X019123Y002914D01*
X019117Y002918D01*
X019111Y002921D01*
X019103Y002925D01*
X019094Y002927D01*
X019085Y002929D01*
X019075Y002931D01*
X019064Y002932D01*
X019039Y002933D01*
Y003051D01*
X019052Y003051D01*
X019075Y003053D01*
X019085Y003055D01*
X019094Y003057D01*
X019103Y003060D01*
X019111Y003063D01*
X019117Y003066D01*
X019123Y003070D01*
X019128Y003075D01*
Y002909D01*
D02*
G37*
G36*
X017491Y003070D02*
X017497Y003066D01*
X017504Y003063D01*
X017511Y003060D01*
X017520Y003057D01*
X017529Y003055D01*
X017539Y003053D01*
X017550Y003052D01*
X017575Y003051D01*
Y002933D01*
X017562Y002933D01*
X017539Y002931D01*
X017529Y002929D01*
X017520Y002927D01*
X017511Y002925D01*
X017504Y002921D01*
X017497Y002918D01*
X017491Y002914D01*
X017486Y002909D01*
Y003075D01*
X017491Y003070D01*
D02*
G37*
D11*
X032244Y012402D02*
X032677Y012835D01*
X032244Y011378D02*
Y012402D01*
X030354Y008346D02*
X031535D01*
X028661Y014291D02*
X029685D01*
X030630Y013346D02*
X031181D01*
X029685Y014291D02*
X030630Y013346D01*
X045630Y020551D02*
Y026063D01*
X044331Y027362D02*
Y028268D01*
Y027362D02*
X045630Y026063D01*
X045394Y020315D02*
X045630Y020551D01*
X041260Y027638D02*
X041968Y028346D01*
X039094Y014134D02*
X041260Y016299D01*
Y027638D01*
X039173Y010669D02*
X039409Y010433D01*
X034213Y010669D02*
X039173D01*
X033504Y009961D02*
X034213Y010669D01*
X035787Y011260D02*
X035984Y011063D01*
X038278D02*
X038711Y011496D01*
X035984Y011063D02*
X038278D01*
X031181Y013346D02*
X031850Y014016D01*
X034608D01*
X036616Y016024D01*
X045886Y017697D02*
X050492D01*
X045866Y017717D02*
X045886Y017697D01*
X050492D02*
X050512Y017677D01*
X036614Y016024D02*
Y018465D01*
X042913Y024803D02*
X044921D01*
X042087Y023976D02*
X042913Y024803D01*
X042087Y021063D02*
X042087D01*
X041575Y020551D02*
X042087Y021063D01*
X042835Y024252D02*
X044134D01*
X042402Y023819D02*
X042835Y024252D01*
X040118Y015709D02*
X040945Y016535D01*
Y017874D01*
X042677Y021142D02*
X042717D01*
X042402Y021417D02*
X042677Y021142D01*
X042402Y021417D02*
Y023819D01*
X037283Y014134D02*
X039094D01*
X042087Y021063D02*
Y023976D01*
X042165Y027677D02*
X042756Y028268D01*
X042165Y026693D02*
Y027677D01*
D12*
X037087Y013661D02*
X037628Y013120D01*
Y013110D02*
Y013120D01*
X035787Y009856D02*
X037441D01*
X014482Y005270D02*
X014724Y005512D01*
X037992D01*
X012671Y005270D02*
X014482D01*
X031220Y020000D02*
Y022480D01*
X030236Y019016D02*
X031220Y020000D01*
X030520Y015087D02*
Y019076D01*
X031654Y020210D01*
X030232Y014799D02*
X030520Y015087D01*
X031654Y020210D02*
Y020906D01*
X027835Y013858D02*
Y014094D01*
X030236Y016496D02*
Y018189D01*
X027835Y014094D02*
X030236Y016496D01*
X027441Y010984D02*
X028701D01*
X027205Y011220D02*
X027441Y010984D01*
X028937Y009606D02*
Y010236D01*
Y009606D02*
X028937Y009606D01*
X029370Y009016D02*
Y009803D01*
X028465Y010709D02*
X028937Y010236D01*
X029173Y010000D02*
X029370Y009803D01*
X025965Y010709D02*
X028465D01*
X029213Y008858D02*
X029370Y009016D01*
X025276Y008858D02*
X029213D01*
X028150Y007992D02*
X029094D01*
X030591Y009488D02*
Y011102D01*
X029094Y007992D02*
X030591Y009488D01*
X025236Y009409D02*
Y011142D01*
Y009409D02*
X025472Y009173D01*
X025236Y011142D02*
X025472Y011378D01*
X009370Y001969D02*
X012671Y005270D01*
X009961Y003189D02*
X012480Y005709D01*
X037677D02*
X038110Y006142D01*
X012480Y005709D02*
X037677D01*
X014724Y013805D02*
Y015354D01*
Y013805D02*
X016575Y011955D01*
X014724Y015354D02*
X015197Y015827D01*
X014567Y013740D02*
Y016181D01*
Y013740D02*
X016417Y011890D01*
X014567Y016181D02*
X015197Y016811D01*
X014370Y013701D02*
Y017008D01*
X015787Y018425D01*
X014370Y013701D02*
X016260Y011811D01*
X014921Y014567D02*
X015197Y014843D01*
X014921Y013898D02*
Y014567D01*
Y013898D02*
X016732Y012087D01*
X016890Y010079D02*
X017283Y009685D01*
X019528D01*
X016890Y010079D02*
Y012205D01*
X016732Y009921D02*
X017260Y009394D01*
X019280D01*
X016732Y009921D02*
Y012087D01*
X017236Y009102D02*
X019031D01*
X016575Y009764D02*
Y011955D01*
Y009764D02*
X017236Y009102D01*
X016417Y009606D02*
X017213Y008811D01*
X018783D01*
X016417Y009606D02*
Y011890D01*
X017189Y008520D02*
X018535D01*
X016260Y009449D02*
Y011811D01*
Y009449D02*
X017189Y008520D01*
X016102Y009291D02*
X017165Y008228D01*
X018287D01*
X016102Y009291D02*
Y011732D01*
X015945Y009134D02*
Y011614D01*
Y009134D02*
X017142Y007937D01*
X018039D01*
X017118Y007646D02*
X017791D01*
X015787Y008976D02*
Y011535D01*
Y008976D02*
X017118Y007646D01*
X017095Y007354D02*
X017543D01*
X015630Y008819D02*
X017095Y007354D01*
X015630Y008819D02*
Y010354D01*
X015433Y008701D02*
Y010039D01*
X017016Y007118D02*
X017198D01*
X015433Y008701D02*
X017016Y007118D01*
X017198D02*
X017253Y007063D01*
X015122Y008697D02*
X017047Y006772D01*
X015122Y008697D02*
Y009803D01*
X017253Y007063D02*
X017295D01*
X014921Y010551D02*
Y011496D01*
Y010551D02*
X015433Y010039D01*
X014921Y011496D02*
X015197Y011772D01*
X045433Y012992D02*
Y015394D01*
X046496Y014488D02*
X047402D01*
X026654Y009213D02*
Y010157D01*
X037992Y005512D02*
X038543Y006063D01*
X026024Y005354D02*
X037304D01*
X024606Y003937D02*
X026024Y005354D01*
X037304D02*
X037579Y005079D01*
X015787Y018425D02*
Y020906D01*
X015157Y021535D02*
X015787Y020906D01*
X039370Y010866D02*
X039803Y010433D01*
X032717Y010866D02*
X039370D01*
X031811Y009961D02*
X032717Y010866D01*
X039803Y003465D02*
Y010433D01*
X034990Y013661D02*
X037087D01*
X034675Y013346D02*
X034990Y013661D01*
X030039Y011929D02*
X031929Y013819D01*
Y013819D02*
X039173Y013819D01*
X045866Y018228D02*
X045869D01*
X028740Y011929D02*
X030039D01*
X039173Y013819D02*
X043583Y018228D01*
X024409Y003740D02*
X024449Y003780D01*
X024606Y003937D01*
X013780Y013543D02*
X015787Y011535D01*
X013780Y013543D02*
Y017480D01*
X015005Y018705D01*
X013976Y017283D02*
X015472Y018780D01*
X013976Y013583D02*
Y017283D01*
Y013583D02*
X015945Y011614D01*
X014173Y017047D02*
X015630Y018504D01*
X014173Y013661D02*
X016102Y011732D01*
X014173Y013661D02*
Y017047D01*
X015197Y013898D02*
Y014252D01*
Y013898D02*
X016890Y012205D01*
X015630Y018504D02*
Y020394D01*
X015157Y020866D02*
X015630Y020394D01*
X015197Y010787D02*
X015630Y010354D01*
X015472Y018780D02*
Y019567D01*
X015005Y018705D02*
X015197Y018898D01*
X015005Y018705D02*
X015005D01*
X015157Y019882D02*
X015472Y019567D01*
X043583Y018228D02*
X045866D01*
X039409Y003622D02*
Y010433D01*
X036732Y000945D02*
X039409Y003622D01*
X037008Y000669D02*
X039803Y003465D01*
X009409Y003189D02*
X009961D01*
X019685Y000669D02*
X037008D01*
X019213Y005000D02*
X019213Y005000D01*
X024567Y009567D02*
X025276Y008858D01*
X023976Y009567D02*
X024567D01*
X037579Y005079D02*
X037598D01*
X023976Y003740D02*
X024409D01*
X021969Y000945D02*
X036732D01*
X048307Y008622D02*
X050354D01*
X028661Y013858D02*
X029646D01*
X030276Y013228D01*
X047638Y012087D02*
X048898Y013346D01*
X046614Y012087D02*
X047638D01*
X048898Y013346D02*
Y014291D01*
X045748Y013858D02*
X045787D01*
X045827D02*
X048110D01*
X045787Y013819D02*
X045827Y013858D01*
D13*
X005787Y001102D02*
X009055D01*
X012947Y004994D01*
X007008Y005276D02*
X007756Y004528D01*
X001772Y005276D02*
X007008D01*
X012947Y004994D02*
X014577D01*
X016988Y002539D02*
X018543D01*
X015977Y001529D02*
X016988Y002539D01*
X010886Y001529D02*
X015977D01*
X030852Y013858D02*
Y017884D01*
Y018451D01*
X031462Y019060D01*
X005315Y023307D02*
X005433Y023425D01*
D15*
X003969Y008747D02*
X006739D01*
X003110Y009606D02*
X003969Y008747D01*
X006739D02*
X007165Y009173D01*
X017402Y006002D02*
X019213D01*
X025520Y018701D02*
X025540D01*
X025307Y018488D02*
X025520Y018701D01*
X024921Y018858D02*
Y020906D01*
X025307Y017606D02*
Y018488D01*
X003110Y009606D02*
Y012402D01*
X002362Y013150D02*
X003110Y012402D01*
X001772Y013150D02*
X002362D01*
X017402Y005000D02*
X019213D01*
X024646Y006693D02*
X030906D01*
X034646Y023543D02*
X035433Y024331D01*
X034252Y023543D02*
X034646D01*
X008937Y003858D02*
Y004134D01*
X006811Y006260D02*
X008937Y004134D01*
X001772Y006260D02*
X006811D01*
X034252Y022490D02*
Y023543D01*
Y022018D02*
Y022490D01*
Y021545D02*
Y022018D01*
X017402Y002992D02*
X019213D01*
X003268Y007638D02*
X008110D01*
X002677Y008228D02*
X003268Y007638D01*
X001772Y008228D02*
X002677D01*
X003661Y008150D02*
X007165D01*
X002638Y009173D02*
X003661Y008150D01*
X001890Y009173D02*
X002638D01*
X008110Y007638D02*
X008898Y006850D01*
X017402Y004014D02*
X019213D01*
X008622Y004882D02*
X008937D01*
X006260Y007244D02*
X008622Y004882D01*
X001772Y007244D02*
X006260D01*
D16*
X017126Y019055D02*
X017244Y019173D01*
X017126Y018071D02*
Y019055D01*
Y018071D02*
X018059Y017138D01*
X023780Y018346D02*
X024921D01*
D81*
X028140Y017486D02*
D03*
X027640D02*
D03*
Y018036D02*
D03*
X028140D02*
D03*
X027640Y018636D02*
D03*
X028140D02*
D03*
X027640Y019336D02*
D03*
X028140D02*
D03*
X027640Y019936D02*
D03*
X028140D02*
D03*
Y020486D02*
D03*
X027640D02*
D03*
X034252Y021545D02*
D03*
Y022490D02*
D03*
Y022018D02*
D03*
X027835Y025276D02*
D03*
X030906Y006693D02*
D03*
X016654Y001220D02*
D03*
X028285Y012963D02*
D03*
X027835Y026181D02*
D03*
D87*
X022008Y003661D02*
D03*
X021614D02*
D03*
X021220D02*
D03*
X022402D02*
D03*
X022008Y004843D02*
D03*
X021614D02*
D03*
X021220D02*
D03*
X022402D02*
D03*
Y004055D02*
D03*
Y004449D02*
D03*
X021220Y004055D02*
D03*
X021614D02*
D03*
X021220Y004449D02*
D03*
X021614D02*
D03*
X022008Y004055D02*
D03*
Y004449D02*
D03*
X024370Y018740D02*
D03*
X049488Y023898D02*
D03*
X037628Y013110D02*
D03*
X035787Y009856D02*
D03*
X037441D02*
D03*
X022047Y015647D02*
D03*
X020236Y012126D02*
D03*
X022047Y018032D02*
D03*
X021024Y021575D02*
D03*
X015472Y005236D02*
D03*
X034593Y011260D02*
D03*
X032677Y012835D02*
D03*
X032244Y011378D02*
D03*
X028701Y010984D02*
D03*
X028937Y009606D02*
D03*
X028701Y009921D02*
D03*
X029173Y010000D02*
D03*
X027205Y011220D02*
D03*
X030591Y011102D02*
D03*
X031339Y011929D02*
D03*
X030354Y008346D02*
D03*
X031535D02*
D03*
X032441Y009173D02*
D03*
X019685Y000669D02*
D03*
X022323Y002480D02*
D03*
X048898Y020079D02*
D03*
Y017165D02*
D03*
X005787Y001102D02*
D03*
X017402Y006002D02*
D03*
X019213D02*
D03*
X025273Y019331D02*
D03*
X025540Y018701D02*
D03*
X024921Y020906D02*
D03*
X025273Y020333D02*
D03*
X015122Y009803D02*
D03*
X030236Y019016D02*
D03*
X031669Y019465D02*
D03*
X045433Y015394D02*
D03*
X046496Y014488D02*
D03*
X026654Y009213D02*
D03*
Y010157D02*
D03*
X025965Y010335D02*
D03*
X019567Y003425D02*
D03*
X018039Y007937D02*
D03*
X018783Y008811D02*
D03*
X018535Y008520D02*
D03*
X017543Y007354D02*
D03*
X017295Y007063D02*
D03*
X017791Y007646D02*
D03*
X018287Y008228D02*
D03*
X019031Y009102D02*
D03*
X015157Y021535D02*
D03*
X019528Y009685D02*
D03*
X019280Y009394D02*
D03*
X036417Y010354D02*
D03*
X037953Y011496D02*
D03*
X035315Y013346D02*
D03*
X030276Y006260D02*
D03*
X017244Y019173D02*
D03*
X015669Y017559D02*
D03*
X024409Y022913D02*
D03*
X025551D02*
D03*
X019213Y014724D02*
D03*
X018780Y010669D02*
D03*
X045142Y002433D02*
D03*
X041142Y002417D02*
D03*
X013591Y009295D02*
D03*
X022283Y010315D02*
D03*
X050512Y017677D02*
D03*
X018740Y015709D02*
D03*
X026024Y017008D02*
D03*
X023346Y013110D02*
D03*
X036063Y018463D02*
D03*
X034675Y013346D02*
D03*
X037283Y014134D02*
D03*
X028661Y014291D02*
D03*
X026850Y012677D02*
D03*
X030118Y015551D02*
D03*
X037087Y016024D02*
D03*
X036616D02*
D03*
Y018463D02*
D03*
X019213Y017126D02*
D03*
X021024Y018543D02*
D03*
X018059Y017138D02*
D03*
X017638Y022638D02*
D03*
X016772D02*
D03*
X015197Y014252D02*
D03*
X015157Y020866D02*
D03*
X016378Y013150D02*
D03*
X015197Y011772D02*
D03*
X013553Y017588D02*
D03*
X015197Y018898D02*
D03*
Y010787D02*
D03*
X017047Y006772D02*
D03*
X022559Y001969D02*
D03*
X037087Y018583D02*
D03*
X007441Y027874D02*
D03*
X024921Y018858D02*
D03*
Y018346D02*
D03*
X031220Y022480D02*
D03*
X030315Y021929D02*
D03*
X027087Y021220D02*
D03*
X023780Y018346D02*
D03*
X021516Y026358D02*
D03*
X028661Y013858D02*
D03*
X015276Y028346D02*
D03*
Y029134D02*
D03*
Y027559D02*
D03*
X015197Y016811D02*
D03*
X016338Y019409D02*
D03*
X012402Y019449D02*
D03*
X015157Y019882D02*
D03*
X013701Y029134D02*
D03*
Y028346D02*
D03*
Y027559D02*
D03*
X014094Y024803D02*
D03*
Y025197D02*
D03*
X014134Y023543D02*
D03*
X014488Y028346D02*
D03*
Y027559D02*
D03*
Y029134D02*
D03*
X032992Y023031D02*
D03*
X036437Y008858D02*
D03*
X035827Y026260D02*
D03*
X031102Y024724D02*
D03*
X025965Y010709D02*
D03*
X038976Y007638D02*
D03*
X041614Y029331D02*
D03*
X047576Y026008D02*
D03*
X021024Y019213D02*
D03*
X025906Y006339D02*
D03*
X019213Y005000D02*
D03*
X028740Y011929D02*
D03*
X030280Y013228D02*
D03*
X027835Y013858D02*
D03*
X033465Y011929D02*
D03*
X038711Y011496D02*
D03*
X022126Y008819D02*
D03*
X025472Y009173D02*
D03*
X023976Y009567D02*
D03*
X037598Y005079D02*
D03*
X023976Y003740D02*
D03*
X019921Y002992D02*
D03*
X021969Y000945D02*
D03*
X040827Y029331D02*
D03*
X044921Y024803D02*
D03*
X006260Y030787D02*
D03*
X006654Y003858D02*
D03*
X004724Y003504D02*
D03*
X041575Y020551D02*
D03*
X044252Y010394D02*
D03*
X033228Y018228D02*
D03*
X040000Y017047D02*
D03*
X039606D02*
D03*
X024646Y006693D02*
D03*
X006850Y030787D02*
D03*
X050354Y008622D02*
D03*
X045433Y017874D02*
D03*
X031811Y009961D02*
D03*
X033031Y011929D02*
D03*
X025472Y011378D02*
D03*
X028150Y007992D02*
D03*
X030276Y012598D02*
D03*
X030852Y013858D02*
D03*
X045866Y018228D02*
D03*
X045748Y013858D02*
D03*
X043504Y017047D02*
D03*
X045866Y017717D02*
D03*
X039409Y010433D02*
D03*
X045394Y020315D02*
D03*
X042717Y021102D02*
D03*
X042598Y017874D02*
D03*
X040118Y015709D02*
D03*
X040945Y017874D02*
D03*
X038110Y006142D02*
D03*
X039803Y010433D02*
D03*
X038543Y006142D02*
D03*
X044134Y024252D02*
D03*
X050354Y014291D02*
D03*
Y010118D02*
D03*
X048307Y008622D02*
D03*
X041102Y009764D02*
D03*
X046614Y012087D02*
D03*
X044583Y008639D02*
D03*
X048898Y014291D02*
D03*
X025307Y017606D02*
D03*
X040984Y011850D02*
D03*
X045433Y012992D02*
D03*
X047402Y014488D02*
D03*
X048110Y013858D02*
D03*
X043134Y002425D02*
D03*
X035433Y025157D02*
D03*
X035787D02*
D03*
X020591Y026358D02*
D03*
X031654Y020906D02*
D03*
X032638Y018623D02*
D03*
X031850Y023031D02*
D03*
X015276Y029921D02*
D03*
X014488D02*
D03*
X013701D02*
D03*
X022362Y021339D02*
D03*
X021929D02*
D03*
X022795D02*
D03*
X020591Y022244D02*
D03*
X030236Y014799D02*
D03*
X007953Y026299D02*
D03*
Y028583D02*
D03*
Y028937D02*
D03*
X007244Y024567D02*
D03*
Y025472D02*
D03*
X049016Y022717D02*
D03*
X043386Y021535D02*
D03*
X035358Y020752D02*
D03*
X020827Y001378D02*
D03*
X033504Y009961D02*
D03*
X018543Y002539D02*
D03*
X009409Y004291D02*
D03*
X035315Y012402D02*
D03*
X032106Y016995D02*
D03*
X034252Y023543D02*
D03*
X047756Y005472D02*
D03*
X017480Y002087D02*
D03*
X015669Y002512D02*
D03*
Y003512D02*
D03*
Y004512D02*
D03*
X014577Y004994D02*
D03*
X012411Y010787D02*
D03*
Y015827D02*
D03*
X034593Y009856D02*
D03*
X007756Y023937D02*
D03*
X030852Y017884D02*
D03*
X041220Y005748D02*
D03*
X040236D02*
D03*
X045118Y030394D02*
D03*
X038150Y030394D02*
D03*
X010886Y001529D02*
D03*
X041890Y005748D02*
D03*
X047008Y026850D02*
D03*
X046909Y024252D02*
D03*
X047520D02*
D03*
X019213Y004014D02*
D03*
Y002992D02*
D03*
X030236Y018189D02*
D03*
X008898Y006850D02*
D03*
X038189Y019606D02*
D03*
X031462Y019060D02*
D03*
X050079Y026339D02*
D03*
X035787Y011260D02*
D03*
X045276Y006890D02*
D03*
X007756Y004528D02*
D03*
X008346Y003898D02*
D03*
X009409Y006850D02*
D03*
X007756Y022559D02*
D03*
Y021142D02*
D03*
X007165Y009173D02*
D03*
X007756Y009871D02*
D03*
Y011287D02*
D03*
Y012684D02*
D03*
Y014094D02*
D03*
Y015472D02*
D03*
Y016929D02*
D03*
Y019724D02*
D03*
Y008465D02*
D03*
X008937Y003858D02*
D03*
Y004882D02*
D03*
X009409Y005354D02*
D03*
X007165Y008150D02*
D03*
X007756Y018311D02*
D03*
X009409Y003189D02*
D03*
X009370Y001969D02*
D03*
X017402Y005000D02*
D03*
Y004014D02*
D03*
Y002992D02*
D03*
X015197Y014843D02*
D03*
Y015827D02*
D03*
X041614Y021142D02*
D03*
D88*
X001969Y001969D02*
D03*
Y029528D02*
D03*
D89*
X035067Y027835D02*
D03*
X029894D02*
D03*
D90*
X046693Y028346D02*
D03*
X045906D02*
D03*
X043543D02*
D03*
X042756D02*
D03*
X041968D02*
D03*
X041181D02*
D03*
X040394D02*
D03*
X039606D02*
D03*
X038819D02*
D03*
X044331D02*
D03*
X045118D02*
D03*
X042165Y026693D02*
D03*
X043937Y022323D02*
D03*
D91*
X038031Y028346D02*
D03*
X042953Y026693D02*
D03*
X043150Y022323D02*
D03*
D92*
X026528Y013583D02*
D03*
X038913Y025354D02*
D03*
X026677Y004724D02*
D03*
D93*
X025528Y013583D02*
D03*
X024528D02*
D03*
X037913Y025354D02*
D03*
X036913D02*
D03*
X028677Y004724D02*
D03*
X027677D02*
D03*
D94*
X026472Y029528D02*
D03*
X025472D02*
D03*
X024472D02*
D03*
D95*
X034488Y001811D02*
D03*
X035472D02*
D03*
X036457D02*
D03*
X005315Y022323D02*
D03*
Y026260D02*
D03*
Y025276D02*
D03*
Y024291D02*
D03*
Y023307D02*
D03*
Y019370D02*
D03*
Y020354D02*
D03*
Y021339D02*
D03*
Y018386D02*
D03*
Y015433D02*
D03*
Y017402D02*
D03*
Y016417D02*
D03*
Y012480D02*
D03*
Y013465D02*
D03*
Y011496D02*
D03*
Y014449D02*
D03*
Y009528D02*
D03*
Y010512D02*
D03*
X001772Y005276D02*
D03*
Y009213D02*
D03*
Y008228D02*
D03*
Y007244D02*
D03*
Y006260D02*
D03*
Y019055D02*
D03*
Y022992D02*
D03*
Y022008D02*
D03*
Y021024D02*
D03*
Y020039D02*
D03*
Y016102D02*
D03*
Y017087D02*
D03*
Y018071D02*
D03*
Y015118D02*
D03*
Y012165D02*
D03*
Y014134D02*
D03*
Y013150D02*
D03*
X030748Y001811D02*
D03*
X031732D02*
D03*
X026024D02*
D03*
X027008D02*
D03*
X027992D02*
D03*
X002008Y025591D02*
D03*
Y026575D02*
D03*
D97*
X005866Y028031D02*
D03*
Y029685D02*
D03*
D98*
X020039Y016260D02*
Y018110D01*
X019488Y015709D02*
X020039Y016260D01*
X018740Y015709D02*
X019488D01*
X020472Y018543D02*
X021024D01*
X020039Y018110D02*
X020472Y018543D01*
X027992Y011535D02*
X030945D01*
X026858Y012670D02*
X027992Y011535D01*
X030945D02*
X031339Y011929D01*
X007953Y026299D02*
X011024Y023228D01*
X014173D01*
X007953Y028583D02*
X007972Y028563D01*
Y027441D02*
Y028563D01*
X006850Y027795D02*
X006929Y027874D01*
X007441D01*
X007953Y026299D02*
Y027421D01*
X007972Y027441D01*
D99*
X025273Y019364D02*
Y020333D01*
D100*
X021102Y017441D02*
X021693Y018032D01*
X022047D01*
X021102Y014685D02*
Y017441D01*
X018780Y012362D02*
X021102Y014685D01*
X018780Y010669D02*
Y012362D01*
X031850Y026181D02*
Y028780D01*
X031102Y025433D02*
X031850Y026181D01*
X031102Y024724D02*
Y025433D01*
Y029528D02*
X031850Y028780D01*
X037165Y011496D02*
X037953D01*
X035315Y013346D02*
X037165Y011496D01*
X007244Y025472D02*
X007756D01*
X010591Y022638D01*
X016772D01*
X037079Y016031D02*
X037087Y016038D01*
X021024Y019213D02*
Y021575D01*
X010354Y021969D02*
X016969D01*
X017638Y022638D01*
X007283Y024567D02*
X007756D01*
X010354Y021969D01*
X031496Y024331D02*
X033819D01*
X033937Y024213D01*
X031102Y024724D02*
X031496Y024331D01*
X037087Y016038D02*
Y018583D01*
Y019599D01*
X037079Y019606D02*
X037087Y019599D01*
X037079Y019606D02*
X038189D01*
X036772D02*
X037079D01*
X031850Y023031D02*
X032992D01*
X035827Y026260D02*
X037559D01*
X037913Y025906D01*
Y025354D02*
Y025906D01*
X007953Y028583D02*
Y028937D01*
X035787Y020591D02*
X036772Y019606D01*
X035748Y020591D02*
X035787D01*
D101*
X005315Y026260D02*
X006850Y027795D01*
Y030748D01*
D102*
X022795Y017480D02*
X022795Y019208D01*
X022835Y012402D02*
X023110Y012677D01*
X022874Y019252D02*
X023150Y019528D01*
X022795Y019208D02*
Y020202D01*
X022795Y015395D02*
Y016732D01*
X023091Y017008D02*
X026024D01*
X022795Y012402D02*
Y012953D01*
X022795Y017008D02*
X023091D01*
X022795Y019208D02*
X022795Y021339D01*
X022943Y017156D02*
X023091Y017008D01*
X022815Y017283D02*
X022943Y017156D01*
X022795Y010827D02*
Y012402D01*
X022795Y016732D02*
Y017008D01*
X022795Y020202D02*
X023066Y020472D01*
X022815Y016732D02*
X022943Y016860D01*
X023091Y017008D01*
X022520Y019488D02*
X022795Y019213D01*
X023071Y012677D02*
X026850D01*
X022795Y012953D02*
Y014005D01*
Y012953D02*
X023071Y012677D01*
X022795Y014005D02*
Y015395D01*
Y014005D02*
X022795Y014005D01*
X022283Y010315D02*
X022795Y010827D01*
X029921Y030709D02*
X031102Y029528D01*
X026015Y030709D02*
X029921D01*
X025472Y030166D02*
X026015Y030709D01*
X025472Y029528D02*
Y030166D01*
X022795Y017008D02*
Y017480D01*
D164*
X023066Y020472D02*
D03*
D165*
X013012Y023563D02*
D03*
D166*
X018622Y023543D02*
D03*
D167*
X019311Y025098D02*
D03*
D168*
X010039Y027638D02*
D03*
D169*
X011585Y024764D02*
D03*
D170*
X035610D02*
D03*
D171*
X022343Y022795D02*
D03*
D172*
X023228Y022205D02*
D03*
D173*
X025630Y023031D02*
D03*
D174*
X024272Y023543D02*
D03*
D175*
X034705Y022461D02*
D03*
M02*
