G04*
G04 #@! TF.GenerationSoftware,Altium Limited,Altium Designer,21.6.1 (37)*
G04*
G04 Layer_Color=16711935*
%FSLAX44Y44*%
%MOMM*%
G71*
G04*
G04 #@! TF.SameCoordinates,3233E1FD-44FA-4E4D-806F-7065AC5E4394*
G04*
G04*
G04 #@! TF.FilePolarity,Negative*
G04*
G01*
G75*
%ADD63C,0.8000*%
%ADD78C,1.6000*%
%ADD79C,1.5000*%
%ADD80C,3.5000*%
%ADD81O,1.5000X2.0000*%
%ADD82C,4.0000*%
%ADD83C,1.4000*%
%ADD84R,1.5000X1.5000*%
%ADD85R,1.5000X1.5000*%
%ADD86R,1.4000X1.4000*%
%ADD87C,0.6000*%
%ADD88C,1.3000*%
D63*
X707000Y665000D02*
D03*
Y642000D02*
D03*
X785000Y170000D02*
D03*
X870000Y547250D02*
D03*
Y571250D02*
D03*
Y559250D02*
D03*
X48840Y638000D02*
D03*
X423000Y31000D02*
D03*
X714750Y444150D02*
D03*
X702050D02*
D03*
Y458120D02*
D03*
X714750D02*
D03*
X702050Y473360D02*
D03*
X714750D02*
D03*
X702050Y491140D02*
D03*
X714750D02*
D03*
X702050Y506380D02*
D03*
X714750D02*
D03*
Y520350D02*
D03*
X702050D02*
D03*
X811000Y351000D02*
D03*
D78*
X781000Y46000D02*
D03*
X806000D02*
D03*
X926000D02*
D03*
X901000D02*
D03*
X876000D02*
D03*
X661000D02*
D03*
X686000D02*
D03*
X711000D02*
D03*
X135000Y267000D02*
D03*
Y242000D02*
D03*
Y367000D02*
D03*
Y292000D02*
D03*
Y342000D02*
D03*
Y317000D02*
D03*
Y417000D02*
D03*
Y442000D02*
D03*
Y392000D02*
D03*
Y467000D02*
D03*
Y542000D02*
D03*
Y517000D02*
D03*
Y492000D02*
D03*
Y592000D02*
D03*
Y617000D02*
D03*
Y642000D02*
D03*
Y667000D02*
D03*
Y567000D02*
D03*
X45000Y334000D02*
D03*
Y359000D02*
D03*
Y309000D02*
D03*
Y384000D02*
D03*
Y459000D02*
D03*
Y434000D02*
D03*
Y409000D02*
D03*
Y509000D02*
D03*
Y534000D02*
D03*
Y559000D02*
D03*
Y584000D02*
D03*
Y484000D02*
D03*
Y134000D02*
D03*
Y234000D02*
D03*
Y209000D02*
D03*
Y184000D02*
D03*
Y159000D02*
D03*
D79*
X815000Y669200D02*
D03*
X835000D02*
D03*
X860000D02*
D03*
X790000D02*
D03*
X957000Y615000D02*
D03*
X931600D02*
D03*
X728400Y120000D02*
D03*
X703000D02*
D03*
X644000Y395400D02*
D03*
Y370000D02*
D03*
X484145Y520000D02*
D03*
Y425416D02*
D03*
X510000D02*
D03*
Y520000D02*
D03*
D80*
X890700Y705000D02*
D03*
X759300D02*
D03*
D81*
X672400Y750000D02*
D03*
X647000D02*
D03*
X621600D02*
D03*
D82*
X50000D02*
D03*
Y50000D02*
D03*
D83*
X31840Y653000D02*
D03*
Y673000D02*
D03*
X1146000Y720000D02*
D03*
X1126000D02*
D03*
X986000D02*
D03*
X1006000D02*
D03*
X1026000D02*
D03*
X1046000D02*
D03*
X1066000D02*
D03*
X1086000D02*
D03*
X1106000D02*
D03*
X1166000D02*
D03*
X1186000D02*
D03*
X1116000Y567000D02*
D03*
X1071000Y678000D02*
D03*
D84*
X982400Y615000D02*
D03*
X677600Y120000D02*
D03*
D85*
X644000Y344600D02*
D03*
D86*
X966000Y720000D02*
D03*
X1096000Y567000D02*
D03*
X1091000Y678000D02*
D03*
D87*
X159000Y782000D02*
D03*
X169000Y98000D02*
D03*
X120000Y89000D02*
D03*
X129000Y14000D02*
D03*
X1056000Y522000D02*
D03*
X1124000Y264000D02*
D03*
X844000Y463000D02*
D03*
X558000Y15000D02*
D03*
X1016000Y433000D02*
D03*
X1006000D02*
D03*
X1283000Y436000D02*
D03*
X1242000Y433000D02*
D03*
X626000Y170000D02*
D03*
X644000Y218000D02*
D03*
X677000Y204000D02*
D03*
X174000Y782000D02*
D03*
X641000Y517000D02*
D03*
X1018000Y194000D02*
D03*
X1279000Y219000D02*
D03*
X838000Y585000D02*
D03*
X802000Y159000D02*
D03*
X661000Y314000D02*
D03*
X728000Y286000D02*
D03*
X683000Y257000D02*
D03*
Y274000D02*
D03*
X909000Y250349D02*
D03*
X925000Y263000D02*
D03*
X368000Y700000D02*
D03*
X1154000Y454000D02*
D03*
X557000Y328000D02*
D03*
X808000Y253000D02*
D03*
X528975Y296296D02*
D03*
X619906Y232750D02*
D03*
X609000Y243000D02*
D03*
X562000Y217000D02*
D03*
X796000Y303000D02*
D03*
X824000Y233000D02*
D03*
X839000Y303000D02*
D03*
X666687Y279688D02*
D03*
X659500Y262000D02*
D03*
X647000Y289000D02*
D03*
X715000Y203000D02*
D03*
X769000Y320000D02*
D03*
X783650Y352000D02*
D03*
X910000Y351000D02*
D03*
X1165000Y463000D02*
D03*
X1162000Y352000D02*
D03*
X1105000Y433000D02*
D03*
X1165000Y450000D02*
D03*
X1179000Y371000D02*
D03*
X1154000Y391000D02*
D03*
X920000Y412000D02*
D03*
X947000Y359000D02*
D03*
X990000Y156000D02*
D03*
X1001000Y265000D02*
D03*
X1153000Y516000D02*
D03*
X1085000Y536000D02*
D03*
X983250Y292000D02*
D03*
X1082000Y454000D02*
D03*
X1019000Y399000D02*
D03*
X1040000Y454000D02*
D03*
X968000Y156000D02*
D03*
X1011000Y268000D02*
D03*
X957000Y165000D02*
D03*
X979000D02*
D03*
X852000Y315000D02*
D03*
X729000Y268000D02*
D03*
X1121000Y616000D02*
D03*
X1279000Y363000D02*
D03*
Y257000D02*
D03*
X1227000Y219000D02*
D03*
X1044000Y248000D02*
D03*
X1184000Y307000D02*
D03*
X1132421Y219421D02*
D03*
X315000Y494000D02*
D03*
X465000Y544000D02*
D03*
X385000Y556000D02*
D03*
X432000Y556000D02*
D03*
Y530667D02*
D03*
X1242000Y363000D02*
D03*
X642803Y447197D02*
D03*
X1041000Y301000D02*
D03*
X1154000Y330000D02*
D03*
X1204000Y371000D02*
D03*
X1222000Y352000D02*
D03*
X359000Y589000D02*
D03*
Y598000D02*
D03*
X1095600Y61600D02*
D03*
X1133000Y630000D02*
D03*
X659500Y242000D02*
D03*
X900000Y639000D02*
D03*
X909000D02*
D03*
X523000Y669500D02*
D03*
X815000Y505000D02*
D03*
X804000Y531000D02*
D03*
X770200Y551000D02*
D03*
X829000Y473025D02*
D03*
X596000Y377000D02*
D03*
X728000Y368000D02*
D03*
X707000Y340000D02*
D03*
X612875Y483000D02*
D03*
X546500Y669500D02*
D03*
X809000Y585000D02*
D03*
X388000Y740000D02*
D03*
Y720000D02*
D03*
Y700000D02*
D03*
X368000Y740000D02*
D03*
Y720000D02*
D03*
X348000Y740000D02*
D03*
Y720000D02*
D03*
X388000Y760000D02*
D03*
X368000D02*
D03*
X348000Y700000D02*
D03*
Y760000D02*
D03*
X568000Y542000D02*
D03*
X557000D02*
D03*
X579000D02*
D03*
X523000Y565000D02*
D03*
X609000Y585000D02*
D03*
X660000Y584000D02*
D03*
X688000Y539000D02*
D03*
X767500Y485500D02*
D03*
X768000Y375900D02*
D03*
X529000Y205000D02*
D03*
X769100Y336000D02*
D03*
X728000Y352000D02*
D03*
X202000Y668000D02*
D03*
Y726000D02*
D03*
Y735000D02*
D03*
X358000Y640000D02*
D03*
X631000Y525000D02*
D03*
X566000Y391000D02*
D03*
Y262000D02*
D03*
X531000Y374000D02*
D03*
X345000Y446000D02*
D03*
X184000Y624000D02*
D03*
Y647000D02*
D03*
X358000Y630000D02*
D03*
X1245000Y577000D02*
D03*
X1102000Y547000D02*
D03*
X898096Y527096D02*
D03*
X657000Y432000D02*
D03*
X90000Y350000D02*
D03*
X573000Y50000D02*
D03*
X553000Y99250D02*
D03*
X497000Y24000D02*
D03*
X529000Y35000D02*
D03*
X851000Y253000D02*
D03*
X553000Y80000D02*
D03*
X471000Y64500D02*
D03*
X793000Y421000D02*
D03*
X239000Y109000D02*
D03*
X897000Y315000D02*
D03*
X878651Y286000D02*
D03*
X815500Y431667D02*
D03*
X925501Y219499D02*
D03*
X656588Y158000D02*
D03*
X870000Y598000D02*
D03*
X1213000Y139000D02*
D03*
X386000Y459000D02*
D03*
X416000Y334000D02*
D03*
X444000Y53000D02*
D03*
X398000Y63800D02*
D03*
Y89200D02*
D03*
Y114600D02*
D03*
Y140000D02*
D03*
X370250Y126850D02*
D03*
X315250Y274000D02*
D03*
Y402000D02*
D03*
X878651Y250349D02*
D03*
X641000Y492000D02*
D03*
X197000Y608000D02*
D03*
X783650Y454250D02*
D03*
X1047000Y146000D02*
D03*
X1022000D02*
D03*
X1029000Y772000D02*
D03*
X1146000D02*
D03*
X1086000Y771998D02*
D03*
X969000D02*
D03*
X942000Y407000D02*
D03*
X941818Y457818D02*
D03*
X276500Y38825D02*
D03*
X642588Y130000D02*
D03*
X1064000Y146000D02*
D03*
X1257000Y609000D02*
D03*
X1194000Y682000D02*
D03*
X1191500Y616000D02*
D03*
X1207000D02*
D03*
X488000Y101950D02*
D03*
Y76000D02*
D03*
X431000Y223000D02*
D03*
X488000Y152450D02*
D03*
Y127000D02*
D03*
X611500Y99500D02*
D03*
X432000Y274000D02*
D03*
Y299000D02*
D03*
Y249000D02*
D03*
X768000Y462000D02*
D03*
X793000Y565000D02*
D03*
X226000Y174000D02*
D03*
X656588Y99500D02*
D03*
X970000Y498000D02*
D03*
X799125Y484125D02*
D03*
X1272000Y669000D02*
D03*
X909000Y286000D02*
D03*
X1150000Y175000D02*
D03*
X442000Y152450D02*
D03*
X197000Y115000D02*
D03*
X212000Y99000D02*
D03*
X239000Y174000D02*
D03*
X414975Y493000D02*
D03*
X630775Y485375D02*
D03*
X197000Y573000D02*
D03*
Y537000D02*
D03*
X182000Y233000D02*
D03*
X197000Y250727D02*
D03*
Y286700D02*
D03*
Y322182D02*
D03*
Y358000D02*
D03*
Y393000D02*
D03*
Y430000D02*
D03*
Y501000D02*
D03*
Y215000D02*
D03*
X227000Y98000D02*
D03*
Y124000D02*
D03*
X239000Y136000D02*
D03*
X182000Y207000D02*
D03*
X197000Y465091D02*
D03*
X239000Y81000D02*
D03*
X238000Y50000D02*
D03*
X642000Y470000D02*
D03*
X432000Y351000D02*
D03*
X442000Y127000D02*
D03*
Y101950D02*
D03*
Y76000D02*
D03*
X432000Y505333D02*
D03*
Y480000D02*
D03*
Y376667D02*
D03*
Y428000D02*
D03*
Y402333D02*
D03*
X385000Y223000D02*
D03*
X386000Y249000D02*
D03*
Y274000D02*
D03*
Y299000D02*
D03*
Y351000D02*
D03*
Y377000D02*
D03*
Y402000D02*
D03*
Y427000D02*
D03*
Y480000D02*
D03*
X385000Y505000D02*
D03*
Y530000D02*
D03*
X1057000Y537000D02*
D03*
D88*
X149000Y753000D02*
D03*
Y712000D02*
D03*
M02*
