M48
;Layer_Color=9474304
;FILE_FORMAT=4:4
METRIC,LZ
;TYPE=PLATED
T1F00S00C0.2000
T2F00S00C0.3000
T3F00S00C0.4000
T4F00S00C0.5000
T5F00S00C0.7000
T6F00S00C0.8000
T7F00S00C0.9000
T8F00S00C1.0000
T9F00S00C2.5000
T10F00S00C3.2000
;TYPE=NON_PLATED
T11F00S00C1.1000
T12F00S00C3.5000
%
T01
X00557Y00328
T02
X00129Y00014
X0012Y00089
X00169Y00098
X00212Y00099
X00227Y00098
X00239Y00109
X00227Y00124
X00239Y00136
Y00081
X00238Y0005
X002765Y00038825
X00398Y000638
Y000892
Y001146
Y0014
X0037025Y0012685
X00442Y00127
Y0010195
Y00076
X00444Y00053
X00471Y000645
X00488Y00076
Y0010195
Y00127
X00497Y00024
X00529Y00035
X00197Y00115
X00553Y0009925
Y0008
X00573Y0005
X00558Y00015
X006115Y000995
X00656588
X00642588Y0013
X010956Y000616
X01213Y00139
X01227Y00219
X01279
Y00257
Y00363
X01242
X01222Y00352
X01204Y00371
X01179
X01162Y00352
X01154Y0033
X01184Y00307
X01124Y00264
X01132421Y00219421
X0115Y00175
X01064Y00146
X01047
X01022
X0099Y00156
X00979Y00165
X00968Y00156
X00957Y00165
X01018Y00194
X01044Y00248
X01011Y00268
X01001Y00265
X0098325Y00292
X01041Y00301
X01019Y00399
X01016Y00433
X01006
X0104Y00454
X01082
X01105Y00433
X01154Y00454
X01165Y0045
Y00463
X01153Y00516
X01085Y00536
X01057Y00537
X01056Y00522
X0097Y00498
X00941818Y00457818
X00942Y00407
X00947Y00359
X01154Y00391
X01242Y00433
X01283Y00436
X0092Y00412
X0091Y00351
X00897Y00315
X00909Y00286
X00878651Y00286
Y00250349
X00851Y00253
X00808
X00824Y00233
X00839Y00303
X00852Y00315
X00796Y00303
X00769Y0032
X007691Y00336
X0078365Y00352
X00768Y003759
X00728Y00368
Y00352
X00707Y0034
X00661Y00314
X00647Y00289
X00666687Y00279688
X00683Y00274
Y00257
X006595Y00262
Y00242
X00644Y00218
X00619906Y0023275
X00609Y00243
X00566Y00262
X00562Y00217
X00626Y0017
X00656588Y00158
X00677Y00204
X00715Y00203
X00729Y00268
X00728Y00286
X00793Y00421
X008155Y00431667
X0078365Y0045425
X00768Y00462
X007675Y004855
X00799125Y00484125
X00815Y00505
X00804Y00531
X00829Y00473025
X00844Y00463
X00898096Y00527096
X00688Y00539
X00641Y00517
X00631Y00525
X00630775Y00485375
X00641Y00492
X00642Y0047
X00642803Y00447197
X00657Y00432
X00612875Y00483
X00596Y00377
X00566Y00391
X00802Y00159
X00925501Y00219499
X00925Y00263
X00909Y00250349
X00529Y00205
X00528975Y00296296
X00531Y00374
X00432Y00376667
Y00351
X00416Y00334
X00386Y00351
Y00377
Y00402
Y00427
Y00459
Y0048
X00385Y00505
Y0053
X00432Y00530667
Y00505333
Y0048
X00414975Y00493
X00432Y00428
Y00402333
Y00299
Y00274
Y00249
X00431Y00223
X00385
X00386Y00249
Y00274
Y00299
X0031525Y00274
Y00402
X00345Y00446
X00315Y00494
X00197Y00501
Y00465091
Y0043
Y00393
Y00358
Y00322182
Y002867
Y00250727
X00182Y00233
Y00207
X00197Y00215
X00226Y00174
X00239
X00442Y0015245
X00488
X00197Y00537
X0009Y0035
X00197Y00573
Y00608
X00184Y00624
Y00647
X00202Y00668
Y00726
Y00735
X00174Y00782
X00159
X00348Y0076
Y0074
X00368
X00388
Y0072
Y007
X00368
Y0072
X00348
Y007
X00358Y0064
Y0063
X00359Y00598
Y00589
X00385Y00556
X00432Y00556
X00465Y00544
X00523Y00565
Y006695
X00388Y0076
X00368
X005465Y006695
X00557Y00542
X00568
X00579
X00609Y00585
X0066Y00584
X007702Y00551
X00793Y00565
X00809Y00585
X00838
X0087Y00598
X009Y00639
X00909
X00969Y00771998
X01029Y00772
X01086Y00771998
X01146Y00772
X01194Y00682
X011915Y00616
X01207
X01257Y00609
X01245Y00577
X01272Y00669
X01133Y0063
X01121Y00616
X01102Y00547
T03
X0087Y0054725
Y0055925
Y0057125
T04
X00423Y00031
X00785Y0017
X00811Y00351
X0071475Y0044415
X0070205
Y0045812
X0071475
Y0047336
X0070205
Y0049114
X0071475
Y0050638
X0070205
Y0052035
X0071475
X00707Y00642
Y00665
T05
X0003184Y00653
Y00673
T06
X00149Y00712
Y00753
X00966Y0072
X00986
X01006
X01026
X01046
X01066
X01086
X01106
X01126
X01146
X01166
X01186
X01091Y00678
X01071
X01096Y00567
X01116
T07
X00045Y00134
X00661Y00046
X00686
X00711
X00781
X00806
X00876
X00901
X00926
X00135Y00242
Y00267
Y00292
Y00317
Y00342
Y00367
Y00392
Y00417
Y00442
Y00467
Y00492
Y00517
X00045Y00509
Y00534
Y00484
Y00459
Y00434
Y00409
Y00384
Y00359
Y00334
Y00309
Y00234
Y00209
Y00184
Y00159
Y00559
Y00584
X00135Y00592
Y00617
Y00642
Y00667
Y00567
Y00542
T08
X006776Y0012
X00703
X007284
X00644Y003446
Y0037
Y003954
X0051Y00425416
X00484145
Y0052
X0051
X006216Y0075
X00647
X006724
X0079Y006692
X00815
X00835
X0086
X009316Y00615
X00957
X009824
T09
X007593Y00705
X008907
T10
X0005Y0005
Y0075
T11
X0004884Y00638
T12
X0125Y0005
Y0075
M30
