G04*
G04 #@! TF.GenerationSoftware,Altium Limited,Altium Designer,21.6.1 (37)*
G04*
G04 Layer_Color=255*
%FSLAX44Y44*%
%MOMM*%
G71*
G04*
G04 #@! TF.SameCoordinates,3233E1FD-44FA-4E4D-806F-7065AC5E4394*
G04*
G04*
G04 #@! TF.FilePolarity,Positive*
G04*
G01*
G75*
%ADD63C,0.8000*%
%ADD78C,1.6000*%
%ADD79C,1.5000*%
%ADD80C,3.5000*%
%ADD81O,1.5000X2.0000*%
%ADD82C,4.0000*%
%ADD83C,1.4000*%
%ADD84R,1.5000X1.5000*%
%ADD85R,1.5000X1.5000*%
%ADD86R,1.4000X1.4000*%
D63*
X707000Y665000D02*
D03*
Y642000D02*
D03*
X785000Y170000D02*
D03*
X870000Y547250D02*
D03*
Y571250D02*
D03*
Y559250D02*
D03*
X48840Y638000D02*
D03*
X423000Y31000D02*
D03*
X714750Y444150D02*
D03*
X702050D02*
D03*
Y458120D02*
D03*
X714750D02*
D03*
X702050Y473360D02*
D03*
X714750D02*
D03*
X702050Y491140D02*
D03*
X714750D02*
D03*
X702050Y506380D02*
D03*
X714750D02*
D03*
Y520350D02*
D03*
X702050D02*
D03*
X811000Y351000D02*
D03*
D78*
X781000Y46000D02*
D03*
X806000D02*
D03*
X926000D02*
D03*
X901000D02*
D03*
X876000D02*
D03*
X661000D02*
D03*
X686000D02*
D03*
X711000D02*
D03*
X135000Y267000D02*
D03*
Y242000D02*
D03*
Y367000D02*
D03*
Y292000D02*
D03*
Y342000D02*
D03*
Y317000D02*
D03*
Y417000D02*
D03*
Y442000D02*
D03*
Y392000D02*
D03*
Y467000D02*
D03*
Y542000D02*
D03*
Y517000D02*
D03*
Y492000D02*
D03*
Y592000D02*
D03*
Y617000D02*
D03*
Y642000D02*
D03*
Y667000D02*
D03*
Y567000D02*
D03*
X45000Y334000D02*
D03*
Y359000D02*
D03*
Y309000D02*
D03*
Y384000D02*
D03*
Y459000D02*
D03*
Y434000D02*
D03*
Y409000D02*
D03*
Y509000D02*
D03*
Y534000D02*
D03*
Y559000D02*
D03*
Y584000D02*
D03*
Y484000D02*
D03*
Y134000D02*
D03*
Y234000D02*
D03*
Y209000D02*
D03*
Y184000D02*
D03*
Y159000D02*
D03*
D79*
X815000Y669200D02*
D03*
X835000D02*
D03*
X860000D02*
D03*
X790000D02*
D03*
X957000Y615000D02*
D03*
X931600D02*
D03*
X728400Y120000D02*
D03*
X703000D02*
D03*
X644000Y395400D02*
D03*
Y370000D02*
D03*
D80*
X890700Y705000D02*
D03*
X759300D02*
D03*
D81*
X672400Y750000D02*
D03*
X647000D02*
D03*
X621600D02*
D03*
D82*
X50000D02*
D03*
Y50000D02*
D03*
D83*
X31840Y653000D02*
D03*
Y673000D02*
D03*
X1146000Y720000D02*
D03*
X1126000D02*
D03*
X986000D02*
D03*
X1006000D02*
D03*
X1026000D02*
D03*
X1046000D02*
D03*
X1066000D02*
D03*
X1086000D02*
D03*
X1106000D02*
D03*
X1166000D02*
D03*
X1186000D02*
D03*
X1116000Y567000D02*
D03*
X1071000Y678000D02*
D03*
D84*
X982400Y615000D02*
D03*
X677600Y120000D02*
D03*
D85*
X644000Y344600D02*
D03*
D86*
X966000Y720000D02*
D03*
X1096000Y567000D02*
D03*
X1091000Y678000D02*
D03*
M02*
