M48
;Layer_Color=9474304
;FILE_FORMAT=4:4
METRIC,LZ
;TYPE=PLATED
T1F00S00C0.3000
T2F00S00C0.4000
T3F00S00C0.5000
T4F00S00C0.8000
T5F00S00C0.9000
T6F00S00C1.0000
T7F00S00C2.5000
T8F00S00C3.2000
;TYPE=NON_PLATED
T9F00S00C3.2000
%
T01
X0012Y00089
X00169Y00098
X00212Y00099
X00227Y00098
X00239Y00109
X00227Y00124
X00239Y00136
Y00081
X00238Y0005
X002765Y00038825
X00147Y00028
X00197Y00115
X0037025Y0012685
X00393Y00133
X00398Y001146
Y000892
Y000638
X00442Y00076
X00444Y00053
X00471Y000645
X00488Y00076
X00506Y00076
X00497Y00087
X00488Y0010195
Y00127
X00442Y00127
Y0010195
X00539Y00103
Y00093
Y00113
Y00123
X00529Y00035
X005Y00017
X00558Y00024
X00573Y0005
X00567Y00063
X00569Y00093
X00559
X00549
Y00103
Y00113
Y00123
X00559
X00569
Y00113
Y00103
X00559
Y00113
X00609Y00095
X00955Y00129
X01045Y000614
X010956Y000616
X011466Y000618
X01213Y00139
X01227Y00219
X01279
Y00257
Y00363
X01242
X01222Y00352
X01204Y00368
X01181
X01162Y00352
X01154Y0033
X01184Y00307
X01124Y00264
X01132421Y00219421
X0115Y00175
X01064Y00146
X01047
X01022
X00979Y00156
X00968
X0099Y00194
X01001Y00265
X01011
X01044Y00248
X01041Y00301
X0098325Y00292
X00964
X0095575Y00333
X00947Y00359
X00942Y00407
Y00472
X0097Y00498
X01006Y00433
X01016
X01019Y00399
X0104Y00454
X01082
X01105Y00433
X01154Y00454
X01165Y0045
Y00463
X01153Y00516
X01085Y00536
X01057Y00537
X01056Y00522
X01242Y0051
Y00436
X01283Y00449
X01154Y00391
X00951Y00250349
X00925Y00263
X00909Y00250349
X00878651
X00851Y00253
X00808
X00824Y00233
X00801Y00212
X00771
X00769Y00159
X00715Y00203
X00735Y00244
X00729Y00252
X00741Y00254
X00729Y00279
X0073Y00303
X00728Y00352
Y00363
X00707Y00352
X00682Y00322
X00691Y00285
X00677Y00258
X006595Y002625
Y00272
X00647Y00289
Y00233
X00677Y00234
X00609Y00243
X00566Y00262
X00562Y00224
X00626Y0017
X00658Y00161
X00593Y00333
X0056Y00397446
Y00458
X00604Y00466
X00619Y00476
X00633Y00479
Y00466
X00648713Y00475
X00641947Y00491
Y00516447
X00633Y00531
X00688Y00539
X00804Y00531
X008044Y004944
X00799125Y00484125
X00768Y00483
Y00462
X0078365Y0045425
X008155Y00431667
X00829Y00473025
X00844Y00463
X00916Y0046895
X0093005
Y00407
X00897Y00339
X00880747
X00897Y00315
X00909Y00286
X00878651Y00286
X0085Y00303
X00839
X0083Y00326
X00819Y00289
X00796Y00303
X00777Y00282
X00769Y0032
X007691Y00336
X0078365Y00352
X00768Y003759
X00765Y00395
X00661Y00432
X00642803Y00447197
X00898096Y00527096
X00925501Y00225
X004834Y002312
X004771Y002238
X00470799Y002164
X004645Y00209
X00458199Y002016
X00451899Y001942
X00445599Y001868
X00439299Y001794
X00432999Y00172
X00442Y0015245
X00488
X004897Y002386
X00496Y00246
X00477Y00271
X00514Y00308
X00488Y00374
X00476Y00399
X00488Y00435
X004587Y004353
X00398Y00446
X00386Y00427
Y00402
Y00377
Y00362
X00416Y00334
X00386Y00299
Y00274
X003841Y00249
X003452Y002361
X0031525Y00274
Y00402
X00344257Y00446743
X00386Y0048
X00385Y00505
Y0053
X00414975Y00493
X00438Y00487
X00534Y00488
X00534Y00471
X00315Y00494
X00197Y00501
Y00465091
Y0043
Y00393
Y00358
Y00322182
Y002867
Y00250727
X00182Y00233
Y00207
X00197Y00215
X00226Y00174
X00239
X00197Y00537
Y00573
Y00608
X00184Y00624
Y00647
X00202Y00668
X00189Y00708
X00202Y00726
Y00735
X00174Y00782
X00159
X00348Y0076
Y0074
Y0072
Y007
X00368
Y0072
X00388
Y007
Y0074
X00368
X00368Y0076
X00388
X00358Y0064
Y0063
X00359Y00598
X00385Y00547
X00426Y00575
X00448
X00523Y00565
X00534Y00548
X00523Y006695
X005465
X00557Y00542
X00568
X00579
X0062Y00582
X00649
X0077Y00557
X00793Y00571
X00809Y00585
X00838
X0087Y00598
X009Y00639
X00909
X0091Y00667
X0079Y00628
X00969Y00771998
X01037Y00745
X01057
X01146Y00772
X01194Y00682
X0120842Y00660604
X01207Y00616
X011915
X01141Y0063
X01121Y00616
X01102Y00547
X01245Y00577
X01257Y00607
X01272Y00669
T02
X0087Y0054725
Y0055925
Y0057125
T03
X00423Y00031
X00785Y0017
X0071845Y00329254
X0071475Y0044415
X0070205
Y0045812
X0071475
Y0047336
X0070205
Y0049114
X0071475
Y0050638
X0070205
Y0052035
X0071475
X00707Y00642
Y00665
T04
X00149Y00712
Y00754
X00966Y0072
X00986
X01006
X01026
X01046
X01066
X01086
X01106
X01126
X01146
X01166
X01186
X01091Y00678
X01071
X01096Y00567
X01116
T05
X00045Y00134
X00661Y00046
X00686
X00711
X00781
X00806
X00876
X00901
X00926
X00135Y00242
Y00267
Y00292
Y00317
Y00342
Y00367
Y00392
Y00417
Y00442
Y00467
Y00492
Y00517
X00045Y00509
Y00484
Y00459
Y00434
Y00409
Y00384
Y00359
Y00334
Y00309
Y00234
Y00209
Y00184
Y00159
Y00534
Y00559
Y00584
X00051Y0065
Y00675
X00135Y00667
Y00642
Y00617
Y00592
Y00567
Y00542
T06
X006776Y0012
X00703
X007284
X006738Y00345
X006484
X00623
X006216Y0075
X00647
X006724
X009376Y00644
X00963
X009884
T07
X007593Y00707
X008907
T08
X0005Y0005
Y0075
T09
X0125Y0005
Y0075
M30
