G04*
G04 #@! TF.GenerationSoftware,Altium Limited,Altium Designer,21.6.1 (37)*
G04*
G04 Layer_Color=8388736*
%FSLAX44Y44*%
%MOMM*%
G71*
G04*
G04 #@! TF.SameCoordinates,38397863-0F1A-4956-A7FE-9114BFC2A937*
G04*
G04*
G04 #@! TF.FilePolarity,Negative*
G04*
G01*
G75*
G04:AMPARAMS|DCode=21|XSize=3.2mm|YSize=1.6mm|CornerRadius=0.16mm|HoleSize=0mm|Usage=FLASHONLY|Rotation=90.000|XOffset=0mm|YOffset=0mm|HoleType=Round|Shape=RoundedRectangle|*
%AMROUNDEDRECTD21*
21,1,3.2000,1.2800,0,0,90.0*
21,1,2.8800,1.6000,0,0,90.0*
1,1,0.3200,0.6400,1.4400*
1,1,0.3200,0.6400,-1.4400*
1,1,0.3200,-0.6400,-1.4400*
1,1,0.3200,-0.6400,1.4400*
%
%ADD21ROUNDEDRECTD21*%
%ADD25R,5.7000X1.6000*%
%ADD29R,1.0000X3.4000*%
%ADD30P,0.8659X8X202.5*%
G04:AMPARAMS|DCode=31|XSize=0.8mm|YSize=0.8mm|CornerRadius=0.2mm|HoleSize=0mm|Usage=FLASHONLY|Rotation=180.000|XOffset=0mm|YOffset=0mm|HoleType=Round|Shape=RoundedRectangle|*
%AMROUNDEDRECTD31*
21,1,0.8000,0.4000,0,0,180.0*
21,1,0.4000,0.8000,0,0,180.0*
1,1,0.4000,-0.2000,0.2000*
1,1,0.4000,0.2000,0.2000*
1,1,0.4000,0.2000,-0.2000*
1,1,0.4000,-0.2000,-0.2000*
%
%ADD31ROUNDEDRECTD31*%
G04:AMPARAMS|DCode=32|XSize=0.5mm|YSize=1.8mm|CornerRadius=0.075mm|HoleSize=0mm|Usage=FLASHONLY|Rotation=90.000|XOffset=0mm|YOffset=0mm|HoleType=Round|Shape=RoundedRectangle|*
%AMROUNDEDRECTD32*
21,1,0.5000,1.6500,0,0,90.0*
21,1,0.3500,1.8000,0,0,90.0*
1,1,0.1500,0.8250,0.1750*
1,1,0.1500,0.8250,-0.1750*
1,1,0.1500,-0.8250,-0.1750*
1,1,0.1500,-0.8250,0.1750*
%
%ADD32ROUNDEDRECTD32*%
G04:AMPARAMS|DCode=33|XSize=2.44mm|YSize=1.13mm|CornerRadius=0mm|HoleSize=0mm|Usage=FLASHONLY|Rotation=270.000|XOffset=0mm|YOffset=0mm|HoleType=Round|Shape=Octagon|*
%AMOCTAGOND33*
4,1,8,-0.2825,-1.2200,0.2825,-1.2200,0.5650,-0.9375,0.5650,0.9375,0.2825,1.2200,-0.2825,1.2200,-0.5650,0.9375,-0.5650,-0.9375,-0.2825,-1.2200,0.0*
%
%ADD33OCTAGOND33*%

%ADD34R,1.1300X2.4400*%
G04:AMPARAMS|DCode=35|XSize=2mm|YSize=3.4mm|CornerRadius=0mm|HoleSize=0mm|Usage=FLASHONLY|Rotation=180.000|XOffset=0mm|YOffset=0mm|HoleType=Round|Shape=Octagon|*
%AMOCTAGOND35*
4,1,8,0.5000,-1.7000,-0.5000,-1.7000,-1.0000,-1.2000,-1.0000,1.2000,-0.5000,1.7000,0.5000,1.7000,1.0000,1.2000,1.0000,-1.2000,0.5000,-1.7000,0.0*
%
%ADD35OCTAGOND35*%

%ADD36R,0.6000X1.5000*%
%ADD37R,0.7000X2.0000*%
%ADD39R,10.0000X10.5500*%
%ADD40R,3.5000X0.8000*%
G04:AMPARAMS|DCode=41|XSize=0.3mm|YSize=1.5mm|CornerRadius=0.045mm|HoleSize=0mm|Usage=FLASHONLY|Rotation=270.000|XOffset=0mm|YOffset=0mm|HoleType=Round|Shape=RoundedRectangle|*
%AMROUNDEDRECTD41*
21,1,0.3000,1.4100,0,0,270.0*
21,1,0.2100,1.5000,0,0,270.0*
1,1,0.0900,-0.7050,-0.1050*
1,1,0.0900,-0.7050,0.1050*
1,1,0.0900,0.7050,0.1050*
1,1,0.0900,0.7050,-0.1050*
%
%ADD41ROUNDEDRECTD41*%
G04:AMPARAMS|DCode=42|XSize=11mm|YSize=3.5mm|CornerRadius=0.525mm|HoleSize=0mm|Usage=FLASHONLY|Rotation=270.000|XOffset=0mm|YOffset=0mm|HoleType=Round|Shape=RoundedRectangle|*
%AMROUNDEDRECTD42*
21,1,11.0000,2.4500,0,0,270.0*
21,1,9.9500,3.5000,0,0,270.0*
1,1,1.0500,-1.2250,-4.9750*
1,1,1.0500,-1.2250,4.9750*
1,1,1.0500,1.2250,4.9750*
1,1,1.0500,1.2250,-4.9750*
%
%ADD42ROUNDEDRECTD42*%
%ADD43R,1.0000X1.8000*%
G04:AMPARAMS|DCode=44|XSize=0.55mm|YSize=1.1mm|CornerRadius=0.055mm|HoleSize=0mm|Usage=FLASHONLY|Rotation=90.000|XOffset=0mm|YOffset=0mm|HoleType=Round|Shape=RoundedRectangle|*
%AMROUNDEDRECTD44*
21,1,0.5500,0.9900,0,0,90.0*
21,1,0.4400,1.1000,0,0,90.0*
1,1,0.1100,0.4950,0.2200*
1,1,0.1100,0.4950,-0.2200*
1,1,0.1100,-0.4950,-0.2200*
1,1,0.1100,-0.4950,0.2200*
%
%ADD44ROUNDEDRECTD44*%
G04:AMPARAMS|DCode=45|XSize=0.35mm|YSize=1.3mm|CornerRadius=0.0525mm|HoleSize=0mm|Usage=FLASHONLY|Rotation=90.000|XOffset=0mm|YOffset=0mm|HoleType=Round|Shape=RoundedRectangle|*
%AMROUNDEDRECTD45*
21,1,0.3500,1.1950,0,0,90.0*
21,1,0.2450,1.3000,0,0,90.0*
1,1,0.1050,0.5975,0.1225*
1,1,0.1050,0.5975,-0.1225*
1,1,0.1050,-0.5975,-0.1225*
1,1,0.1050,-0.5975,0.1225*
%
%ADD45ROUNDEDRECTD45*%
G04:AMPARAMS|DCode=46|XSize=5mm|YSize=2mm|CornerRadius=0.3mm|HoleSize=0mm|Usage=FLASHONLY|Rotation=90.000|XOffset=0mm|YOffset=0mm|HoleType=Round|Shape=RoundedRectangle|*
%AMROUNDEDRECTD46*
21,1,5.0000,1.4000,0,0,90.0*
21,1,4.4000,2.0000,0,0,90.0*
1,1,0.6000,0.7000,2.2000*
1,1,0.6000,0.7000,-2.2000*
1,1,0.6000,-0.7000,-2.2000*
1,1,0.6000,-0.7000,2.2000*
%
%ADD46ROUNDEDRECTD46*%
%ADD47C,0.2000*%
G04:AMPARAMS|DCode=48|XSize=0.25mm|YSize=1.3mm|CornerRadius=0.0375mm|HoleSize=0mm|Usage=FLASHONLY|Rotation=270.000|XOffset=0mm|YOffset=0mm|HoleType=Round|Shape=RoundedRectangle|*
%AMROUNDEDRECTD48*
21,1,0.2500,1.2250,0,0,270.0*
21,1,0.1750,1.3000,0,0,270.0*
1,1,0.0750,-0.6125,-0.0875*
1,1,0.0750,-0.6125,0.0875*
1,1,0.0750,0.6125,0.0875*
1,1,0.0750,0.6125,-0.0875*
%
%ADD48ROUNDEDRECTD48*%
G04:AMPARAMS|DCode=49|XSize=1mm|YSize=1.6mm|CornerRadius=0.1mm|HoleSize=0mm|Usage=FLASHONLY|Rotation=0.000|XOffset=0mm|YOffset=0mm|HoleType=Round|Shape=RoundedRectangle|*
%AMROUNDEDRECTD49*
21,1,1.0000,1.4000,0,0,0.0*
21,1,0.8000,1.6000,0,0,0.0*
1,1,0.2000,0.4000,-0.7000*
1,1,0.2000,-0.4000,-0.7000*
1,1,0.2000,-0.4000,0.7000*
1,1,0.2000,0.4000,0.7000*
%
%ADD49ROUNDEDRECTD49*%
%ADD50R,2.0000X0.9000*%
%ADD51R,2.0000X1.3000*%
G04:AMPARAMS|DCode=52|XSize=0.8mm|YSize=1.2mm|CornerRadius=0.12mm|HoleSize=0mm|Usage=FLASHONLY|Rotation=270.000|XOffset=0mm|YOffset=0mm|HoleType=Round|Shape=RoundedRectangle|*
%AMROUNDEDRECTD52*
21,1,0.8000,0.9600,0,0,270.0*
21,1,0.5600,1.2000,0,0,270.0*
1,1,0.2400,-0.4800,-0.2800*
1,1,0.2400,-0.4800,0.2800*
1,1,0.2400,0.4800,0.2800*
1,1,0.2400,0.4800,-0.2800*
%
%ADD52ROUNDEDRECTD52*%
G04:AMPARAMS|DCode=54|XSize=2.159mm|YSize=2.743mm|CornerRadius=0mm|HoleSize=0mm|Usage=FLASHONLY|Rotation=180.000|XOffset=0mm|YOffset=0mm|HoleType=Round|Shape=Octagon|*
%AMOCTAGOND54*
4,1,8,0.5397,-1.3715,-0.5397,-1.3715,-1.0795,-0.8317,-1.0795,0.8317,-0.5397,1.3715,0.5397,1.3715,1.0795,0.8317,1.0795,-0.8317,0.5397,-1.3715,0.0*
%
%ADD54OCTAGOND54*%

G04:AMPARAMS|DCode=55|XSize=2.159mm|YSize=2.743mm|CornerRadius=0.5397mm|HoleSize=0mm|Usage=FLASHONLY|Rotation=180.000|XOffset=0mm|YOffset=0mm|HoleType=Round|Shape=RoundedRectangle|*
%AMROUNDEDRECTD55*
21,1,2.1590,1.6635,0,0,180.0*
21,1,1.0795,2.7430,0,0,180.0*
1,1,1.0795,-0.5397,0.8317*
1,1,1.0795,0.5397,0.8317*
1,1,1.0795,0.5397,-0.8317*
1,1,1.0795,-0.5397,-0.8317*
%
%ADD55ROUNDEDRECTD55*%
%ADD60P,0.9742X8X202.5*%
G04:AMPARAMS|DCode=61|XSize=0.9mm|YSize=0.9mm|CornerRadius=0.135mm|HoleSize=0mm|Usage=FLASHONLY|Rotation=180.000|XOffset=0mm|YOffset=0mm|HoleType=Round|Shape=RoundedRectangle|*
%AMROUNDEDRECTD61*
21,1,0.9000,0.6300,0,0,180.0*
21,1,0.6300,0.9000,0,0,180.0*
1,1,0.2700,-0.3150,0.3150*
1,1,0.2700,0.3150,0.3150*
1,1,0.2700,0.3150,-0.3150*
1,1,0.2700,-0.3150,-0.3150*
%
%ADD61ROUNDEDRECTD61*%
%ADD62R,1.7000X1.3000*%
G04:AMPARAMS|DCode=63|XSize=0.55mm|YSize=0.9mm|CornerRadius=0.055mm|HoleSize=0mm|Usage=FLASHONLY|Rotation=90.000|XOffset=0mm|YOffset=0mm|HoleType=Round|Shape=RoundedRectangle|*
%AMROUNDEDRECTD63*
21,1,0.5500,0.7900,0,0,90.0*
21,1,0.4400,0.9000,0,0,90.0*
1,1,0.1100,0.3950,0.2200*
1,1,0.1100,0.3950,-0.2200*
1,1,0.1100,-0.3950,-0.2200*
1,1,0.1100,-0.3950,0.2200*
%
%ADD63ROUNDEDRECTD63*%
G04:AMPARAMS|DCode=64|XSize=0.8mm|YSize=1.3mm|CornerRadius=0.12mm|HoleSize=0mm|Usage=FLASHONLY|Rotation=90.000|XOffset=0mm|YOffset=0mm|HoleType=Round|Shape=RoundedRectangle|*
%AMROUNDEDRECTD64*
21,1,0.8000,1.0600,0,0,90.0*
21,1,0.5600,1.3000,0,0,90.0*
1,1,0.2400,0.5300,0.2800*
1,1,0.2400,0.5300,-0.2800*
1,1,0.2400,-0.5300,-0.2800*
1,1,0.2400,-0.5300,0.2800*
%
%ADD64ROUNDEDRECTD64*%
%ADD67R,1.3000X1.7000*%
%ADD69C,2.5000*%
%ADD70R,0.8500X0.9000*%
%ADD71R,0.9000X0.8500*%
G04:AMPARAMS|DCode=72|XSize=0.85mm|YSize=0.85mm|CornerRadius=0.125mm|HoleSize=0mm|Usage=FLASHONLY|Rotation=270.000|XOffset=0mm|YOffset=0mm|HoleType=Round|Shape=RoundedRectangle|*
%AMROUNDEDRECTD72*
21,1,0.8500,0.6000,0,0,270.0*
21,1,0.6000,0.8500,0,0,270.0*
1,1,0.2500,-0.3000,-0.3000*
1,1,0.2500,-0.3000,0.3000*
1,1,0.2500,0.3000,0.3000*
1,1,0.2500,0.3000,-0.3000*
%
%ADD72ROUNDEDRECTD72*%
%ADD73O,1.1400X0.5100*%
%ADD74O,0.5100X1.1400*%
%ADD75R,4.0000X4.0000*%
G04:AMPARAMS|DCode=76|XSize=1.2mm|YSize=0.9mm|CornerRadius=0.13mm|HoleSize=0mm|Usage=FLASHONLY|Rotation=90.000|XOffset=0mm|YOffset=0mm|HoleType=Round|Shape=RoundedRectangle|*
%AMROUNDEDRECTD76*
21,1,1.2000,0.6400,0,0,90.0*
21,1,0.9400,0.9000,0,0,90.0*
1,1,0.2600,0.3200,0.4700*
1,1,0.2600,0.3200,-0.4700*
1,1,0.2600,-0.3200,-0.4700*
1,1,0.2600,-0.3200,0.4700*
%
%ADD76ROUNDEDRECTD76*%
G04:AMPARAMS|DCode=77|XSize=0.8mm|YSize=2.4mm|CornerRadius=0.12mm|HoleSize=0mm|Usage=FLASHONLY|Rotation=270.000|XOffset=0mm|YOffset=0mm|HoleType=Round|Shape=RoundedRectangle|*
%AMROUNDEDRECTD77*
21,1,0.8000,2.1600,0,0,270.0*
21,1,0.5600,2.4000,0,0,270.0*
1,1,0.2400,-1.0800,-0.2800*
1,1,0.2400,-1.0800,0.2800*
1,1,0.2400,1.0800,0.2800*
1,1,0.2400,1.0800,-0.2800*
%
%ADD77ROUNDEDRECTD77*%
%ADD78C,0.4032*%
%ADD79R,1.3000X0.9000*%
G04:AMPARAMS|DCode=80|XSize=1.3mm|YSize=2.4mm|CornerRadius=0.17mm|HoleSize=0mm|Usage=FLASHONLY|Rotation=270.000|XOffset=0mm|YOffset=0mm|HoleType=Round|Shape=RoundedRectangle|*
%AMROUNDEDRECTD80*
21,1,1.3000,2.0600,0,0,270.0*
21,1,0.9600,2.4000,0,0,270.0*
1,1,0.3400,-1.0300,-0.4800*
1,1,0.3400,-1.0300,0.4800*
1,1,0.3400,1.0300,0.4800*
1,1,0.3400,1.0300,-0.4800*
%
%ADD80ROUNDEDRECTD80*%
G04:AMPARAMS|DCode=81|XSize=0.85mm|YSize=0.85mm|CornerRadius=0.125mm|HoleSize=0mm|Usage=FLASHONLY|Rotation=180.000|XOffset=0mm|YOffset=0mm|HoleType=Round|Shape=RoundedRectangle|*
%AMROUNDEDRECTD81*
21,1,0.8500,0.6000,0,0,180.0*
21,1,0.6000,0.8500,0,0,180.0*
1,1,0.2500,-0.3000,0.3000*
1,1,0.2500,0.3000,0.3000*
1,1,0.2500,0.3000,-0.3000*
1,1,0.2500,-0.3000,-0.3000*
%
%ADD81ROUNDEDRECTD81*%
%ADD82C,0.8000*%
%ADD83O,1.5900X0.3900*%
%ADD84O,0.3900X1.5900*%
%ADD85R,0.9000X1.3000*%
G04:AMPARAMS|DCode=86|XSize=1.2mm|YSize=0.9mm|CornerRadius=0.13mm|HoleSize=0mm|Usage=FLASHONLY|Rotation=0.000|XOffset=0mm|YOffset=0mm|HoleType=Round|Shape=RoundedRectangle|*
%AMROUNDEDRECTD86*
21,1,1.2000,0.6400,0,0,0.0*
21,1,0.9400,0.9000,0,0,0.0*
1,1,0.2600,0.4700,-0.3200*
1,1,0.2600,-0.4700,-0.3200*
1,1,0.2600,-0.4700,0.3200*
1,1,0.2600,0.4700,0.3200*
%
%ADD86ROUNDEDRECTD86*%
G04:AMPARAMS|DCode=87|XSize=1.3mm|YSize=2.4mm|CornerRadius=0.17mm|HoleSize=0mm|Usage=FLASHONLY|Rotation=180.000|XOffset=0mm|YOffset=0mm|HoleType=Round|Shape=RoundedRectangle|*
%AMROUNDEDRECTD87*
21,1,1.3000,2.0600,0,0,180.0*
21,1,0.9600,2.4000,0,0,180.0*
1,1,0.3400,-0.4800,1.0300*
1,1,0.3400,0.4800,1.0300*
1,1,0.3400,0.4800,-1.0300*
1,1,0.3400,-0.4800,-1.0300*
%
%ADD87ROUNDEDRECTD87*%
%ADD88C,0.6000*%
%ADD89C,5.2000*%
%ADD90C,3.5000*%
%ADD91C,1.4000*%
%ADD92R,1.4000X1.4000*%
%ADD93R,1.5000X1.5000*%
%ADD94C,1.5000*%
%ADD95O,1.5000X2.0000*%
%ADD96C,1.6000*%
%ADD97C,8.0000*%
%ADD98C,1.3000*%
G36*
X142730Y788334D02*
X142730Y775500D01*
X142489Y775499D01*
X142008Y775535D01*
X141531Y775608D01*
X141061Y775718D01*
X140831Y775791D01*
X140831Y775790D01*
X139675Y776140D01*
X137773Y777629D01*
X136537Y779705D01*
X136136Y782087D01*
X136380Y783270D01*
Y783270D01*
X136562Y784381D01*
X137699Y786323D01*
X139459Y787727D01*
X141606Y788404D01*
X142730Y788334D01*
D02*
G37*
G36*
X148540Y787727D02*
X150300Y786323D01*
X151438Y784381D01*
X151620Y783270D01*
X151620Y783270D01*
X151864Y782087D01*
X151463Y779705D01*
X150227Y777629D01*
X148325Y776141D01*
X147169Y775791D01*
X147169Y775791D01*
X146939Y775718D01*
X146469Y775608D01*
X145992Y775535D01*
X145511Y775499D01*
X145270Y775500D01*
X145270Y788334D01*
X146394Y788404D01*
X148540Y787727D01*
D02*
G37*
G36*
X1265269Y688334D02*
X1265270Y675500D01*
X1265029Y675499D01*
X1264548Y675535D01*
X1264071Y675608D01*
X1263601Y675718D01*
X1263371Y675791D01*
X1263371Y675790D01*
X1262215Y676140D01*
X1260313Y677629D01*
X1259077Y679705D01*
X1258676Y682087D01*
X1258920Y683270D01*
Y683270D01*
X1259102Y684381D01*
X1260240Y686323D01*
X1262000Y687727D01*
X1264146Y688404D01*
X1265269Y688334D01*
D02*
G37*
G36*
X1271080Y687727D02*
X1272840Y686323D01*
X1273978Y684381D01*
X1274160Y683270D01*
X1274160Y683270D01*
X1274404Y682087D01*
X1274003Y679705D01*
X1272767Y677629D01*
X1270865Y676141D01*
X1269709Y675791D01*
X1269709Y675791D01*
X1269479Y675718D01*
X1269009Y675608D01*
X1268532Y675535D01*
X1268051Y675499D01*
X1267810Y675500D01*
X1267810Y688334D01*
X1268934Y688404D01*
X1271080Y687727D01*
D02*
G37*
G36*
X1265270Y662334D02*
X1265270Y649500D01*
X1265029Y649499D01*
X1264548Y649535D01*
X1264071Y649608D01*
X1263601Y649718D01*
X1263371Y649791D01*
X1263371Y649790D01*
X1262215Y650140D01*
X1260313Y651629D01*
X1259077Y653705D01*
X1258676Y656087D01*
X1258920Y657270D01*
Y657270D01*
X1259102Y658381D01*
X1260240Y660323D01*
X1262000Y661727D01*
X1264146Y662404D01*
X1265270Y662334D01*
D02*
G37*
G36*
X1271080Y661727D02*
X1272840Y660323D01*
X1273978Y658381D01*
X1274160Y657270D01*
X1274160Y657270D01*
X1274404Y656087D01*
X1274003Y653705D01*
X1272767Y651629D01*
X1270865Y650141D01*
X1269709Y649791D01*
X1269709Y649791D01*
X1269479Y649718D01*
X1269009Y649608D01*
X1268532Y649535D01*
X1268051Y649499D01*
X1267810Y649500D01*
X1267810Y662334D01*
X1268934Y662404D01*
X1271080Y661727D01*
D02*
G37*
G36*
X1187295Y603003D02*
X1189371Y601768D01*
X1190859Y599865D01*
X1191209Y598709D01*
X1191209Y598709D01*
X1191282Y598479D01*
X1191392Y598009D01*
X1191465Y597532D01*
X1191501Y597051D01*
X1191500Y596810D01*
X1178666Y596810D01*
X1178596Y597934D01*
X1179273Y600080D01*
X1180677Y601840D01*
X1182619Y602978D01*
X1183730Y603160D01*
X1183730Y603160D01*
X1184913Y603404D01*
X1187295Y603003D01*
D02*
G37*
G36*
X1191501Y594029D02*
X1191465Y593548D01*
X1191392Y593071D01*
X1191282Y592601D01*
X1191209Y592371D01*
X1191210Y592371D01*
X1190860Y591215D01*
X1189371Y589313D01*
X1187295Y588077D01*
X1184913Y587676D01*
X1183730Y587920D01*
X1183730D01*
X1182619Y588102D01*
X1180677Y589240D01*
X1179273Y590999D01*
X1178596Y593146D01*
X1178666Y594269D01*
X1191500Y594270D01*
X1191501Y594029D01*
D02*
G37*
G36*
X1166295Y187463D02*
X1168371Y186227D01*
X1169859Y184325D01*
X1170209Y183169D01*
X1170209Y183169D01*
X1170282Y182939D01*
X1170392Y182469D01*
X1170465Y181992D01*
X1170501Y181511D01*
X1170500Y181270D01*
X1157666Y181270D01*
X1157596Y182394D01*
X1158273Y184540D01*
X1159677Y186300D01*
X1161619Y187438D01*
X1162730Y187620D01*
X1162730Y187620D01*
X1163913Y187864D01*
X1166295Y187463D01*
D02*
G37*
G36*
X1138295D02*
X1140371Y186227D01*
X1141859Y184325D01*
X1142209Y183169D01*
X1142209Y183169D01*
X1142282Y182939D01*
X1142392Y182469D01*
X1142465Y181992D01*
X1142501Y181511D01*
X1142500Y181270D01*
X1129666Y181270D01*
X1129596Y182394D01*
X1130273Y184540D01*
X1131677Y186300D01*
X1133619Y187438D01*
X1134730Y187620D01*
X1134730Y187620D01*
X1135913Y187864D01*
X1138295Y187463D01*
D02*
G37*
G36*
X1170501Y178489D02*
X1170465Y178008D01*
X1170392Y177531D01*
X1170282Y177061D01*
X1170209Y176831D01*
X1170210Y176831D01*
X1169860Y175675D01*
X1168371Y173773D01*
X1166295Y172537D01*
X1163913Y172136D01*
X1162730Y172380D01*
X1162730D01*
X1161619Y172562D01*
X1159677Y173700D01*
X1158273Y175459D01*
X1157596Y177606D01*
X1157666Y178729D01*
X1170500Y178730D01*
X1170501Y178489D01*
D02*
G37*
G36*
X1142501D02*
X1142465Y178008D01*
X1142392Y177531D01*
X1142282Y177061D01*
X1142209Y176831D01*
X1142210Y176831D01*
X1141860Y175675D01*
X1140371Y173773D01*
X1138295Y172537D01*
X1135913Y172136D01*
X1134730Y172380D01*
X1134730D01*
X1133619Y172562D01*
X1131677Y173700D01*
X1130273Y175459D01*
X1129596Y177606D01*
X1129666Y178729D01*
X1142500Y178730D01*
X1142501Y178489D01*
D02*
G37*
G36*
X99729Y95334D02*
X99730Y82500D01*
X99489Y82499D01*
X99008Y82535D01*
X98531Y82608D01*
X98061Y82718D01*
X97831Y82791D01*
X97831Y82790D01*
X96675Y83140D01*
X94773Y84629D01*
X93537Y86705D01*
X93136Y89087D01*
X93380Y90270D01*
Y90270D01*
X93562Y91381D01*
X94700Y93323D01*
X96459Y94727D01*
X98606Y95404D01*
X99729Y95334D01*
D02*
G37*
G36*
X105541Y94727D02*
X107300Y93323D01*
X108438Y91381D01*
X108620Y90270D01*
X108620Y90270D01*
X108864Y89087D01*
X108463Y86705D01*
X107227Y84629D01*
X105325Y83141D01*
X104169Y82791D01*
X104169Y82791D01*
X103939Y82718D01*
X103469Y82608D01*
X102992Y82535D01*
X102511Y82499D01*
X102270Y82500D01*
X102270Y95334D01*
X103394Y95404D01*
X105541Y94727D01*
D02*
G37*
D21*
X619500Y445000D02*
D03*
Y395000D02*
D03*
X618000Y548000D02*
D03*
Y498000D02*
D03*
D25*
X476000Y547500D02*
D03*
Y500500D02*
D03*
Y336500D02*
D03*
Y289500D02*
D03*
D29*
X860000Y661000D02*
D03*
X790000D02*
D03*
X815000D02*
D03*
X835000D02*
D03*
D30*
X875000Y443000D02*
D03*
Y351000D02*
D03*
Y420333D02*
D03*
Y398000D02*
D03*
Y375000D02*
D03*
D31*
X858000Y443000D02*
D03*
Y351000D02*
D03*
Y420333D02*
D03*
Y398000D02*
D03*
Y375000D02*
D03*
D32*
X365000Y556150D02*
D03*
X293000D02*
D03*
X365000Y543450D02*
D03*
X293000D02*
D03*
Y530750D02*
D03*
X365000D02*
D03*
X293000Y518050D02*
D03*
X365000D02*
D03*
X293000Y505350D02*
D03*
X365000D02*
D03*
X293000Y492650D02*
D03*
X365000D02*
D03*
X293000Y479950D02*
D03*
X365000D02*
D03*
X293000Y467250D02*
D03*
X365000D02*
D03*
X366000Y210500D02*
D03*
X294000D02*
D03*
X366000Y223200D02*
D03*
X294000D02*
D03*
X366000Y235900D02*
D03*
X294000D02*
D03*
X366000Y248600D02*
D03*
X294000D02*
D03*
X366000Y261300D02*
D03*
X294000D02*
D03*
X366000Y274000D02*
D03*
X294000D02*
D03*
Y286700D02*
D03*
X366000D02*
D03*
X294000Y299400D02*
D03*
X366000D02*
D03*
Y427450D02*
D03*
X294000D02*
D03*
X366000Y414750D02*
D03*
X294000D02*
D03*
Y402050D02*
D03*
X366000D02*
D03*
X294000Y389350D02*
D03*
X366000D02*
D03*
X294000Y376650D02*
D03*
X366000D02*
D03*
X294000Y363950D02*
D03*
X366000D02*
D03*
X294000Y351250D02*
D03*
X366000D02*
D03*
X294000Y338550D02*
D03*
X366000D02*
D03*
X420000Y63350D02*
D03*
X348000D02*
D03*
X420000Y76050D02*
D03*
X348000D02*
D03*
X420000Y88750D02*
D03*
X348000D02*
D03*
X420000Y101450D02*
D03*
X348000D02*
D03*
X420000Y114150D02*
D03*
X348000D02*
D03*
X420000Y126850D02*
D03*
X348000D02*
D03*
Y139550D02*
D03*
X420000D02*
D03*
X348000Y152250D02*
D03*
X420000D02*
D03*
D33*
X1171800Y123000D02*
D03*
D34*
X1146400D02*
D03*
X1121000D02*
D03*
X1095600D02*
D03*
X1070200D02*
D03*
X1044800D02*
D03*
X1019400D02*
D03*
X994000D02*
D03*
X1171800Y37000D02*
D03*
X1146400D02*
D03*
X1121000D02*
D03*
X1095600D02*
D03*
X1070200D02*
D03*
X1044800D02*
D03*
X1019400D02*
D03*
X994000D02*
D03*
D35*
X197000Y158000D02*
D03*
X127000Y159000D02*
D03*
D36*
X212000Y130000D02*
D03*
X182000D02*
D03*
X112000Y131000D02*
D03*
X142000D02*
D03*
D37*
X197000Y132500D02*
D03*
X127000Y133500D02*
D03*
D39*
X374000Y724900D02*
D03*
D40*
X478000Y763000D02*
D03*
Y750300D02*
D03*
Y737600D02*
D03*
Y724900D02*
D03*
Y712200D02*
D03*
Y699500D02*
D03*
Y686800D02*
D03*
D41*
X739400Y440000D02*
D03*
Y446500D02*
D03*
Y453000D02*
D03*
Y459500D02*
D03*
Y466000D02*
D03*
Y472500D02*
D03*
Y479000D02*
D03*
Y485500D02*
D03*
Y492000D02*
D03*
Y498500D02*
D03*
Y505000D02*
D03*
Y511500D02*
D03*
Y518000D02*
D03*
Y524500D02*
D03*
X677400Y440000D02*
D03*
Y446500D02*
D03*
Y453000D02*
D03*
Y459500D02*
D03*
Y466000D02*
D03*
Y472500D02*
D03*
Y479000D02*
D03*
Y485500D02*
D03*
Y492000D02*
D03*
Y498500D02*
D03*
Y505000D02*
D03*
Y511500D02*
D03*
Y518000D02*
D03*
Y524500D02*
D03*
X645000Y242500D02*
D03*
Y249000D02*
D03*
Y255500D02*
D03*
Y262000D02*
D03*
Y268500D02*
D03*
Y275000D02*
D03*
Y281500D02*
D03*
X585000Y242500D02*
D03*
Y249000D02*
D03*
Y255500D02*
D03*
Y262000D02*
D03*
Y268500D02*
D03*
Y275000D02*
D03*
Y281500D02*
D03*
D42*
X708400Y482250D02*
D03*
D43*
X1096500Y600000D02*
D03*
X1121500D02*
D03*
D44*
X1184000Y630500D02*
D03*
Y649500D02*
D03*
X1208000D02*
D03*
Y640000D02*
D03*
Y630500D02*
D03*
D45*
X892000Y562500D02*
D03*
Y569000D02*
D03*
Y575500D02*
D03*
Y556000D02*
D03*
X848000D02*
D03*
Y562500D02*
D03*
Y569000D02*
D03*
Y575500D02*
D03*
Y549500D02*
D03*
Y543000D02*
D03*
X892000D02*
D03*
Y549500D02*
D03*
D46*
X870000Y559250D02*
D03*
D47*
X1136000Y175540D02*
D03*
X139540Y782000D02*
D03*
X1262080Y656000D02*
D03*
X1185000Y591080D02*
D03*
X1262080Y682000D02*
D03*
X1164000Y175540D02*
D03*
X96540Y89000D02*
D03*
D48*
X791000Y273000D02*
D03*
Y268000D02*
D03*
Y263000D02*
D03*
Y258000D02*
D03*
Y253000D02*
D03*
X835000Y273000D02*
D03*
Y268000D02*
D03*
Y263000D02*
D03*
Y258000D02*
D03*
Y253000D02*
D03*
D49*
X1001000Y194000D02*
D03*
X1018500Y236000D02*
D03*
X983500D02*
D03*
D50*
X1262000Y435750D02*
D03*
Y412250D02*
D03*
X814588Y193750D02*
D03*
Y170250D02*
D03*
X681000D02*
D03*
Y193750D02*
D03*
X1262000Y486250D02*
D03*
Y509750D02*
D03*
D51*
X1202000Y422250D02*
D03*
X874588Y183750D02*
D03*
X741000D02*
D03*
X1202000Y496250D02*
D03*
D52*
X925501Y286000D02*
D03*
Y273300D02*
D03*
X862501D02*
D03*
Y286000D02*
D03*
X219499Y68651D02*
D03*
Y81351D02*
D03*
X156499D02*
D03*
Y68651D02*
D03*
Y37651D02*
D03*
Y50351D02*
D03*
X219499D02*
D03*
Y37651D02*
D03*
X862501Y250349D02*
D03*
Y237649D02*
D03*
X925501D02*
D03*
Y250349D02*
D03*
D54*
X275100Y762500D02*
D03*
D55*
X230900D02*
D03*
D60*
X938000Y592000D02*
D03*
D61*
X916000D02*
D03*
D62*
X620000Y605000D02*
D03*
X650000D02*
D03*
X620000Y627000D02*
D03*
X650000D02*
D03*
X529000Y603000D02*
D03*
X559000D02*
D03*
X529000Y625000D02*
D03*
X559000D02*
D03*
D63*
X546500Y384502D02*
D03*
Y397502D02*
D03*
X527500Y391002D02*
D03*
D64*
X443000Y435300D02*
D03*
Y460700D02*
D03*
X505000D02*
D03*
Y435300D02*
D03*
Y374300D02*
D03*
Y399700D02*
D03*
X443000D02*
D03*
Y374300D02*
D03*
D67*
X404000Y595000D02*
D03*
Y625000D02*
D03*
X382000Y595000D02*
D03*
Y625000D02*
D03*
D69*
X966000Y313000D02*
D03*
X1146000Y493000D02*
D03*
D70*
X756000Y268000D02*
D03*
X742000D02*
D03*
X531000Y412000D02*
D03*
X545000D02*
D03*
X717000Y268000D02*
D03*
X703000D02*
D03*
X531000Y429625D02*
D03*
X545000D02*
D03*
X779000Y407000D02*
D03*
X765000D02*
D03*
X188000Y770000D02*
D03*
X174000D02*
D03*
X1264000Y179000D02*
D03*
X1250000D02*
D03*
Y161333D02*
D03*
X1264000D02*
D03*
X1253000Y363000D02*
D03*
X1267000D02*
D03*
X857000Y496000D02*
D03*
X871000D02*
D03*
Y479625D02*
D03*
X857000D02*
D03*
X1250000Y111000D02*
D03*
X1264000D02*
D03*
Y127778D02*
D03*
X1250000D02*
D03*
Y144556D02*
D03*
X1264000D02*
D03*
X1213000Y161333D02*
D03*
X1199000D02*
D03*
Y179000D02*
D03*
X1213000D02*
D03*
X829500Y420333D02*
D03*
X815500D02*
D03*
Y397667D02*
D03*
X829500D02*
D03*
Y375000D02*
D03*
X815500D02*
D03*
Y443000D02*
D03*
X829500D02*
D03*
X506000Y657000D02*
D03*
X492000D02*
D03*
X555050Y724000D02*
D03*
X569050D02*
D03*
X416000Y223000D02*
D03*
X402000D02*
D03*
Y249000D02*
D03*
X416000D02*
D03*
Y274000D02*
D03*
X402000D02*
D03*
Y299400D02*
D03*
X416000D02*
D03*
X471000Y76000D02*
D03*
X457000D02*
D03*
Y101650D02*
D03*
X471000D02*
D03*
Y127000D02*
D03*
X457000D02*
D03*
Y152450D02*
D03*
X471000D02*
D03*
X416000Y427450D02*
D03*
X402000D02*
D03*
Y402000D02*
D03*
X416000D02*
D03*
Y377000D02*
D03*
X402000D02*
D03*
Y351000D02*
D03*
X416000D02*
D03*
X415000Y556150D02*
D03*
X401000D02*
D03*
Y530750D02*
D03*
X415000D02*
D03*
Y505350D02*
D03*
X401000D02*
D03*
X400950Y479650D02*
D03*
X414950D02*
D03*
X189000Y721000D02*
D03*
X175000D02*
D03*
X528950Y242000D02*
D03*
X542950D02*
D03*
X528950Y207000D02*
D03*
X542950D02*
D03*
X717000Y285000D02*
D03*
X703000D02*
D03*
X742000D02*
D03*
X756000D02*
D03*
X528950Y275437D02*
D03*
X542950D02*
D03*
X797000Y113000D02*
D03*
X783000D02*
D03*
X543000Y333000D02*
D03*
X529000D02*
D03*
X783000Y145000D02*
D03*
X797000D02*
D03*
X576000Y333000D02*
D03*
X562000D02*
D03*
X640000Y194000D02*
D03*
X626000D02*
D03*
X742000Y384000D02*
D03*
X756000D02*
D03*
X765000Y421000D02*
D03*
X779000D02*
D03*
X829500Y462000D02*
D03*
X815500D02*
D03*
X707000Y575000D02*
D03*
X721000D02*
D03*
X755900Y368000D02*
D03*
X741900D02*
D03*
X707000Y557000D02*
D03*
X721000D02*
D03*
X742000Y336000D02*
D03*
X756000D02*
D03*
X742000Y320000D02*
D03*
X756000D02*
D03*
X1116000Y536000D02*
D03*
X1102000D02*
D03*
X1049000Y557000D02*
D03*
X1063000D02*
D03*
X930050Y517000D02*
D03*
X916050D02*
D03*
X262000Y49000D02*
D03*
X276000D02*
D03*
X755900Y352000D02*
D03*
X741900D02*
D03*
X276000Y28651D02*
D03*
X262000D02*
D03*
X878300Y315000D02*
D03*
X864300D02*
D03*
X925501D02*
D03*
X911501D02*
D03*
X599000Y300000D02*
D03*
X613000D02*
D03*
X500000Y35000D02*
D03*
X514000D02*
D03*
X544000D02*
D03*
X558000D02*
D03*
X672000Y648000D02*
D03*
X686000D02*
D03*
X174000Y751000D02*
D03*
X188000D02*
D03*
X916000Y483000D02*
D03*
X930000D02*
D03*
X830000Y351000D02*
D03*
X816000D02*
D03*
D71*
X1109917Y641000D02*
D03*
Y627000D02*
D03*
X1251833Y336000D02*
D03*
Y322000D02*
D03*
X1106000Y757995D02*
D03*
Y771995D02*
D03*
X1066000Y772000D02*
D03*
Y758000D02*
D03*
X1006000D02*
D03*
Y772000D02*
D03*
X986000D02*
D03*
Y758000D02*
D03*
X953000Y757995D02*
D03*
Y771995D02*
D03*
X1046000D02*
D03*
Y757995D02*
D03*
X1267000Y322000D02*
D03*
Y336000D02*
D03*
X1124000Y280000D02*
D03*
Y294000D02*
D03*
Y245000D02*
D03*
Y231000D02*
D03*
X1176000Y322000D02*
D03*
Y336000D02*
D03*
X962000Y549000D02*
D03*
Y563000D02*
D03*
X1030000Y174000D02*
D03*
Y160000D02*
D03*
X1048000D02*
D03*
Y174000D02*
D03*
X539000Y764000D02*
D03*
Y750000D02*
D03*
Y682000D02*
D03*
Y696000D02*
D03*
X554000D02*
D03*
Y682000D02*
D03*
X523000Y696000D02*
D03*
Y682000D02*
D03*
X252000Y309800D02*
D03*
Y295800D02*
D03*
Y419400D02*
D03*
Y433400D02*
D03*
X265002Y275000D02*
D03*
Y261000D02*
D03*
X267000Y389000D02*
D03*
Y403000D02*
D03*
X251000Y248000D02*
D03*
Y234000D02*
D03*
X252000Y357600D02*
D03*
Y371600D02*
D03*
X265002Y223000D02*
D03*
Y209000D02*
D03*
X267000Y332200D02*
D03*
Y346200D02*
D03*
X305000Y160000D02*
D03*
Y146000D02*
D03*
X253000Y543000D02*
D03*
Y557000D02*
D03*
X319000Y129000D02*
D03*
Y115000D02*
D03*
X267000Y517000D02*
D03*
Y531000D02*
D03*
X305000Y103000D02*
D03*
Y89000D02*
D03*
X253000Y486000D02*
D03*
Y500000D02*
D03*
X267000Y469400D02*
D03*
Y455400D02*
D03*
X783000Y484000D02*
D03*
Y470000D02*
D03*
X931000Y549000D02*
D03*
Y563000D02*
D03*
X1126000Y771995D02*
D03*
Y757995D02*
D03*
X988400Y563000D02*
D03*
Y549000D02*
D03*
X1207000Y601050D02*
D03*
Y587050D02*
D03*
X1064000Y174000D02*
D03*
Y160000D02*
D03*
X803150Y557200D02*
D03*
Y571200D02*
D03*
X782000Y557200D02*
D03*
Y571200D02*
D03*
X1206333Y322000D02*
D03*
Y336000D02*
D03*
X1191167D02*
D03*
Y322000D02*
D03*
X1221500Y336000D02*
D03*
Y322000D02*
D03*
X1236667D02*
D03*
Y336000D02*
D03*
X1026000Y772000D02*
D03*
Y758000D02*
D03*
X1086000D02*
D03*
Y772000D02*
D03*
D72*
X1124000Y627000D02*
D03*
Y641000D02*
D03*
X553750Y750000D02*
D03*
Y764000D02*
D03*
X915000Y555500D02*
D03*
Y569500D02*
D03*
X1161000Y601000D02*
D03*
Y587000D02*
D03*
X1081000Y641000D02*
D03*
Y627000D02*
D03*
X670000Y539000D02*
D03*
Y553000D02*
D03*
X569000Y750000D02*
D03*
Y764000D02*
D03*
X522750Y723600D02*
D03*
Y737600D02*
D03*
X1269000Y607000D02*
D03*
Y593000D02*
D03*
X1245000Y607000D02*
D03*
Y593000D02*
D03*
X1145000Y601000D02*
D03*
Y587000D02*
D03*
X1095333Y641000D02*
D03*
Y627000D02*
D03*
X942000Y459000D02*
D03*
Y445000D02*
D03*
X1279000Y303000D02*
D03*
Y289000D02*
D03*
D73*
X582500Y101500D02*
D03*
Y127500D02*
D03*
X525500D02*
D03*
Y121000D02*
D03*
Y114500D02*
D03*
Y108000D02*
D03*
Y101500D02*
D03*
Y95000D02*
D03*
Y88500D02*
D03*
X582500D02*
D03*
Y95000D02*
D03*
Y108000D02*
D03*
Y114500D02*
D03*
Y121000D02*
D03*
D74*
X534500Y79500D02*
D03*
X541000D02*
D03*
X547500D02*
D03*
X554000D02*
D03*
X560500D02*
D03*
X567000D02*
D03*
X573500D02*
D03*
Y136500D02*
D03*
X567000D02*
D03*
X560500D02*
D03*
X554000D02*
D03*
X547500D02*
D03*
X541000D02*
D03*
X534500D02*
D03*
D75*
X554000Y108000D02*
D03*
D76*
X127000Y711000D02*
D03*
X109000D02*
D03*
X547000Y471000D02*
D03*
X565000D02*
D03*
X578000Y675750D02*
D03*
X596000D02*
D03*
X547000Y488000D02*
D03*
X565000D02*
D03*
X578000Y697900D02*
D03*
X596000D02*
D03*
X644000Y696000D02*
D03*
X626000D02*
D03*
D77*
X1169000Y257200D02*
D03*
Y231800D02*
D03*
Y244500D02*
D03*
Y219100D02*
D03*
X1259000D02*
D03*
Y244500D02*
D03*
Y231800D02*
D03*
Y257200D02*
D03*
D78*
X1136000Y184460D02*
D03*
X148460Y782000D02*
D03*
X1271000Y656000D02*
D03*
X1185000Y600000D02*
D03*
X1271000Y682000D02*
D03*
X1164000Y184460D02*
D03*
X105460Y89000D02*
D03*
D79*
X931000Y168000D02*
D03*
Y186000D02*
D03*
X130000Y46651D02*
D03*
Y28651D02*
D03*
X110000D02*
D03*
Y46651D02*
D03*
X912000Y186000D02*
D03*
Y168000D02*
D03*
D80*
X313000Y593000D02*
D03*
Y625000D02*
D03*
D81*
X844000Y598000D02*
D03*
X858000D02*
D03*
X213000Y393636D02*
D03*
X227000D02*
D03*
X213000Y500818D02*
D03*
X227000D02*
D03*
X213000Y608000D02*
D03*
X227000D02*
D03*
X372000Y446000D02*
D03*
X386000D02*
D03*
X717000Y402000D02*
D03*
X703000D02*
D03*
X804400Y505000D02*
D03*
X790400D02*
D03*
X970000Y528000D02*
D03*
X984000D02*
D03*
X1194516Y671000D02*
D03*
X1208516D02*
D03*
X742000Y303000D02*
D03*
X756000D02*
D03*
X213000Y215000D02*
D03*
X227000D02*
D03*
X264000Y91000D02*
D03*
X278000D02*
D03*
X576000Y308000D02*
D03*
X562000D02*
D03*
X213000Y536545D02*
D03*
X227000D02*
D03*
X797000Y129000D02*
D03*
X783000D02*
D03*
X672000Y665000D02*
D03*
X686000D02*
D03*
X529000Y308000D02*
D03*
X543000D02*
D03*
X531000Y447000D02*
D03*
X545000D02*
D03*
X111000Y738000D02*
D03*
X125000D02*
D03*
X213000Y250727D02*
D03*
X227000D02*
D03*
X826000Y303000D02*
D03*
X812000D02*
D03*
X790400Y520000D02*
D03*
X804400D02*
D03*
X213000Y429364D02*
D03*
X227000D02*
D03*
X213000Y322182D02*
D03*
X227000D02*
D03*
X213000Y357909D02*
D03*
X227000D02*
D03*
X870950Y463000D02*
D03*
X856950D02*
D03*
X213000Y465091D02*
D03*
X227000D02*
D03*
X543000Y224000D02*
D03*
X529000D02*
D03*
X703000Y252000D02*
D03*
X717000D02*
D03*
X213000Y572273D02*
D03*
X227000D02*
D03*
X597000Y34750D02*
D03*
X583000D02*
D03*
X717000Y383750D02*
D03*
X703000D02*
D03*
X661525Y303000D02*
D03*
X675525D02*
D03*
X264000Y174000D02*
D03*
X278000D02*
D03*
X884000Y615000D02*
D03*
X870000D02*
D03*
X543000Y259000D02*
D03*
X529000D02*
D03*
X829450Y484000D02*
D03*
X815450D02*
D03*
X457000Y53000D02*
D03*
X471000D02*
D03*
X703000Y303000D02*
D03*
X717000D02*
D03*
X529000Y292000D02*
D03*
X543000D02*
D03*
X757400Y557250D02*
D03*
X743400D02*
D03*
X613000Y314750D02*
D03*
X599000D02*
D03*
X549000Y514000D02*
D03*
X563000D02*
D03*
X213000Y286455D02*
D03*
X227000D02*
D03*
X970000Y510000D02*
D03*
X984000D02*
D03*
X264000Y128500D02*
D03*
X278000D02*
D03*
X1036000Y269000D02*
D03*
X1050000D02*
D03*
X1036000Y286000D02*
D03*
X1050000D02*
D03*
X930000Y499000D02*
D03*
X916000D02*
D03*
D82*
X966000Y313000D02*
D03*
X1146000Y493000D02*
D03*
X714750Y444150D02*
D03*
X702050D02*
D03*
Y458120D02*
D03*
X714750D02*
D03*
X702050Y473360D02*
D03*
X714750D02*
D03*
X702050Y491140D02*
D03*
X714750D02*
D03*
X702050Y506380D02*
D03*
X714750D02*
D03*
Y520350D02*
D03*
X702050D02*
D03*
X870000Y547250D02*
D03*
Y571250D02*
D03*
Y559250D02*
D03*
X707000Y642000D02*
D03*
X785000Y170000D02*
D03*
X423000Y31000D02*
D03*
X718450Y329254D02*
D03*
X707000Y665000D02*
D03*
D83*
X1134000Y463000D02*
D03*
Y458000D02*
D03*
Y453000D02*
D03*
Y448000D02*
D03*
Y443000D02*
D03*
Y438000D02*
D03*
Y433000D02*
D03*
Y428000D02*
D03*
Y423000D02*
D03*
Y418000D02*
D03*
Y413000D02*
D03*
Y408000D02*
D03*
Y403000D02*
D03*
Y398000D02*
D03*
Y393000D02*
D03*
Y388000D02*
D03*
Y383000D02*
D03*
Y378000D02*
D03*
Y373000D02*
D03*
Y368000D02*
D03*
Y363000D02*
D03*
Y358000D02*
D03*
Y353000D02*
D03*
Y348000D02*
D03*
Y343000D02*
D03*
X978000D02*
D03*
Y348000D02*
D03*
Y353000D02*
D03*
Y358000D02*
D03*
Y363000D02*
D03*
Y368000D02*
D03*
Y373000D02*
D03*
Y378000D02*
D03*
Y383000D02*
D03*
Y388000D02*
D03*
Y393000D02*
D03*
Y398000D02*
D03*
Y403000D02*
D03*
Y408000D02*
D03*
Y413000D02*
D03*
Y418000D02*
D03*
Y423000D02*
D03*
Y428000D02*
D03*
Y433000D02*
D03*
Y438000D02*
D03*
Y443000D02*
D03*
Y448000D02*
D03*
Y453000D02*
D03*
Y458000D02*
D03*
Y463000D02*
D03*
D84*
X1116000Y325000D02*
D03*
X1111000D02*
D03*
X1106000D02*
D03*
X1101000D02*
D03*
X1096000D02*
D03*
X1091000D02*
D03*
X1086000D02*
D03*
X1081000D02*
D03*
X1076000D02*
D03*
X1071000D02*
D03*
X1066000D02*
D03*
X1061000D02*
D03*
X1056000D02*
D03*
X1051000D02*
D03*
X1046000D02*
D03*
X1041000D02*
D03*
X1036000D02*
D03*
X1031000D02*
D03*
X1026000D02*
D03*
X1021000D02*
D03*
X1016000D02*
D03*
X1011000D02*
D03*
X1006000D02*
D03*
X1001000D02*
D03*
X996000D02*
D03*
Y481000D02*
D03*
X1001000D02*
D03*
X1006000D02*
D03*
X1011000D02*
D03*
X1016000D02*
D03*
X1021000D02*
D03*
X1026000D02*
D03*
X1031000D02*
D03*
X1036000D02*
D03*
X1041000D02*
D03*
X1046000D02*
D03*
X1051000D02*
D03*
X1056000D02*
D03*
X1061000D02*
D03*
X1066000D02*
D03*
X1071000D02*
D03*
X1076000D02*
D03*
X1081000D02*
D03*
X1086000D02*
D03*
X1091000D02*
D03*
X1096000D02*
D03*
X1101000D02*
D03*
X1106000D02*
D03*
X1111000D02*
D03*
X1116000D02*
D03*
D85*
X1263000Y559000D02*
D03*
X1245000D02*
D03*
X227000Y304160D02*
D03*
X209000D02*
D03*
X227000Y447040D02*
D03*
X209000D02*
D03*
X227000Y268440D02*
D03*
X209000D02*
D03*
X227000Y411320D02*
D03*
X209000D02*
D03*
X227000Y232720D02*
D03*
X209000D02*
D03*
X227000Y375600D02*
D03*
X209000D02*
D03*
X227000Y197000D02*
D03*
X209000D02*
D03*
X227000Y339880D02*
D03*
X209000D02*
D03*
X278000Y147250D02*
D03*
X260000D02*
D03*
X227000Y589920D02*
D03*
X209000D02*
D03*
X278000Y109625D02*
D03*
X260000D02*
D03*
X227000Y554200D02*
D03*
X209000D02*
D03*
X278000Y72000D02*
D03*
X260000D02*
D03*
X227000Y518480D02*
D03*
X209000D02*
D03*
X371000Y30901D02*
D03*
X389000D02*
D03*
X227000Y482760D02*
D03*
X209000D02*
D03*
X785000Y228000D02*
D03*
X767000D02*
D03*
D86*
X708000Y624000D02*
D03*
Y606000D02*
D03*
X227000Y724000D02*
D03*
Y706000D02*
D03*
X728000Y624000D02*
D03*
Y606000D02*
D03*
X457000Y600000D02*
D03*
Y618000D02*
D03*
D87*
X701000Y690000D02*
D03*
X669000D02*
D03*
D88*
X559000Y93000D02*
D03*
X549000D02*
D03*
X539000D02*
D03*
X569000D02*
D03*
X559000Y123000D02*
D03*
X549000D02*
D03*
X539000D02*
D03*
X569000D02*
D03*
Y103000D02*
D03*
Y113000D02*
D03*
X539000Y103000D02*
D03*
X549000D02*
D03*
X539000Y113000D02*
D03*
X549000D02*
D03*
X559000Y103000D02*
D03*
Y113000D02*
D03*
X619000Y476000D02*
D03*
X1257000Y607000D02*
D03*
X955750Y333000D02*
D03*
X909000Y250349D02*
D03*
X951000D02*
D03*
X560000Y397446D02*
D03*
X514000Y308000D02*
D03*
X560000Y458000D02*
D03*
X534000Y548000D02*
D03*
X393000Y133000D02*
D03*
X878651Y286000D02*
D03*
X830000Y326000D02*
D03*
X819000Y289000D02*
D03*
X729000Y279000D02*
D03*
X735000Y244000D02*
D03*
X729000Y252000D02*
D03*
X741000Y254000D02*
D03*
X691000Y285000D02*
D03*
X777000Y282000D02*
D03*
X796000Y303000D02*
D03*
X771000Y212000D02*
D03*
X801000D02*
D03*
X824000Y233000D02*
D03*
X500000Y17000D02*
D03*
X567000Y63000D02*
D03*
X1242000Y510000D02*
D03*
Y436000D02*
D03*
X147000Y28000D02*
D03*
X442000Y152450D02*
D03*
X488000D02*
D03*
X641947Y491000D02*
D03*
X648713Y475000D02*
D03*
X633000Y531000D02*
D03*
X641947Y516447D02*
D03*
X384100Y249000D02*
D03*
X768000Y483000D02*
D03*
X804400Y494400D02*
D03*
X1154000Y391000D02*
D03*
X1181000Y368000D02*
D03*
X677000Y234000D02*
D03*
Y258000D02*
D03*
X659500Y262500D02*
D03*
X497000Y87000D02*
D03*
X458199Y201600D02*
D03*
X477100Y223800D02*
D03*
X470799Y216400D02*
D03*
X445599Y186800D02*
D03*
X439299Y179400D02*
D03*
X451899Y194200D02*
D03*
X464500Y209000D02*
D03*
X483400Y231200D02*
D03*
X385000Y547000D02*
D03*
X496000Y246000D02*
D03*
X489700Y238600D02*
D03*
X925000Y263000D02*
D03*
X964000Y292000D02*
D03*
X897000Y339000D02*
D03*
X769000Y159000D02*
D03*
X438000Y487000D02*
D03*
X398000Y446000D02*
D03*
X620000Y582000D02*
D03*
X649000D02*
D03*
X488000Y374000D02*
D03*
X477000Y271000D02*
D03*
X1146600Y61800D02*
D03*
X1045000Y61400D02*
D03*
X345200Y236100D02*
D03*
X566000Y262000D02*
D03*
X1283000Y449000D02*
D03*
X476000Y399000D02*
D03*
X661000Y432000D02*
D03*
X593000Y333000D02*
D03*
X916000Y468950D02*
D03*
X880747Y339000D02*
D03*
X947000Y359000D02*
D03*
X728000Y363000D02*
D03*
X682000Y322000D02*
D03*
X765000Y395000D02*
D03*
X942000Y407000D02*
D03*
X930050D02*
D03*
Y468950D02*
D03*
X488000Y435000D02*
D03*
X534000Y471000D02*
D03*
X458700Y435300D02*
D03*
X448000Y575000D02*
D03*
X426000D02*
D03*
X386000Y362000D02*
D03*
X385000Y530000D02*
D03*
X416000Y334000D02*
D03*
X386000Y299000D02*
D03*
X344257Y446743D02*
D03*
X386000Y480000D02*
D03*
Y274000D02*
D03*
X432999Y172000D02*
D03*
X573000Y50000D02*
D03*
X942000Y472000D02*
D03*
X189000Y708000D02*
D03*
X633000Y479000D02*
D03*
Y466000D02*
D03*
X793000Y571000D02*
D03*
X770000Y557000D02*
D03*
X688000Y539000D02*
D03*
X604000Y466000D02*
D03*
X546500Y669500D02*
D03*
X728000Y352000D02*
D03*
X388000Y720000D02*
D03*
Y740000D02*
D03*
Y700000D02*
D03*
X386000Y427000D02*
D03*
X414975Y493000D02*
D03*
X315000Y494000D02*
D03*
X385000Y505000D02*
D03*
X348000Y740000D02*
D03*
Y720000D02*
D03*
Y700000D02*
D03*
X358000Y630000D02*
D03*
Y640000D02*
D03*
X359000Y598000D02*
D03*
X368000Y720000D02*
D03*
Y700000D02*
D03*
Y740000D02*
D03*
X838000Y585000D02*
D03*
X925501Y225000D02*
D03*
X910000Y667000D02*
D03*
X790000Y628000D02*
D03*
X659500Y272000D02*
D03*
X990000Y194000D02*
D03*
X1057000Y745000D02*
D03*
X1208420Y660604D02*
D03*
X534000Y488000D02*
D03*
X658000Y161000D02*
D03*
X488000Y127000D02*
D03*
X730000Y303000D02*
D03*
X769100Y336000D02*
D03*
X707000Y352000D02*
D03*
X850000Y303000D02*
D03*
X983250Y292000D02*
D03*
X562000Y224000D02*
D03*
X647000Y233000D02*
D03*
X609000Y243000D02*
D03*
X955000Y129000D02*
D03*
X609000Y95000D02*
D03*
X506000Y76000D02*
D03*
X558000Y24000D02*
D03*
X1037000Y745000D02*
D03*
X1141000Y630000D02*
D03*
X159000Y782000D02*
D03*
X169000Y98000D02*
D03*
X120000Y89000D02*
D03*
X1056000Y522000D02*
D03*
X1124000Y264000D02*
D03*
X844000Y463000D02*
D03*
X1016000Y433000D02*
D03*
X1006000D02*
D03*
X626000Y170000D02*
D03*
X174000Y782000D02*
D03*
X1279000Y219000D02*
D03*
X1154000Y454000D02*
D03*
X808000Y253000D02*
D03*
X839000Y303000D02*
D03*
X647000Y289000D02*
D03*
X715000Y203000D02*
D03*
X769000Y320000D02*
D03*
X783650Y352000D02*
D03*
X1165000Y463000D02*
D03*
X1162000Y352000D02*
D03*
X1105000Y433000D02*
D03*
X1165000Y450000D02*
D03*
X1001000Y265000D02*
D03*
X1153000Y516000D02*
D03*
X1085000Y536000D02*
D03*
X1082000Y454000D02*
D03*
X1019000Y399000D02*
D03*
X1040000Y454000D02*
D03*
X968000Y156000D02*
D03*
X1011000Y265000D02*
D03*
X979000Y156000D02*
D03*
X1121000Y616000D02*
D03*
X1279000Y363000D02*
D03*
Y257000D02*
D03*
X1227000Y219000D02*
D03*
X1044000Y248000D02*
D03*
X1184000Y307000D02*
D03*
X1132421Y219421D02*
D03*
X1242000Y363000D02*
D03*
X642803Y447197D02*
D03*
X1041000Y301000D02*
D03*
X1154000Y330000D02*
D03*
X1204000Y368000D02*
D03*
X1222000Y352000D02*
D03*
X1095600Y61600D02*
D03*
X900000Y639000D02*
D03*
X909000D02*
D03*
X523000Y669500D02*
D03*
X804000Y531000D02*
D03*
X829000Y473025D02*
D03*
X809000Y585000D02*
D03*
X388000Y760000D02*
D03*
X368000D02*
D03*
X348000D02*
D03*
X568000Y542000D02*
D03*
X557000D02*
D03*
X579000D02*
D03*
X523000Y565000D02*
D03*
X768000Y375900D02*
D03*
X202000Y668000D02*
D03*
Y726000D02*
D03*
Y735000D02*
D03*
X184000Y624000D02*
D03*
Y647000D02*
D03*
X1245000Y577000D02*
D03*
X1102000Y547000D02*
D03*
X898096Y527096D02*
D03*
X529000Y35000D02*
D03*
X851000Y253000D02*
D03*
X471000Y64500D02*
D03*
X239000Y109000D02*
D03*
X897000Y315000D02*
D03*
X815500Y431667D02*
D03*
X870000Y598000D02*
D03*
X1213000Y139000D02*
D03*
X444000Y53000D02*
D03*
X398000Y63800D02*
D03*
Y89200D02*
D03*
Y114600D02*
D03*
X370250Y126850D02*
D03*
X315250Y274000D02*
D03*
Y402000D02*
D03*
X878651Y250349D02*
D03*
X197000Y608000D02*
D03*
X783650Y454250D02*
D03*
X1047000Y146000D02*
D03*
X1022000D02*
D03*
X1146000Y772000D02*
D03*
X969000Y771998D02*
D03*
X276500Y38825D02*
D03*
X1064000Y146000D02*
D03*
X1194000Y682000D02*
D03*
X1191500Y616000D02*
D03*
X1207000D02*
D03*
X488000Y101950D02*
D03*
Y76000D02*
D03*
X768000Y462000D02*
D03*
X226000Y174000D02*
D03*
X970000Y498000D02*
D03*
X799125Y484125D02*
D03*
X1272000Y669000D02*
D03*
X909000Y286000D02*
D03*
X1150000Y175000D02*
D03*
X197000Y115000D02*
D03*
X212000Y99000D02*
D03*
X239000Y174000D02*
D03*
X197000Y573000D02*
D03*
Y537000D02*
D03*
X182000Y233000D02*
D03*
X197000Y250727D02*
D03*
Y286700D02*
D03*
Y322182D02*
D03*
Y358000D02*
D03*
Y393000D02*
D03*
Y430000D02*
D03*
Y501000D02*
D03*
Y215000D02*
D03*
X227000Y98000D02*
D03*
Y124000D02*
D03*
X239000Y136000D02*
D03*
X182000Y207000D02*
D03*
X197000Y465091D02*
D03*
X239000Y81000D02*
D03*
X238000Y50000D02*
D03*
X442000Y127000D02*
D03*
Y101950D02*
D03*
Y76000D02*
D03*
X386000Y377000D02*
D03*
Y402000D02*
D03*
X1057000Y537000D02*
D03*
D89*
X50000Y50000D02*
D03*
Y750000D02*
D03*
D90*
X890700Y707000D02*
D03*
X759300D02*
D03*
D91*
X1186000Y720000D02*
D03*
X1166000D02*
D03*
X1106000D02*
D03*
X1086000D02*
D03*
X1066000D02*
D03*
X1046000D02*
D03*
X1026000D02*
D03*
X1006000D02*
D03*
X986000D02*
D03*
X1126000D02*
D03*
X1146000D02*
D03*
X1071000Y678000D02*
D03*
X1116000Y567000D02*
D03*
D92*
X966000Y720000D02*
D03*
X1091000Y678000D02*
D03*
X1096000Y567000D02*
D03*
D93*
X673800Y345000D02*
D03*
X988400Y644000D02*
D03*
X677600Y120000D02*
D03*
D94*
X648400Y345000D02*
D03*
X623000D02*
D03*
X963000Y644000D02*
D03*
X937600D02*
D03*
X728400Y120000D02*
D03*
X703000D02*
D03*
D95*
X672400Y750000D02*
D03*
X647000D02*
D03*
X621600D02*
D03*
D96*
X876000Y46000D02*
D03*
X901000D02*
D03*
X926000D02*
D03*
X135000Y567000D02*
D03*
Y667000D02*
D03*
Y642000D02*
D03*
Y617000D02*
D03*
Y592000D02*
D03*
Y492000D02*
D03*
Y517000D02*
D03*
Y542000D02*
D03*
Y467000D02*
D03*
Y392000D02*
D03*
Y442000D02*
D03*
Y417000D02*
D03*
Y317000D02*
D03*
Y342000D02*
D03*
Y292000D02*
D03*
Y367000D02*
D03*
Y242000D02*
D03*
Y267000D02*
D03*
X45000Y134000D02*
D03*
Y234000D02*
D03*
Y209000D02*
D03*
Y184000D02*
D03*
Y159000D02*
D03*
Y484000D02*
D03*
Y584000D02*
D03*
Y559000D02*
D03*
Y534000D02*
D03*
Y509000D02*
D03*
Y409000D02*
D03*
Y434000D02*
D03*
Y459000D02*
D03*
Y384000D02*
D03*
Y309000D02*
D03*
Y359000D02*
D03*
Y334000D02*
D03*
X781000Y46000D02*
D03*
X806000D02*
D03*
X661000D02*
D03*
X686000D02*
D03*
X711000D02*
D03*
X51000Y650000D02*
D03*
Y675000D02*
D03*
D97*
X1250000Y50000D02*
D03*
Y750000D02*
D03*
D98*
X149000Y712000D02*
D03*
Y754000D02*
D03*
M02*
