G04*
G04 #@! TF.GenerationSoftware,Altium Limited,Altium Designer,21.6.1 (37)*
G04*
G04 Layer_Color=16711935*
%FSLAX44Y44*%
%MOMM*%
G71*
G04*
G04 #@! TF.SameCoordinates,38397863-0F1A-4956-A7FE-9114BFC2A937*
G04*
G04*
G04 #@! TF.FilePolarity,Positive*
G04*
G01*
G75*
%ADD12C,0.2000*%
%ADD14C,0.2540*%
%ADD101C,1.0000*%
D12*
X0Y0D02*
X1300000D01*
X0D02*
Y800000D01*
X1300000Y0D02*
Y800000D01*
X0D02*
X1300000D01*
D14*
X-63000D02*
X-57920Y784760D01*
X-68080D02*
X-63000Y800000D01*
X-68080Y15240D02*
X-63000Y0D01*
X-57920Y15240D01*
X-63000Y512464D02*
Y800000D01*
Y0D02*
Y262456D01*
X-65540Y800000D02*
X-3540D01*
X-65540Y0D02*
X-3540D01*
X0Y892000D02*
X15240Y897080D01*
X0Y892000D02*
X15240Y886920D01*
X1284760D02*
X1300000Y892000D01*
X1284760Y897080D02*
X1300000Y892000D01*
X0D02*
X491630D01*
X783290D02*
X1300000D01*
X0Y803540D02*
Y894540D01*
X1300000Y803540D02*
Y894540D01*
D101*
X-69661Y274996D02*
X-77992Y283327D01*
Y299988D01*
X-69661Y308319D01*
X-61331D01*
X-53000Y299988D01*
X-44669Y308319D01*
X-36339D01*
X-28008Y299988D01*
Y283327D01*
X-36339Y274996D01*
X-44669D01*
X-53000Y283327D01*
X-61331Y274996D01*
X-69661D01*
X-53000Y283327D02*
Y299988D01*
X-69661Y324980D02*
X-77992Y333311D01*
Y349972D01*
X-69661Y358303D01*
X-36339D01*
X-28008Y349972D01*
Y333311D01*
X-36339Y324980D01*
X-69661D01*
X-28008Y374964D02*
X-36339D01*
Y383295D01*
X-28008D01*
Y374964D01*
X-69661Y416617D02*
X-77992Y424948D01*
Y441609D01*
X-69661Y449940D01*
X-36339D01*
X-28008Y441609D01*
Y424948D01*
X-36339Y416617D01*
X-69661D01*
Y466601D02*
X-77992Y474932D01*
Y491593D01*
X-69661Y499924D01*
X-36339D01*
X-28008Y491593D01*
Y474932D01*
X-36339Y466601D01*
X-69661D01*
X504170Y857008D02*
X520831D01*
X512500D01*
Y906992D01*
X504170Y898661D01*
X545823D02*
X554154Y906992D01*
X570815D01*
X579146Y898661D01*
Y890331D01*
X570815Y882000D01*
X562484D01*
X570815D01*
X579146Y873669D01*
Y865339D01*
X570815Y857008D01*
X554154D01*
X545823Y865339D01*
X595807Y898661D02*
X604137Y906992D01*
X620799D01*
X629129Y898661D01*
Y865339D01*
X620799Y857008D01*
X604137D01*
X595807Y865339D01*
Y898661D01*
X645791Y857008D02*
Y865339D01*
X654121D01*
Y857008D01*
X645791D01*
X687444Y898661D02*
X695775Y906992D01*
X712436D01*
X720766Y898661D01*
Y865339D01*
X712436Y857008D01*
X695775D01*
X687444Y865339D01*
Y898661D01*
X737428D02*
X745758Y906992D01*
X762420D01*
X770750Y898661D01*
Y865339D01*
X762420Y857008D01*
X745758D01*
X737428Y865339D01*
Y898661D01*
M02*
