G04*
G04 #@! TF.GenerationSoftware,Altium Limited,Altium Designer,21.6.1 (37)*
G04*
G04 Layer_Physical_Order=3*
G04 Layer_Color=128*
%FSLAX44Y44*%
%MOMM*%
G71*
G04*
G04 #@! TF.SameCoordinates,38397863-0F1A-4956-A7FE-9114BFC2A937*
G04*
G04*
G04 #@! TF.FilePolarity,Negative*
G04*
G01*
G75*
%ADD13C,0.5000*%
%ADD91C,1.4000*%
%ADD98C,1.3000*%
%ADD152C,1.0160*%
%ADD155C,2.9000*%
%ADD156C,1.2000*%
G04:AMPARAMS|DCode=157|XSize=1.6mm|YSize=1.6mm|CornerRadius=0mm|HoleSize=0mm|Usage=FLASHONLY|Rotation=0.000|XOffset=0mm|YOffset=0mm|HoleType=Round|Shape=Relief|Width=0.2mm|Gap=0.2mm|Entries=4|*
%AMTHD157*
7,0,0,1.6000,1.2000,0.2000,45*
%
%ADD157THD157*%
G04:AMPARAMS|DCode=158|XSize=1.3mm|YSize=1.3mm|CornerRadius=0mm|HoleSize=0mm|Usage=FLASHONLY|Rotation=0.000|XOffset=0mm|YOffset=0mm|HoleType=Round|Shape=Relief|Width=0.2mm|Gap=0.2mm|Entries=4|*
%AMTHD158*
7,0,0,1.3000,0.9000,0.2000,45*
%
%ADD158THD158*%
%ADD159C,0.8000*%
G04:AMPARAMS|DCode=160|XSize=1.7mm|YSize=1.7mm|CornerRadius=0mm|HoleSize=0mm|Usage=FLASHONLY|Rotation=0.000|XOffset=0mm|YOffset=0mm|HoleType=Round|Shape=Relief|Width=0.2mm|Gap=0.2mm|Entries=4|*
%AMTHD160*
7,0,0,1.7000,1.3000,0.2000,45*
%
%ADD160THD160*%
%ADD161C,3.6000*%
%ADD162C,0.9000*%
%ADD163C,0.7000*%
G04:AMPARAMS|DCode=164|XSize=1.8mm|YSize=1.8mm|CornerRadius=0mm|HoleSize=0mm|Usage=FLASHONLY|Rotation=0.000|XOffset=0mm|YOffset=0mm|HoleType=Round|Shape=Relief|Width=0.2mm|Gap=0.2mm|Entries=4|*
%AMTHD164*
7,0,0,1.8000,1.4000,0.2000,45*
%
%ADD164THD164*%
D13*
X219000Y799000D02*
X238000D01*
X865000Y301000D02*
X895000D01*
X429000Y295000D02*
X830000D01*
X865168Y280264D02*
Y301000D01*
X830000Y280000D02*
X865168Y280264D01*
X830000Y280000D02*
Y295000D01*
X381000Y2000D02*
Y157373D01*
X435146D01*
X468750Y189000D02*
X872000Y189000D01*
X435146Y157373D02*
X468750Y189000D01*
X872000Y189000D02*
X895000Y212000D01*
X271000Y579000D02*
X349000D01*
X367000Y561000D01*
Y357000D02*
Y561000D01*
X895000Y212000D02*
Y301000D01*
X887000Y0D02*
X890000Y3000D01*
X367000Y357000D02*
X429000Y295000D01*
X238000Y612000D02*
X271000Y579000D01*
X238000Y612000D02*
Y799000D01*
D91*
X673800Y345000D02*
D03*
X648400D02*
D03*
X623000D02*
D03*
X647000Y750000D02*
D03*
X621600D02*
D03*
X988400Y644000D02*
D03*
X963000D02*
D03*
X937600D02*
D03*
X728400Y120000D02*
D03*
X703000D02*
D03*
X677600D02*
D03*
D98*
X876000Y46000D02*
D03*
X901000D02*
D03*
X926000D02*
D03*
X135000Y567000D02*
D03*
Y667000D02*
D03*
Y642000D02*
D03*
Y617000D02*
D03*
Y592000D02*
D03*
Y492000D02*
D03*
Y517000D02*
D03*
Y542000D02*
D03*
Y467000D02*
D03*
Y392000D02*
D03*
Y442000D02*
D03*
Y417000D02*
D03*
Y317000D02*
D03*
Y342000D02*
D03*
Y292000D02*
D03*
Y367000D02*
D03*
Y242000D02*
D03*
Y267000D02*
D03*
X45000Y134000D02*
D03*
Y234000D02*
D03*
Y209000D02*
D03*
Y184000D02*
D03*
Y159000D02*
D03*
Y484000D02*
D03*
Y584000D02*
D03*
Y559000D02*
D03*
Y534000D02*
D03*
Y509000D02*
D03*
Y409000D02*
D03*
Y434000D02*
D03*
Y459000D02*
D03*
Y384000D02*
D03*
Y309000D02*
D03*
Y359000D02*
D03*
Y334000D02*
D03*
X781000Y46000D02*
D03*
X806000D02*
D03*
X661000D02*
D03*
X686000D02*
D03*
X711000D02*
D03*
X51000Y675000D02*
D03*
D152*
X0Y0D02*
Y800000D01*
X1300000D01*
Y0D02*
Y800000D01*
X0Y0D02*
X1300000D01*
D155*
X890700Y707000D02*
D03*
X759300D02*
D03*
D156*
X1186000Y720000D02*
D03*
X1106000D02*
D03*
X1086000D02*
D03*
X1066000D02*
D03*
X1046000D02*
D03*
X1026000D02*
D03*
X1006000D02*
D03*
X986000D02*
D03*
X966000D02*
D03*
X1126000D02*
D03*
X1146000D02*
D03*
X1091000Y678000D02*
D03*
X1071000D02*
D03*
X1116000Y567000D02*
D03*
X1096000D02*
D03*
X149000Y754000D02*
D03*
D157*
X1166000Y720000D02*
D03*
D158*
X707000Y665000D02*
D03*
D159*
X870000Y547250D02*
D03*
Y571250D02*
D03*
Y559250D02*
D03*
D160*
X51000Y650000D02*
D03*
D161*
X50000Y50000D02*
D03*
Y750000D02*
D03*
X1250000Y50000D02*
D03*
Y750000D02*
D03*
D162*
X714750Y444150D02*
D03*
X702050D02*
D03*
Y458120D02*
D03*
X714750D02*
D03*
X702050Y473360D02*
D03*
X714750D02*
D03*
X702050Y491140D02*
D03*
X714750D02*
D03*
X702050Y506380D02*
D03*
X714750D02*
D03*
Y520350D02*
D03*
X702050D02*
D03*
X707000Y642000D02*
D03*
X785000Y170000D02*
D03*
X423000Y31000D02*
D03*
X718450Y329254D02*
D03*
D163*
X559000Y93000D02*
D03*
X549000D02*
D03*
X539000D02*
D03*
X569000D02*
D03*
X559000Y123000D02*
D03*
X549000D02*
D03*
X539000D02*
D03*
X569000D02*
D03*
Y103000D02*
D03*
Y113000D02*
D03*
X539000Y103000D02*
D03*
X549000D02*
D03*
X539000Y113000D02*
D03*
X549000D02*
D03*
X559000Y103000D02*
D03*
Y113000D02*
D03*
X619000Y476000D02*
D03*
X1257000Y607000D02*
D03*
X955750Y333000D02*
D03*
X909000Y250349D02*
D03*
X951000D02*
D03*
X560000Y397446D02*
D03*
X514000Y308000D02*
D03*
X560000Y458000D02*
D03*
X534000Y548000D02*
D03*
X393000Y133000D02*
D03*
X830000Y326000D02*
D03*
X819000Y289000D02*
D03*
X729000Y279000D02*
D03*
X735000Y244000D02*
D03*
X729000Y252000D02*
D03*
X741000Y254000D02*
D03*
X691000Y285000D02*
D03*
X777000Y282000D02*
D03*
X796000Y303000D02*
D03*
X771000Y212000D02*
D03*
X801000D02*
D03*
X824000Y233000D02*
D03*
X500000Y17000D02*
D03*
X567000Y63000D02*
D03*
X1242000Y510000D02*
D03*
Y436000D02*
D03*
X442000Y152450D02*
D03*
X488000D02*
D03*
X641947Y491000D02*
D03*
X648713Y475000D02*
D03*
X633000Y531000D02*
D03*
X641947Y516447D02*
D03*
X384100Y249000D02*
D03*
X768000Y483000D02*
D03*
X804400Y494400D02*
D03*
X1154000Y391000D02*
D03*
X1181000Y368000D02*
D03*
X677000Y234000D02*
D03*
Y258000D02*
D03*
X659500Y262500D02*
D03*
X458199Y201600D02*
D03*
X477100Y223800D02*
D03*
X470799Y216400D02*
D03*
X445599Y186800D02*
D03*
X439299Y179400D02*
D03*
X451899Y194200D02*
D03*
X464500Y209000D02*
D03*
X483400Y231200D02*
D03*
X385000Y547000D02*
D03*
X496000Y246000D02*
D03*
X489700Y238600D02*
D03*
X925000Y263000D02*
D03*
X964000Y292000D02*
D03*
X897000Y339000D02*
D03*
X769000Y159000D02*
D03*
X438000Y487000D02*
D03*
X620000Y582000D02*
D03*
X649000D02*
D03*
X477000Y271000D02*
D03*
X1146600Y61800D02*
D03*
X1045000Y61400D02*
D03*
X345200Y236100D02*
D03*
X566000Y262000D02*
D03*
X1283000Y449000D02*
D03*
X476000Y399000D02*
D03*
X661000Y432000D02*
D03*
X593000Y333000D02*
D03*
X916000Y468950D02*
D03*
X880747Y339000D02*
D03*
X947000Y359000D02*
D03*
X728000Y363000D02*
D03*
X682000Y322000D02*
D03*
X942000Y407000D02*
D03*
X930050D02*
D03*
Y468950D02*
D03*
X534000Y471000D02*
D03*
X458700Y435300D02*
D03*
X448000Y575000D02*
D03*
X426000D02*
D03*
X386000Y362000D02*
D03*
X385000Y530000D02*
D03*
X386000Y299000D02*
D03*
X344257Y446743D02*
D03*
X386000Y480000D02*
D03*
Y274000D02*
D03*
X432999Y172000D02*
D03*
X942000Y472000D02*
D03*
X189000Y708000D02*
D03*
X633000Y479000D02*
D03*
Y466000D02*
D03*
X793000Y571000D02*
D03*
X770000Y557000D02*
D03*
X688000Y539000D02*
D03*
X604000Y466000D02*
D03*
X728000Y352000D02*
D03*
X388000Y720000D02*
D03*
Y740000D02*
D03*
Y700000D02*
D03*
X386000Y427000D02*
D03*
X385000Y505000D02*
D03*
X348000Y740000D02*
D03*
Y720000D02*
D03*
Y700000D02*
D03*
X358000Y630000D02*
D03*
Y640000D02*
D03*
X359000Y598000D02*
D03*
X368000Y720000D02*
D03*
Y700000D02*
D03*
Y740000D02*
D03*
X838000Y585000D02*
D03*
X925501Y225000D02*
D03*
X910000Y667000D02*
D03*
X790000Y628000D02*
D03*
X659500Y272000D02*
D03*
X990000Y194000D02*
D03*
X534000Y488000D02*
D03*
X658000Y161000D02*
D03*
X488000Y127000D02*
D03*
X730000Y303000D02*
D03*
X769100Y336000D02*
D03*
X707000Y352000D02*
D03*
X983250Y292000D02*
D03*
X562000Y224000D02*
D03*
X647000Y233000D02*
D03*
X609000Y243000D02*
D03*
X955000Y129000D02*
D03*
X609000Y95000D02*
D03*
X506000Y76000D02*
D03*
X558000Y24000D02*
D03*
X1037000Y745000D02*
D03*
X1141000Y630000D02*
D03*
X159000Y782000D02*
D03*
X169000Y98000D02*
D03*
X120000Y89000D02*
D03*
X1056000Y522000D02*
D03*
X1016000Y433000D02*
D03*
X1006000D02*
D03*
X626000Y170000D02*
D03*
X174000Y782000D02*
D03*
X1279000Y219000D02*
D03*
X1154000Y454000D02*
D03*
X808000Y253000D02*
D03*
X839000Y303000D02*
D03*
X647000Y289000D02*
D03*
X715000Y203000D02*
D03*
X769000Y320000D02*
D03*
X783650Y352000D02*
D03*
X1165000Y463000D02*
D03*
X1162000Y352000D02*
D03*
X1105000Y433000D02*
D03*
X1165000Y450000D02*
D03*
X1001000Y265000D02*
D03*
X1153000Y516000D02*
D03*
X1085000Y536000D02*
D03*
X1082000Y454000D02*
D03*
X968000Y156000D02*
D03*
X1011000Y265000D02*
D03*
X979000Y156000D02*
D03*
X1121000Y616000D02*
D03*
X1279000Y257000D02*
D03*
X1227000Y219000D02*
D03*
X1044000Y248000D02*
D03*
X1184000Y307000D02*
D03*
X1242000Y363000D02*
D03*
X642803Y447197D02*
D03*
X1154000Y330000D02*
D03*
X1204000Y368000D02*
D03*
X1222000Y352000D02*
D03*
X1095600Y61600D02*
D03*
X900000Y639000D02*
D03*
X909000D02*
D03*
X523000Y669500D02*
D03*
X804000Y531000D02*
D03*
X829000Y473025D02*
D03*
X809000Y585000D02*
D03*
X388000Y760000D02*
D03*
X368000D02*
D03*
X348000D02*
D03*
X568000Y542000D02*
D03*
X557000D02*
D03*
X579000D02*
D03*
X523000Y565000D02*
D03*
X768000Y375900D02*
D03*
X202000Y668000D02*
D03*
Y726000D02*
D03*
Y735000D02*
D03*
X184000Y624000D02*
D03*
Y647000D02*
D03*
X898096Y527096D02*
D03*
X851000Y253000D02*
D03*
X239000Y109000D02*
D03*
X870000Y598000D02*
D03*
X444000Y53000D02*
D03*
X398000Y63800D02*
D03*
Y89200D02*
D03*
Y114600D02*
D03*
X197000Y608000D02*
D03*
X783650Y454250D02*
D03*
X1146000Y772000D02*
D03*
X276500Y38825D02*
D03*
X1194000Y682000D02*
D03*
X1191500Y616000D02*
D03*
X488000Y101950D02*
D03*
Y76000D02*
D03*
X768000Y462000D02*
D03*
X226000Y174000D02*
D03*
X970000Y498000D02*
D03*
X799125Y484125D02*
D03*
X1272000Y669000D02*
D03*
X909000Y286000D02*
D03*
X1150000Y175000D02*
D03*
X197000Y115000D02*
D03*
X212000Y99000D02*
D03*
X239000Y174000D02*
D03*
X197000Y573000D02*
D03*
Y537000D02*
D03*
X182000Y233000D02*
D03*
X197000Y250727D02*
D03*
Y286700D02*
D03*
Y322182D02*
D03*
Y358000D02*
D03*
Y393000D02*
D03*
Y430000D02*
D03*
Y501000D02*
D03*
Y215000D02*
D03*
X227000Y98000D02*
D03*
Y124000D02*
D03*
X239000Y136000D02*
D03*
X182000Y207000D02*
D03*
X197000Y465091D02*
D03*
X239000Y81000D02*
D03*
X238000Y50000D02*
D03*
X442000Y127000D02*
D03*
Y101950D02*
D03*
Y76000D02*
D03*
X386000Y377000D02*
D03*
Y402000D02*
D03*
D164*
X672400Y750000D02*
D03*
M02*
